<?xml version="1.0" encoding="UTF-8"?>
<svg id="_레이어_1" data-name=" 레이어 1" xmlns="http://www.w3.org/2000/svg" version="1.1" viewBox="0 0 75.9 75.9">
  <defs>
    <style>
      .cls-1 {
        fill: #0a8aff;
      }

      .cls-1, .cls-2 {
        stroke: #515151;
        stroke-linecap: round;
        stroke-linejoin: round;
        stroke-width: 2px;
      }

      .cls-2 {
        fill: #fff;
      }
    </style>
  </defs>
  <path class="cls-1" d="M68.9,40.7c0-.9.1-1.8.1-2.7s0-1.8-.1-2.7l-5.5-3.9c-.3-1-.6-2.1-1-3.1l2.2-6.4c-.9-1.6-2-3-3.2-4.4h-6.7c-.8-.6-1.7-1.2-2.6-1.8l-2-6.4c-1.7-.7-3.4-1.3-5.2-1.7l-5.4,4c-.5,0-1.1,0-1.6,0s-1.1,0-1.6,0l-5.4-4c-1.8.4-3.5,1-5.2,1.7l-2,6.4c-.9.6-1.8,1.2-2.6,1.9h-6.7c-1.2,1.3-2.3,2.7-3.2,4.3l2.2,6.4c-.4,1-.7,2-1,3.1l-5.5,3.9c0,.9-.1,1.8-.1,2.7s0,1.8.1,2.7l5.5,3.9c.3,1,.6,2.1,1,3l-2.2,6.4c.9,1.6,2,3,3.2,4.4h6.7c.8.6,1.7,1.2,2.6,1.8l2,6.4c1.7.7,3.4,1.3,5.2,1.7l5.3-4h0c.5,0,1.1,0,1.6,0s1.1,0,1.6,0l5.4,4c1.8-.4,3.5-1,5.2-1.7l2-6.4c.9-.6,1.8-1.2,2.6-1.9h6.7c1.2-1.3,2.3-2.7,3.2-4.3l-2.2-6.4c.4-1,.7-2,1-3l5.5-3.9ZM37.9,53.9c-.3,0-.7,0-1,0-8.3-.5-14.9-7.4-14.9-15.9s7.1-15.9,15.9-15.9.6,0,1,0c8.4.5,15,7.4,15,15.9s-7.1,15.9-15.9,15.9Z"/>
  <path class="cls-2" d="M44.6,38.2c0,3.7-3,6.6-6.6,6.6s-6.6-3-6.6-6.6,3-6.6,6.6-6.6,6.6,3,6.6,6.6Z"/>
</svg>