<?xml version="1.0" encoding="UTF-8"?>
<svg id="_레이어_1" data-name=" 레이어 1" xmlns="http://www.w3.org/2000/svg" version="1.1" viewBox="0 0 75.9 75.9">
  <defs>
    <style>
      .cls-1 {
        fill: none;
      }

      .cls-1, .cls-2, .cls-3 {
        stroke: #515151;
        stroke-linecap: round;
        stroke-linejoin: round;
        stroke-width: 2px;
      }

      .cls-2 {
        fill: #0a8aff;
      }

      .cls-3 {
        fill: #fff;
      }
    </style>
  </defs>
  <g>
    <rect class="cls-2" x="47.4" y="19.8" width="17.8" height="51.3"/>
    <polygon class="cls-2" points="38.3 71.2 19.4 71.2 19.4 14.6 38.3 22.3 38.3 71.2"/>
    <rect class="cls-3" x="34.6" y="31.3" width="17.8" height="39.9"/>
    <rect class="cls-2" x="34.6" y="35.1" width="17.8" height="7.3"/>
    <rect class="cls-2" x="35.6" y="53.6" width="16" height="5.1"/>
    <path class="cls-3" d="M28.1,40.3c0-1.6-1.3-3-3-3h-11.5c-1.6,0-3,1.3-3,3v30.9h17.4v-30.9Z"/>
    <path class="cls-3" d="M48.9,13.5c2.4,2.9,6.7,3.2,9.6.8,2.9-2.4,3.2-6.7.8-9.6l-10.3,8.8Z"/>
    <rect class="cls-3" x="32.9" y="29.4" width="21.3" height="5.7"/>
    <rect class="cls-3" x="32.9" y="46.6" width="21.3" height="5.7"/>
    <rect class="cls-3" x="40.3" y="63.3" width="6.5" height="7.9"/>
  </g>
  <line class="cls-1" x1="16.7" y1="43.5" x2="16.7" y2="71.2"/>
  <line class="cls-1" x1="21.8" y1="43.5" x2="21.8" y2="71.2"/>
  <line class="cls-1" x1="56.3" y1="15.5" x2="56.3" y2="19.8"/>
  <line class="cls-1" x1="51.7" y1="6.4" x2="53.5" y2="8.7"/>
</svg>