<?xml version="1.0" encoding="UTF-8"?>
<svg id="_레이어_1" data-name="레이어 1" xmlns="http://www.w3.org/2000/svg" version="1.1" viewBox="0 0 75.9 75.9">
  <defs>
    <style>
      .cls-1 {
        stroke-width: 1.7px;
      }

      .cls-1, .cls-2 {
        fill: #fff;
        stroke: #0a8aff;
        stroke-linecap: round;
        stroke-linejoin: round;
      }

      .cls-2 {
        stroke-width: 2px;
      }
    </style>
  </defs>
  <path class="cls-2" d="M37.9,2.8h0c1.2,0,2.3,1,2.3,2.3v3.8h-4.5v-3.8c0-1.2,1-2.3,2.3-2.3Z"/>
  <path class="cls-2" d="M44.6,48.5l10.5,18.3c.6,1.1,2,1.5,3.1.8h0c1.1-.6,1.5-2,.8-3.1l-9.2-16.1"/>
  <path class="cls-2" d="M31.1,48.8l-10.3,18c-.6,1.1-2,1.5-3.1.8h0c-1.1-.6-1.5-2-.8-3.1l9-15.7"/>
  <path class="cls-2" d="M40.2,48.4v22.3c0,1.2-1,2.3-2.3,2.3h0c-1.2,0-2.3-1-2.3-2.3v-22.3"/>
  <rect class="cls-2" x="8.7" y="8.9" width="58.5" height="7"/>
  <rect class="cls-2" x="10.8" y="15.9" width="54.3" height="32.7"/>
  <g>
    <polyline class="cls-1" points="19.5 40.4 27.1 30.5 33.6 39.8 40.6 26.2 48 34.8 55.9 23.1"/>
    <circle class="cls-1" cx="19.5" cy="40.4" r="2.1"/>
    <circle class="cls-1" cx="27.1" cy="30.5" r="2.1"/>
    <circle class="cls-1" cx="55.9" cy="23.1" r="2.1"/>
    <circle class="cls-1" cx="48" cy="34.8" r="2.1"/>
  </g>
</svg>