<?xml version="1.0" encoding="UTF-8"?>
<svg id="_레이어_1" data-name="레이어 1" xmlns="http://www.w3.org/2000/svg" version="1.1" viewBox="0 0 75.9 75.9">
  <defs>
    <style>
      .cls-1 {
        stroke: #0a8aff;
        stroke-linecap: round;
        stroke-linejoin: round;
        stroke-width: 2px;
      }

      .cls-1, .cls-2 {
        fill: #fff;
      }

      .cls-3 {
        fill: #0a8aff;
      }

      .cls-3, .cls-2 {
        stroke-width: 0px;
      }
    </style>
  </defs>
  <path class="cls-1" d="M47.2,61h-18.5c1.9-1.9,3.3-4.1,4.2-6.6.5-1.4.9-2.8,1.1-4.2,0-.6.1-1.2.2-1.9v-.4h7.4v.4c0,.6.1,1.2.2,1.9.2,1.5.6,2.9,1.1,4.2,0,.2.2.5.3.7.9,2.2,2.3,4.1,3.9,5.8Z"/>
  <rect class="cls-1" x="8.9" y="9.1" width="58" height="41.1"/>
  <rect class="cls-1" x="22.9" y="6.2" width="30.1" height="47" transform="translate(67.6 -8.3) rotate(90)"/>
  <path class="cls-1" d="M23.9,61h28.1c3.1,0,5.7,2.6,5.7,5.7H18.2c0-3.1,2.6-5.7,5.7-5.7Z"/>
  <g>
    <rect class="cls-1" x="48.4" y="39.4" width="5" height="7.5" transform="translate(-15.6 48.6) rotate(-45)"/>
    <circle class="cls-1" cx="37.3" cy="29.5" r="17.3"/>
    <circle class="cls-1" cx="37.3" cy="29.5" r="12.1"/>
    <rect class="cls-1" x="54.7" y="42.4" width="6.6" height="15.7" transform="translate(-18.6 55.7) rotate(-45)"/>
    <g>
      <path class="cls-2" d="M36.3,37.7c-.6,0-1-.4-1-1v-.6c-.2,0-.4,0-.7-.1-.5-.1-1.1-.3-1.6-.4-.5-.1-.8-.6-.7-1.1l.3-1.9c0-.3.2-.5.5-.7.2-.1.3-.2.5-.2s.2,0,.3,0c.2,0,.4.1.6.2.2,0,.4.1.7.2,0,0,0,0,.1,0v-1.6c-.2,0-.3-.2-.5-.3-.4-.2-.8-.5-1.1-.8-.4-.3-.7-.7-.9-1.1-.3-.5-.4-1-.4-1.5s.1-1.1.3-1.6c.2-.5.5-.9.9-1.2.4-.3.8-.6,1.3-.8.2,0,.4-.2.7-.2v-.8c0-.6.4-1,1-1h1.8c.6,0,1,.4,1,1v.7c.1,0,.2,0,.3,0,.4,0,.9.2,1.3.3.5.1.8.6.7,1.1l-.3,1.9c0,.3-.2.5-.5.7-.2,0-.3.1-.5.1s-.2,0-.3,0c-.2,0-.5-.1-.7-.2v1.1c.2,0,.3.2.5.3.4.2.8.5,1.1.8.4.3.6.7.9,1.1.2.5.4,1,.4,1.6s-.1,1.1-.3,1.6c-.2.5-.5.9-.9,1.2-.4.3-.8.6-1.3.8-.2,0-.4.2-.7.3v.9c0,.6-.4,1-1,1h-1.8Z"/>
      <path class="cls-3" d="M38.4,22.4v1.6c.4,0,.7,0,1.1.1.4,0,.8.2,1.2.3l-.3,1.9c-.4-.1-.8-.2-1.1-.3-.3,0-.6-.2-.9-.2v3c.3.1.7.3,1,.5.3.2.6.4.9.6.3.3.5.5.6.9.2.3.2.7.2,1.1s0,.9-.2,1.2-.4.7-.7.9c-.3.3-.6.5-1,.7-.4.2-.8.3-1.2.4v1.7h-1.8v-1.5h0c-.4,0-.9,0-1.4-.2-.5-.1-1-.2-1.5-.4l.3-1.9c.2,0,.4.1.6.2.2,0,.5.1.7.2.2,0,.5.1.7.2.2,0,.5,0,.7,0v-3.5c-.3-.1-.7-.3-1-.5-.3-.2-.7-.4-.9-.6-.3-.2-.5-.5-.7-.8-.2-.3-.3-.7-.3-1s0-.8.2-1.1.4-.6.7-.9c.3-.2.6-.4,1-.6.4-.2.8-.3,1.3-.3v-1.6h1.8M36.6,28v-2.1c-.3,0-.5.2-.7.4-.2.2-.3.4-.3.7s0,.4.3.6c.2.2.4.4.7.5M38.1,33.2c.3-.1.5-.3.6-.5.2-.2.3-.4.3-.7s0-.5-.3-.6-.4-.4-.7-.5v2.4M38.4,20.4h-1.8c-1.1,0-2,.9-2,2h0c0,.1,0,.1,0,.1-.6.2-1.1.6-1.5.9-.5.5-.9,1-1.2,1.5-.3.6-.4,1.3-.4,2s.2,1.4.5,2c.3.5.7,1,1.1,1.4.2.2.4.3.6.4,0,0,0,0,0,0-.4,0-.7.1-1.1.3-.5.3-.8.8-.9,1.4l-.3,1.9c-.2,1,.5,1.9,1.4,2.2.5.2,1,.3,1.6.4.1,1,1,1.7,2,1.7h1.8c1.1,0,2-.9,2-2v-.2s0,0,0,0c.6-.3,1.1-.6,1.5-1,.5-.4.8-1,1.1-1.6.3-.6.4-1.3.4-2s-.2-1.4-.5-2c-.3-.5-.6-1-1-1.4-.1-.1-.3-.3-.5-.4,0,0,.1,0,.2,0,.5-.3.8-.8.9-1.3l.3-1.9c.2-1-.4-2-1.4-2.3-.3,0-.6-.2-.9-.2,0-1-.9-1.9-2-1.9h0Z"/>
    </g>
  </g>
</svg>