<?xml version="1.0" encoding="UTF-8"?>
<svg id="_레이어_1" data-name="레이어 1" xmlns="http://www.w3.org/2000/svg" version="1.1" viewBox="0 0 75.9 75.9">
  <defs>
    <style>
      .cls-1 {
        fill: none;
        stroke: #0a8aff;
        stroke-linecap: round;
        stroke-linejoin: round;
        stroke-width: 2px;
      }
    </style>
  </defs>
  <rect class="cls-1" x="14.3" y="54" width="9.2" height="13.8"/>
  <rect class="cls-1" x="27.8" y="45.1" width="9.2" height="22.7"/>
  <rect class="cls-1" x="41.4" y="31.1" width="9.2" height="36.7"/>
  <rect class="cls-1" x="54.9" y="14.4" width="9.2" height="53.4"/>
  <line class="cls-1" x1="10.1" y1="67.8" x2="68.3" y2="67.8"/>
  <g>
    <path class="cls-1" d="M16.4,27.4l-3.6-3.6c-.5-.5-.2-1.4.5-1.9l1-.7c1.6-1.1,3.3-1.9,5-2.4.7-.2,1.4-.3,2-.4h.9"/>
    <path class="cls-1" d="M22.5,33.5l3.6,3.6c.5.5,1.4.2,1.9-.5l.7-1c1.1-1.6,1.9-3.3,2.4-5,.2-.7.3-1.4.4-2v-.8"/>
    <path class="cls-1" d="M33.9,25.5c-3.9,3.9-8,6.7-11.4,8l-6.1-6.1c1.3-3.4,4.1-7.5,8-11.4,2.3-2.3,4.9-3.9,7.4-5,5.3-2.5,10-2.9,10-2.9,0,0-.4,4.8-2.9,10-1.2,2.5-2.8,5.1-5,7.4Z"/>
    <path class="cls-1" d="M38.9,18.1l-7.2-7.2c5.3-2.5,10-2.9,10-2.9,0,0-.4,4.8-2.9,10Z"/>
    <rect class="cls-1" x="13.9" y="30" width="8.6" height="3.3" transform="translate(27.7 -3.6) rotate(45)"/>
    <line class="cls-1" x1="16.4" y1="39" x2="13.1" y2="42.3"/>
    <line class="cls-1" x1="13.7" y1="36.2" x2="8.8" y2="41.1"/>
    <line class="cls-1" x1="10.9" y1="33.5" x2="7.6" y2="36.8"/>
    <circle class="cls-1" cx="29.7" cy="20.2" r="2.6"/>
  </g>
</svg>