<?xml version="1.0" encoding="UTF-8"?>
<svg id="_레이어_1" data-name=" 레이어 1" xmlns="http://www.w3.org/2000/svg" version="1.1" viewBox="0 0 75.9 75.9">
  <defs>
    <style>
      .cls-1 {
        fill: #0a8aff;
        stroke-width: 0px;
      }

      .cls-2 {
        isolation: isolate;
      }

      .cls-3 {
        fill: none;
        stroke: #0a8aff;
        stroke-linecap: round;
        stroke-linejoin: round;
        stroke-width: 1.8px;
      }
    </style>
  </defs>
  <g>
    <rect class="cls-3" x="4.3" y="31.5" width="51.7" height="37.8"/>
    <g class="cls-2">
      <g class="cls-2">
        <path class="cls-1" d="M17.1,46.3h-5l-.9,2.5h-3l5-13h3l5,13h-3.2l-.9-2.5ZM16.2,43.8l-1.6-4.5-1.6,4.5h3.2Z"/>
      </g>
    </g>
    <line class="cls-3" x1="8.7" y1="58.3" x2="51.9" y2="58.3"/>
    <line class="cls-3" x1="8.7" y1="53.2" x2="51.9" y2="53.2"/>
    <line class="cls-3" x1="8.7" y1="63.3" x2="51.9" y2="63.3"/>
  </g>
  <g>
    <polyline class="cls-3" points="20 31.2 20 6.6 71.6 6.6 71.6 44.4 56.1 44.4"/>
    <g class="cls-2">
      <g class="cls-2">
        <path class="cls-1" d="M24.8,11h5.6c2.9,0,4.5,1.5,4.5,3.9s-.6,2-1.5,2.3c1.2.4,2.1,1.6,2.1,2.9,0,2.4-1.7,3.9-4.6,3.9h-6.1v-13ZM30.3,16.2c1.1,0,1.7-.5,1.7-1.4s-.6-1.4-1.7-1.4h-2.6v2.8h2.6ZM30.8,21.5c1.1,0,1.9-.5,1.9-1.5s-.7-1.5-1.9-1.5h-3.1v2.9h3.1Z"/>
      </g>
    </g>
    <line class="cls-3" x1="56.2" y1="33.4" x2="67.6" y2="33.4"/>
    <line class="cls-3" x1="24.4" y1="28.3" x2="67.6" y2="28.3"/>
    <line class="cls-3" x1="56.2" y1="38.4" x2="67.6" y2="38.4"/>
  </g>
</svg>