<?xml version="1.0" encoding="UTF-8"?>
<svg id="_레이어_1" data-name="레이어 1" xmlns="http://www.w3.org/2000/svg" version="1.1" viewBox="0 0 75.9 75.9">
  <defs>
    <style>
      .cls-1 {
        stroke-dasharray: 0 0 1.9 4.8;
      }

      .cls-1, .cls-2, .cls-3 {
        fill: none;
        stroke: #0a8aff;
        stroke-linecap: round;
        stroke-linejoin: round;
        stroke-width: 2px;
      }

      .cls-2 {
        stroke-dasharray: 0 0 2 5.1;
      }
    </style>
  </defs>
  <g>
    <path class="cls-3" d="M41.8,10.6c.3,0,.7.1,1,.2"/>
    <path class="cls-2" d="M47.6,12.2c8.1,3.2,14.3,10.2,16.4,18.8"/>
    <path class="cls-3" d="M64.5,33.4c0,.3,0,.7.1,1"/>
  </g>
  <g>
    <path class="cls-3" d="M34.8,64.7c-.3,0-.7,0-1-.1"/>
    <path class="cls-1" d="M29.1,63.5c-7.9-2.6-14.2-8.6-17.1-16.4"/>
    <path class="cls-3" d="M11.2,44.9c0-.3-.2-.6-.2-1"/>
  </g>
  <path class="cls-3" d="M68.2,54.1v-3.9s-3.9-.9-3.9-.9c-.3-1.3-.8-2.6-1.5-3.7l2.1-3.4-2.7-2.7-3.4,2.1c-1.2-.7-2.4-1.2-3.7-1.5l-.9-3.9h-3.9l-.9,3.9c-1.3.3-2.6.8-3.7,1.5l-3.4-2.1-2.7,2.7,2.1,3.4c-.7,1.2-1.2,2.4-1.5,3.7l-3.9.9v3.9s3.9.9,3.9.9c.3,1.3.8,2.6,1.5,3.7l-2.1,3.4,2.7,2.7,3.4-2.1c1.2.7,2.4,1.2,3.7,1.5l.9,3.9h3.9s.9-3.9.9-3.9c1.3-.3,2.6-.8,3.7-1.5l3.4,2.1,2.7-2.7-2.1-3.4c.7-1.2,1.2-2.4,1.5-3.7l3.9-.9ZM54.4,54.4c-1.2,1.2-3.2,1.2-4.5,0s-1.2-3.2,0-4.5c1.2-1.2,3.2-1.2,4.5,0s1.2,3.2,0,4.5Z"/>
  <path class="cls-3" d="M44.3,36.7l1.8-4.4-4-2.9c.3-1.6.3-3.3,0-5l4-2.9-1.8-4.4-4.9.8c-1-1.4-2.2-2.6-3.5-3.5l.8-4.9-4.4-1.8-2.9,4c-1.6-.3-3.3-.3-5,0l-2.9-4-4.4,1.8.8,4.9c-1.4,1-2.6,2.2-3.5,3.5l-4.9-.8-1.8,4.4,4,2.9c-.3,1.6-.3,3.3,0,5l-4,2.9,1.8,4.4,4.9-.8c1,1.4,2.2,2.6,3.5,3.5l-.8,4.9,4.4,1.8,2.9-4c1.6.3,3.3.3,5,0l2.9,4,4.4-1.8-.8-4.9c1.4-1,2.6-2.2,3.5-3.5l4.9.8ZM28.4,30.5c-2,.8-4.3-.1-5.1-2.1s.1-4.3,2.1-5.1c2-.8,4.3.1,5.1,2.1s-.1,4.3-2.1,5.1Z"/>
</svg>