<?xml version="1.0" encoding="UTF-8"?>
<svg id="_레이어_1" data-name="레이어 1" xmlns="http://www.w3.org/2000/svg" version="1.1" viewBox="0 0 75.9 75.9">
  <defs>
    <style>
      .cls-1 {
        fill: #fff;
        stroke: #0a8aff;
        stroke-linecap: round;
        stroke-linejoin: round;
        stroke-width: 2px;
      }
    </style>
  </defs>
  <path class="cls-1" d="M46.8,65.5h-17.7c1.8-1.8,3.2-3.9,4.1-6.3.5-1.3.9-2.7,1.1-4.1,0-.6.1-1.2.2-1.8v-.4h7.1v.4c0,.6.1,1.2.2,1.8.2,1.4.6,2.8,1.1,4.1,0,.2.2.5.3.7.9,2.1,2.2,3.9,3.8,5.6Z"/>
  <rect class="cls-1" x="10.2" y="15.8" width="55.5" height="39.3"/>
  <rect class="cls-1" x="23.5" y="13" width="28.8" height="45" transform="translate(73.4 -2.5) rotate(90)"/>
  <path class="cls-1" d="M24.5,65.5h26.9c3,0,5.5,2.4,5.5,5.5H19c0-3,2.4-5.5,5.5-5.5Z"/>
  <g>
    <path class="cls-1" d="M47,22.3c0-5.2-4.3-9.4-9.6-9.1s-8.2,3.8-8.6,8.3.7,5.1,2.3,6.9,1.8,2.5,2,4l.4,2c.2,1.2,1.2,2,2.4,2h3.8c1.2,0,2.2-.8,2.4-2l.4-1.9c.3-1.6,1.1-3,2.1-4.2s2.3-3.7,2.3-6Z"/>
    <circle class="cls-1" cx="37.9" cy="40.6" r="2.7"/>
    <rect class="cls-1" x="32.5" y="34.9" width="10.9" height="3" rx="1.5" ry="1.5"/>
    <rect class="cls-1" x="32.5" y="37.9" width="10.9" height="3" rx="1.5" ry="1.5"/>
    <line class="cls-1" x1="37.9" y1="8.2" x2="37.9" y2="5"/>
    <line class="cls-1" x1="31.7" y1="9.8" x2="30.9" y2="8.4"/>
    <line class="cls-1" x1="44.1" y1="9.8" x2="44.9" y2="8.4"/>
  </g>
</svg>