<?xml version="1.0" encoding="UTF-8"?>
<svg id="_레이어_1" data-name=" 레이어 1" xmlns="http://www.w3.org/2000/svg" version="1.1" viewBox="0 0 75.9 75.9">
  <defs>
    <style>
      .cls-1 {
        fill: #0a8aff;
      }

      .cls-1, .cls-2 {
        stroke-width: 0px;
      }

      .cls-2 {
        fill: #515151;
      }

      .cls-3 {
        stroke-linejoin: round;
      }

      .cls-3, .cls-4 {
        fill: #fff;
        stroke-linecap: round;
      }

      .cls-3, .cls-4, .cls-5 {
        stroke: #515151;
        stroke-width: 2px;
      }

      .cls-4, .cls-5 {
        stroke-miterlimit: 10;
      }

      .cls-5 {
        fill: #0a8aff;
      }
    </style>
  </defs>
  <g>
    <g>
      <path class="cls-1" d="M7.7,37.9c0,1.5-1.2,2.8-2.8,2.8s-2.8-1.2-2.8-2.8,1.2-2.8,2.8-2.8,2.8,1.2,2.8,2.8Z"/>
      <path class="cls-1" d="M10.5,48.5c.8,1.3.3,3-1,3.8s-3,.3-3.8-1-.3-3,1-3.8,3-.3,3.8,1Z"/>
      <path class="cls-1" d="M18.3,56.2c1.3.8,1.8,2.5,1,3.8s-2.5,1.8-3.8,1-1.8-2.5-1-3.8,2.5-1.8,3.8-1Z"/>
      <path class="cls-1" d="M28.8,59.1c1.5,0,2.8,1.2,2.8,2.8s-1.2,2.8-2.8,2.8-2.8-1.2-2.8-2.8,1.2-2.8,2.8-2.8Z"/>
      <path class="cls-1" d="M39.4,56.2c1.3-.8,3-.3,3.8,1s.3,3-1,3.8-3,.3-3.8-1-.3-3,1-3.8Z"/>
      <path class="cls-1" d="M47.1,48.5c.8-1.3,2.5-1.8,3.8-1s1.8,2.5,1,3.8-2.5,1.8-3.8,1-1.8-2.5-1-3.8Z"/>
      <path class="cls-1" d="M50,38c0-1.5,1.2-2.8,2.8-2.8s2.8,1.2,2.8,2.8-1.2,2.8-2.8,2.8-2.8-1.2-2.8-2.8Z"/>
      <path class="cls-1" d="M47.1,27.4c-.8-1.3-.3-3,1-3.8s3-.3,3.8,1,.3,3-1,3.8-3,.3-3.8-1Z"/>
      <path class="cls-1" d="M39.4,19.7c-1.3-.8-1.8-2.5-1-3.8s2.5-1.8,3.8-1,1.8,2.5,1,3.8-2.5,1.8-3.8,1Z"/>
      <path class="cls-1" d="M28.8,16.8c-1.5,0-2.8-1.2-2.8-2.8s1.2-2.8,2.8-2.8,2.8,1.2,2.8,2.8-1.2,2.8-2.8,2.8Z"/>
      <path class="cls-1" d="M18.3,19.7c-1.3.8-3,.3-3.8-1s-.3-3,1-3.8,3-.3,3.8,1,.3,3-1,3.8Z"/>
      <path class="cls-1" d="M10.5,27.4c-.8,1.3-2.5,1.8-3.8,1s-1.8-2.5-1-3.8,2.5-1.8,3.8-1,1.8,2.5,1,3.8Z"/>
    </g>
    <g>
      <path class="cls-1" d="M25.9,37.9c0,1.5-1.2,2.8-2.8,2.8s-2.8-1.2-2.8-2.8,1.2-2.8,2.8-2.8,2.8,1.2,2.8,2.8Z"/>
      <path class="cls-1" d="M28.8,48.5c.8,1.3.3,3-1,3.8s-3,.3-3.8-1-.3-3,1-3.8,3-.3,3.8,1Z"/>
      <path class="cls-1" d="M36.5,56.2c1.3.8,1.8,2.5,1,3.8s-2.5,1.8-3.8,1-1.8-2.5-1-3.8,2.5-1.8,3.8-1Z"/>
      <path class="cls-1" d="M47.1,59.1c1.5,0,2.8,1.2,2.8,2.8s-1.2,2.8-2.8,2.8-2.8-1.2-2.8-2.8,1.2-2.8,2.8-2.8Z"/>
      <path class="cls-1" d="M57.6,56.2c1.3-.8,3-.3,3.8,1s.3,3-1,3.8-3,.3-3.8-1-.3-3,1-3.8Z"/>
      <path class="cls-1" d="M65.4,48.5c.8-1.3,2.5-1.8,3.8-1s1.8,2.5,1,3.8-2.5,1.8-3.8,1-1.8-2.5-1-3.8Z"/>
      <path class="cls-1" d="M68.2,38c0-1.5,1.2-2.8,2.8-2.8s2.8,1.2,2.8,2.8-1.2,2.8-2.8,2.8-2.8-1.2-2.8-2.8Z"/>
      <path class="cls-1" d="M65.4,27.4c-.8-1.3-.3-3,1-3.8s3-.3,3.8,1,.3,3-1,3.8-3,.3-3.8-1Z"/>
      <path class="cls-1" d="M57.6,19.7c-1.3-.8-1.8-2.5-1-3.8s2.5-1.8,3.8-1,1.8,2.5,1,3.8-2.5,1.8-3.8,1Z"/>
      <path class="cls-1" d="M47.1,16.8c-1.5,0-2.8-1.2-2.8-2.8s1.2-2.8,2.8-2.8,2.8,1.2,2.8,2.8-1.2,2.8-2.8,2.8Z"/>
      <path class="cls-1" d="M36.5,19.7c-1.3.8-3,.3-3.8-1s-.3-3,1-3.8,3-.3,3.8,1,.3,3-1,3.8Z"/>
      <path class="cls-1" d="M28.8,27.4c-.8,1.3-2.5,1.8-3.8,1s-1.8-2.5-1-3.8,2.5-1.8,3.8-1,1.8,2.5,1,3.8Z"/>
    </g>
  </g>
  <g>
    <rect class="cls-3" x="19.5" y="5.8" width="36.8" height="64.3" rx="3.2" ry="3.2"/>
    <line class="cls-4" x1="34.9" y1="12.5" x2="41.2" y2="12.5"/>
  </g>
  <g>
    <g>
      <path class="cls-3" d="M46.9,36.7c0,5-4,9-9,9s-9-4-9-9,4-9,9-9,9,4,9,9Z"/>
      <path class="cls-3" d="M50.7,58.5c0-7.1-5.7-12.8-12.8-12.8s-12.8,5.7-12.8,12.8v2.5h25.6v-2.5Z"/>
    </g>
    <g>
      <path class="cls-2" d="M48.1,45.3h-7.2c-.4,0-.8-.4-.8-.8s.4-.8.8-.8h7.2c.3,0,.5-.2.5-.4v-5.5c0-.4.4-.8.8-.8s.8.4.8.8v5.5c0,1.1-.9,2-2,2Z"/>
      <path class="cls-2" d="M49.2,39.4c-.4,0-.8-.4-.8-.8v-5.1c0-5.5-4.7-9.9-10.4-9.9s-10.4,4.4-10.4,9.9v5.1c0,.4-.4.8-.8.8s-.8-.4-.8-.8v-5.1c0-6.3,5.4-11.5,12-11.5s12,5.2,12,11.5v5.1c0,.4-.4.8-.8.8Z"/>
      <g>
        <g>
          <path class="cls-5" d="M28.4,31.4h-1s0,0,0,0h0c-.4,0-.8,0-1.2.1-1.8.5-3.2,2-3.2,4.9s1.9,5,4.3,5h0s0,0,0,0h1c.3,0,.6-.2.6-.5v-9c0-.3-.3-.5-.6-.5Z"/>
          <path class="cls-5" d="M49.6,31.6c-.4,0-.8-.1-1.2-.1h0s0,0,0,0h-1c-.3,0-.6.2-.6.5v9c0,.3.3.5.6.5h1s0,0,0,0h0c2.4,0,4.3-1.6,4.3-5s-1.3-4.4-3.2-4.9Z"/>
        </g>
        <path class="cls-5" d="M43.8,45.5c0,.3-.2.5-.6.5h-4.5c-.3,0-.5-.2-.5-.5v-2c0-.3.2-.5.5-.5h4.5c.3,0,.6.2.6.5v2Z"/>
      </g>
    </g>
  </g>
</svg>