<?xml version="1.0" encoding="UTF-8"?>
<svg id="_레이어_1" data-name=" 레이어 1" xmlns="http://www.w3.org/2000/svg" version="1.1" viewBox="0 0 75.9 75.9">
  <defs>
    <style>
      .cls-1 {
        fill: #0a8aff;
        stroke-width: 0px;
      }

      .cls-2 {
        stroke-linejoin: round;
      }

      .cls-2, .cls-3 {
        fill: none;
        stroke-linecap: round;
      }

      .cls-2, .cls-3, .cls-4, .cls-5 {
        stroke: #515151;
        stroke-width: 2px;
      }

      .cls-3, .cls-4, .cls-5 {
        stroke-miterlimit: 10;
      }

      .cls-4 {
        fill: #fff;
      }

      .cls-5 {
        fill: #0a8aff;
      }
    </style>
  </defs>
  <g>
    <g>
      <g>
        <path class="cls-4" d="M62.1,9.5c0-1.6-1.3-2.9-2.9-2.9H7.6c-1.6,0-2.9,1.3-2.9,2.9v31.1h57.4s0-31.1,0-31.1Z"/>
        <path class="cls-5" d="M4.7,40.6v5.1c0,1.6,1.3,2.9,2.9,2.9h51.6c1.6,0,2.9-1.3,2.9-2.9v-5.1H4.7Z"/>
      </g>
      <line class="cls-3" x1="33.4" y1="48.6" x2="33.4" y2="56.7"/>
      <line class="cls-3" x1="20.8" y1="56.7" x2="46" y2="56.7"/>
    </g>
    <g>
      <rect class="cls-1" x="20.7" y="26.6" width="3.8" height="8.7"/>
      <rect class="cls-1" x="27.9" y="18.8" width="3.8" height="16.5"/>
      <rect class="cls-1" x="35" y="22.5" width="3.8" height="12.7"/>
      <rect class="cls-1" x="42.2" y="11.9" width="3.8" height="23.4"/>
    </g>
  </g>
  <g>
    <rect class="cls-4" x="47.9" y="33.5" width="24.5" height="38.5" rx="2" ry="2"/>
    <path class="cls-5" d="M47.9,65.3h24.5v4.7c0,1.1-.9,2-2,2h-20.5c-1.1,0-2-.9-2-2v-4.7h0Z"/>
    <g>
      <rect class="cls-1" x="53.8" y="55.6" width="1.9" height="5.4"/>
      <rect class="cls-1" x="57.4" y="50.8" width="1.9" height="10.2"/>
      <rect class="cls-1" x="61" y="53.1" width="1.9" height="7.9"/>
      <rect class="cls-1" x="64.6" y="46.5" width="1.9" height="14.6"/>
    </g>
    <line class="cls-2" x1="58.4" y1="37.5" x2="62.1" y2="37.5"/>
  </g>
</svg>