<?xml version="1.0" encoding="UTF-8"?>
<svg id="_레이어_1" data-name=" 레이어 1" xmlns="http://www.w3.org/2000/svg" version="1.1" viewBox="0 0 75.9 75.9">
  <defs>
    <style>
      .cls-1 {
        fill: none;
        stroke-linejoin: round;
      }

      .cls-1, .cls-2 {
        stroke-linecap: round;
      }

      .cls-1, .cls-2, .cls-3 {
        stroke: #515151;
        stroke-width: 2px;
      }

      .cls-4 {
        fill: #0a8aff;
      }

      .cls-4, .cls-5 {
        stroke-width: 0px;
      }

      .cls-5 {
        fill: #515151;
      }

      .cls-2, .cls-3 {
        fill: #fff;
        stroke-miterlimit: 10;
      }
    </style>
  </defs>
  <g>
    <rect class="cls-3" x="7.6" y="3.4" width="39.5" height="69" rx="3.4" ry="3.4"/>
    <line class="cls-2" x1="24.1" y1="10.6" x2="30.8" y2="10.6"/>
  </g>
  <g>
    <polyline class="cls-1" points="16.3 36.7 24.3 30.7 32.3 40.7 40.4 23.9"/>
    <g>
      <path class="cls-4" d="M18.9,36.7c0,1.5-1.2,2.7-2.7,2.7s-2.7-1.2-2.7-2.7,1.2-2.7,2.7-2.7,2.7,1.2,2.7,2.7Z"/>
      <path class="cls-4" d="M27,30.7c0,1.5-1.2,2.7-2.7,2.7s-2.7-1.2-2.7-2.7,1.2-2.7,2.7-2.7,2.7,1.2,2.7,2.7Z"/>
      <path class="cls-4" d="M35,40.7c0,1.5-1.2,2.7-2.7,2.7s-2.7-1.2-2.7-2.7,1.2-2.7,2.7-2.7,2.7,1.2,2.7,2.7Z"/>
      <circle class="cls-4" cx="40.4" cy="23.9" r="2.7"/>
    </g>
  </g>
  <g>
    <line class="cls-2" x1="56.3" y1="55.2" x2="70.4" y2="69.2"/>
    <path class="cls-3" d="M64.9,50.8c0,7.2-5.8,13-13,13s-13-5.8-13-13,5.8-13,13-13,13,5.8,13,13Z"/>
    <g>
      <path class="cls-5" d="M51.9,54.1c-.8,0-1.5-.7-1.5-1.5v-2.8c0-.8.7-1.5,1.5-1.5s1.4-.6,1.4-1.4-.6-1.4-1.4-1.4-1.4.6-1.4,1.4-.7,1.5-1.5,1.5-1.5-.7-1.5-1.5c0-2.5,2-4.5,4.5-4.5s4.5,2,4.5,4.5-1.2,3.6-2.9,4.2v1.5c0,.8-.7,1.5-1.5,1.5Z"/>
      <path class="cls-5" d="M53.6,56.6c0,1-.8,1.7-1.7,1.7s-1.7-.8-1.7-1.7.8-1.7,1.7-1.7,1.7.8,1.7,1.7Z"/>
    </g>
  </g>
  <line class="cls-2" x1="15.6" y1="57.6" x2="37.1" y2="57.6"/>
  <line class="cls-2" x1="15.6" y1="62.2" x2="30.8" y2="62.2"/>
</svg>