<?xml version="1.0" encoding="UTF-8"?>
<svg id="_레이어_1" data-name=" 레이어 1" xmlns="http://www.w3.org/2000/svg" version="1.1" viewBox="0 0 75.9 75.9">
  <defs>
    <style>
      .cls-1 {
        fill: #515151;
      }

      .cls-1, .cls-2 {
        stroke-width: 0px;
      }

      .cls-3, .cls-4 {
        stroke: #515151;
        stroke-linecap: round;
        stroke-linejoin: round;
        stroke-width: 2px;
      }

      .cls-3, .cls-2 {
        fill: #fff;
      }

      .cls-4 {
        fill: #0a8aff;
      }
    </style>
  </defs>
  <g>
    <path class="cls-3" d="M4.7,48.8c-.8-1.7-1.2-3.7-1.2-5.7,0-7.7,6.2-13.9,13.9-13.9h15.7c7.7,0,13.9,6.2,13.9,13.9s-6.2,13.9-13.9,13.9h-15.7l-1.2,7.8s-10.7-14.3-11.5-16h0s0,0,0,0Z"/>
    <path class="cls-1" d="M16.2,66.3c-.4,0-.9-.2-1.2-.6-1.8-2.4-10.8-14.3-11.7-16.2,0,0,0,0,0,0-.9-2-1.3-4.1-1.3-6.3,0-8.5,6.9-15.4,15.4-15.4h15.7c8.5,0,15.4,6.9,15.4,15.4s-6.9,15.4-15.4,15.4h-14.4l-1,6.5c0,.6-.5,1-1.1,1.2-.1,0-.2,0-.4,0ZM6,48.3c.5,1,4.8,6.9,9.3,13l.7-4.4c.1-.7.7-1.2,1.4-1.2h15.7c6.9,0,12.5-5.6,12.5-12.5s-5.6-12.5-12.5-12.5h-15.7c-6.9,0-12.5,5.6-12.5,12.5s.4,3.5,1.1,5.1c0,0,0,0,0,0Z"/>
  </g>
  <g>
    <path class="cls-4" d="M70.9,36.2c1-2.2,1.6-4.7,1.6-7.3,0-9.9-8-17.8-17.8-17.8h-20c-9.9,0-17.8,8-17.8,17.8s8,17.8,17.8,17.8h20l1.5,9.9s13.8-18.3,14.7-20.5h0s0,0,0,0Z"/>
    <path class="cls-1" d="M56.1,58.1c-.1,0-.2,0-.4,0-.6-.1-1-.6-1.1-1.2l-1.3-8.7h-18.8c-10.6,0-19.3-8.6-19.3-19.3s8.6-19.3,19.3-19.3h20c10.6,0,19.3,8.6,19.3,19.3s-.6,5.3-1.7,7.8c0,0,0,.1,0,.2-1.3,2.6-13.5,18.8-14.9,20.7-.3.4-.7.6-1.2.6ZM34.5,12.5c-9,0-16.4,7.4-16.4,16.4s7.4,16.4,16.4,16.4h20c.7,0,1.3.5,1.4,1.2l1,6.6c5.2-6.9,11.9-16,12.5-17.4,0,0,0,0,0,0,1-2.1,1.4-4.4,1.4-6.7,0-9-7.4-16.4-16.4-16.4h-20Z"/>
  </g>
  <g>
    <path class="cls-2" d="M38.8,29.3c0,1.4-1.1,2.5-2.5,2.5s-2.5-1.1-2.5-2.5,1.1-2.5,2.5-2.5,2.5,1.1,2.5,2.5Z"/>
    <path class="cls-2" d="M47,29.3c0,1.4-1.1,2.5-2.5,2.5s-2.5-1.1-2.5-2.5,1.1-2.5,2.5-2.5,2.5,1.1,2.5,2.5Z"/>
    <path class="cls-2" d="M55.3,29.3c0,1.4-1.1,2.5-2.5,2.5s-2.5-1.1-2.5-2.5,1.1-2.5,2.5-2.5,2.5,1.1,2.5,2.5Z"/>
  </g>
</svg>