<?xml version="1.0" encoding="UTF-8"?>
<svg id="_레이어_1" data-name=" 레이어 1" xmlns="http://www.w3.org/2000/svg" version="1.1" viewBox="0 0 75.9 75.9">
  <defs>
    <style>
      .cls-1 {
        fill: #0a8aff;
      }

      .cls-1, .cls-2 {
        stroke-width: 0px;
      }

      .cls-2 {
        fill: #0a8aff;
      }

      .cls-3 {
        stroke-width: 1.9px;
      }

      .cls-3, .cls-4 {
        fill: #fff;
        stroke: #515151;
        stroke-miterlimit: 10;
      }

      .cls-4 {
        stroke-linecap: round;
        stroke-width: 2px;
      }
    </style>
  </defs>
  <g>
    <g>
      <path class="cls-2" d="M7.7,37.9c0,1.5-1.2,2.8-2.8,2.8s-2.8-1.2-2.8-2.8,1.2-2.8,2.8-2.8,2.8,1.2,2.8,2.8Z"/>
      <path class="cls-2" d="M10.5,48.5c.8,1.3.3,3-1,3.8-1.3.8-3,.3-3.8-1-.8-1.3-.3-3,1-3.8,1.3-.8,3-.3,3.8,1Z"/>
      <path class="cls-2" d="M18.3,56.2c1.3.8,1.8,2.5,1,3.8-.8,1.3-2.5,1.8-3.8,1-1.3-.8-1.8-2.5-1-3.8.8-1.3,2.5-1.8,3.8-1Z"/>
      <path class="cls-2" d="M28.8,59.1c1.5,0,2.8,1.2,2.8,2.8s-1.2,2.8-2.8,2.8c-1.5,0-2.8-1.2-2.8-2.8s1.2-2.8,2.8-2.8Z"/>
      <path class="cls-2" d="M39.4,56.2c1.3-.8,3-.3,3.8,1,.8,1.3.3,3-1,3.8-1.3.8-3,.3-3.8-1-.8-1.3-.3-3,1-3.8Z"/>
      <path class="cls-2" d="M47.1,48.5c.8-1.3,2.5-1.8,3.8-1,1.3.8,1.8,2.5,1,3.8-.8,1.3-2.5,1.8-3.8,1-1.3-.8-1.8-2.5-1-3.8Z"/>
      <path class="cls-2" d="M50,38c0-1.5,1.2-2.8,2.8-2.8s2.8,1.2,2.8,2.8-1.2,2.8-2.8,2.8c-1.5,0-2.8-1.2-2.8-2.8Z"/>
      <path class="cls-2" d="M47.1,27.4c-.8-1.3-.3-3,1-3.8,1.3-.8,3-.3,3.8,1,.8,1.3.3,3-1,3.8-1.3.8-3,.3-3.8-1Z"/>
      <path class="cls-2" d="M39.4,19.7c-1.3-.8-1.8-2.5-1-3.8.8-1.3,2.5-1.8,3.8-1,1.3.8,1.8,2.5,1,3.8-.8,1.3-2.5,1.8-3.8,1Z"/>
      <path class="cls-2" d="M28.8,16.8c-1.5,0-2.8-1.2-2.8-2.8s1.2-2.8,2.8-2.8,2.8,1.2,2.8,2.8-1.2,2.8-2.8,2.8Z"/>
      <path class="cls-2" d="M18.3,19.7c-1.3.8-3,.3-3.8-1-.8-1.3-.3-3,1-3.8,1.3-.8,3-.3,3.8,1,.8,1.3.3,3-1,3.8Z"/>
      <path class="cls-2" d="M10.5,27.4c-.8,1.3-2.5,1.8-3.8,1-1.3-.8-1.8-2.5-1-3.8.8-1.3,2.5-1.8,3.8-1,1.3.8,1.8,2.5,1,3.8Z"/>
    </g>
    <g>
      <path class="cls-2" d="M25.9,37.9c0,1.5-1.2,2.8-2.8,2.8s-2.8-1.2-2.8-2.8,1.2-2.8,2.8-2.8,2.8,1.2,2.8,2.8Z"/>
      <path class="cls-2" d="M28.8,48.5c.8,1.3.3,3-1,3.8-1.3.8-3,.3-3.8-1-.8-1.3-.3-3,1-3.8,1.3-.8,3-.3,3.8,1Z"/>
      <path class="cls-2" d="M36.5,56.2c1.3.8,1.8,2.5,1,3.8-.8,1.3-2.5,1.8-3.8,1-1.3-.8-1.8-2.5-1-3.8.8-1.3,2.5-1.8,3.8-1Z"/>
      <path class="cls-2" d="M47.1,59.1c1.5,0,2.8,1.2,2.8,2.8s-1.2,2.8-2.8,2.8c-1.5,0-2.8-1.2-2.8-2.8s1.2-2.8,2.8-2.8Z"/>
      <path class="cls-2" d="M57.6,56.2c1.3-.8,3-.3,3.8,1,.8,1.3.3,3-1,3.8-1.3.8-3,.3-3.8-1-.8-1.3-.3-3,1-3.8Z"/>
      <path class="cls-2" d="M65.4,48.5c.8-1.3,2.5-1.8,3.8-1,1.3.8,1.8,2.5,1,3.8-.8,1.3-2.5,1.8-3.8,1-1.3-.8-1.8-2.5-1-3.8Z"/>
      <path class="cls-2" d="M68.2,38c0-1.5,1.2-2.8,2.8-2.8s2.8,1.2,2.8,2.8-1.2,2.8-2.8,2.8c-1.5,0-2.8-1.2-2.8-2.8Z"/>
      <path class="cls-2" d="M65.4,27.4c-.8-1.3-.3-3,1-3.8,1.3-.8,3-.3,3.8,1,.8,1.3.3,3-1,3.8-1.3.8-3,.3-3.8-1Z"/>
      <path class="cls-2" d="M57.6,19.7c-1.3-.8-1.8-2.5-1-3.8.8-1.3,2.5-1.8,3.8-1,1.3.8,1.8,2.5,1,3.8-.8,1.3-2.5,1.8-3.8,1Z"/>
      <path class="cls-2" d="M47.1,16.8c-1.5,0-2.8-1.2-2.8-2.8s1.2-2.8,2.8-2.8,2.8,1.2,2.8,2.8-1.2,2.8-2.8,2.8Z"/>
      <path class="cls-2" d="M36.5,19.7c-1.3.8-3,.3-3.8-1-.8-1.3-.3-3,1-3.8,1.3-.8,3-.3,3.8,1,.8,1.3.3,3-1,3.8Z"/>
      <path class="cls-2" d="M28.8,27.4c-.8,1.3-2.5,1.8-3.8,1-1.3-.8-1.8-2.5-1-3.8.8-1.3,2.5-1.8,3.8-1,1.3.8,1.8,2.5,1,3.8Z"/>
    </g>
  </g>
  <g>
    <rect class="cls-3" x="19.7" y="6" width="36.6" height="63.9" rx="3.1" ry="3.1"/>
    <g>
      <rect class="cls-1" x="27.4" y="42.7" width="3.2" height="9"/>
      <rect class="cls-1" x="33.4" y="34.7" width="3.2" height="16.9"/>
      <rect class="cls-1" x="39.4" y="38.5" width="3.2" height="13.1"/>
      <rect class="cls-1" x="45.3" y="27.6" width="3.2" height="24.2"/>
    </g>
    <line class="cls-4" x1="35" y1="12.7" x2="41.2" y2="12.7"/>
  </g>
</svg>