<?xml version="1.0" encoding="UTF-8"?>
<svg id="_레이어_1" data-name=" 레이어 1" xmlns="http://www.w3.org/2000/svg" version="1.1" viewBox="0 0 75.9 75.9">
  <defs>
    <style>
      .cls-1 {
        fill: none;
        stroke-miterlimit: 10;
      }

      .cls-1, .cls-2, .cls-3 {
        stroke: #515151;
        stroke-linecap: round;
        stroke-width: 2px;
      }

      .cls-2 {
        fill: #0a8aff;
      }

      .cls-2, .cls-3 {
        stroke-linejoin: round;
      }

      .cls-3 {
        fill: #fff;
      }
    </style>
  </defs>
  <g>
    <path class="cls-3" d="M71.5,48.4V12c0-1.9-1.5-3.4-3.4-3.4H7.8c-1.9,0-3.4,1.5-3.4,3.4v36.4"/>
    <path class="cls-3" d="M4.4,48.4v6c0,1.9,1.5,3.4,3.4,3.4h60.4c1.9,0,3.4-1.5,3.4-3.4v-6"/>
    <line class="cls-1" x1="38" y1="58.2" x2="38" y2="67.9"/>
    <line class="cls-1" x1="16.1" y1="67.9" x2="59.8" y2="67.9"/>
  </g>
  <path class="cls-2" d="M52.9,34.4c0-.4,0-.9,0-1.3s0-.9,0-1.3l-2.7-1.9c-.1-.5-.3-1-.5-1.5l1.1-3.1c-.5-.8-1-1.5-1.6-2.1h-3.3c-.4-.3-.8-.6-1.3-.9l-1-3.1c-.8-.3-1.6-.6-2.5-.8l-2.6,2c-.3,0-.5,0-.8,0s-.5,0-.8,0l-2.6-2c-.9.2-1.7.5-2.5.8l-1,3.1c-.4.3-.9.6-1.3.9h-3.3c-.6.6-1.1,1.3-1.6,2.1l1.1,3.1c-.2.5-.3,1-.5,1.5l-2.7,1.9c0,.4,0,.9,0,1.3s0,.9,0,1.3l2.7,1.9c.1.5.3,1,.5,1.5l-1.1,3.1c.5.8,1,1.5,1.6,2.1h3.3c.4.3.8.6,1.3.9l1,3.1c.8.3,1.6.6,2.5.8l2.6-1.9h0c.3,0,.5,0,.8,0s.5,0,.8,0l2.6,2c.9-.2,1.7-.5,2.5-.8l1-3.1c.4-.3.9-.6,1.3-.9h3.3c.6-.6,1.1-1.3,1.6-2.1l-1.1-3.1c.2-.5.3-1,.5-1.5l2.7-1.9ZM37.9,40.8c-.2,0-.3,0-.5,0-4-.3-7.2-3.6-7.2-7.7s3.4-7.7,7.7-7.7.3,0,.5,0c4,.2,7.2,3.6,7.2,7.7s-3.4,7.7-7.7,7.7Z"/>
</svg>