<?xml version="1.0" encoding="UTF-8"?>
<svg id="_레이어_1" data-name=" 레이어 1" xmlns="http://www.w3.org/2000/svg" version="1.1" viewBox="0 0 75.9 75.9">
  <defs>
    <style>
      .cls-1 {
        fill: #0a8aff;
      }

      .cls-1, .cls-2 {
        stroke: #515151;
        stroke-linecap: round;
        stroke-linejoin: round;
        stroke-width: 2px;
      }

      .cls-2 {
        fill: #fff;
      }
    </style>
  </defs>
  <g>
    <rect class="cls-2" x="26.7" y="25.9" width="7.2" height="20.7"/>
    <polygon class="cls-1" points="65.2 15.7 57.1 5.7 49 15.7 53.5 15.7 53.5 51 60.7 51 60.7 15.7 65.2 15.7"/>
    <rect class="cls-2" x="40.1" y="21.3" width="7.2" height="25.3"/>
  </g>
  <g>
    <path class="cls-2" d="M67.9,42.3c-1.7-1.6-4.4-1.6-6.1,0l-11.3,10.2c-.9.8-2.5,1-3.6.6-2.9-1.1-5.8-2.4-8.7-3.5-.4-.2-.9-.3-1.3-.5l10.1-2c2.5-.5,4.1-2.9,3.6-5.4s-2.9-4.1-5.4-3.6l-21.8,4.4c-.8.2-5.3,1.9-6.6,3.3-2.2,2.5-3.1,5.8-3.1,9.1,0,8,3.2,9.9,7.8,10.7h0l26,4.6c1.2,0,2.7-.6,3.5-1.5l16.8-20.3c1.6-1.7,1.6-4.4,0-6.1h.2Z"/>
    <path class="cls-1" d="M9.6,38.1h9c1.6,0,2.8,1.3,2.8,2.8v26.1c0,1.6-1.3,2.8-2.8,2.8h-9c-1.6,0-2.8-1.3-2.8-2.8v-26.1c0-1.6,1.3-2.8,2.8-2.8Z"/>
  </g>
</svg>