<?xml version="1.0" encoding="UTF-8"?>
<svg id="_레이어_1" data-name=" 레이어 1" xmlns="http://www.w3.org/2000/svg" version="1.1" viewBox="0 0 75.9 75.9">
  <defs>
    <style>
      .cls-1 {
        stroke-linejoin: round;
      }

      .cls-1, .cls-2 {
        fill: none;
        stroke-linecap: round;
      }

      .cls-1, .cls-2, .cls-3, .cls-4 {
        stroke: #515151;
        stroke-width: 2px;
      }

      .cls-2, .cls-3, .cls-4 {
        stroke-miterlimit: 10;
      }

      .cls-3 {
        fill: #fff;
      }

      .cls-4 {
        fill: #0a8aff;
      }
    </style>
  </defs>
  <g>
    <g>
      <path class="cls-3" d="M62.1,9.5c0-1.6-1.3-2.9-2.9-2.9H7.6c-1.6,0-2.9,1.3-2.9,2.9v31.1h57.4s0-31.1,0-31.1Z"/>
      <path class="cls-4" d="M4.7,40.6v5.1c0,1.6,1.3,2.9,2.9,2.9h51.6c1.6,0,2.9-1.3,2.9-2.9v-5.1H4.7Z"/>
    </g>
    <line class="cls-2" x1="33.4" y1="48.6" x2="33.4" y2="56.7"/>
    <line class="cls-2" x1="20.8" y1="56.7" x2="46" y2="56.7"/>
  </g>
  <g>
    <rect class="cls-3" x="47.9" y="33.5" width="24.5" height="38.5" rx="2" ry="2"/>
    <path class="cls-4" d="M47.9,65.3h24.5v4.7c0,1.1-.9,2-2,2h-20.5c-1.1,0-2-.9-2-2v-4.7h0Z"/>
    <line class="cls-1" x1="58.4" y1="37.5" x2="62.1" y2="37.5"/>
  </g>
</svg>