<?xml version="1.0" encoding="UTF-8"?>
<svg id="_레이어_1" data-name=" 레이어 1" xmlns="http://www.w3.org/2000/svg" version="1.1" xmlns:xlink="http://www.w3.org/1999/xlink" viewBox="0 0 75.9 75.9">
  <defs>
    <style>
      .cls-1 {
        fill: none;
      }

      .cls-1, .cls-2, .cls-3 {
        stroke: #515151;
        stroke-linecap: round;
        stroke-linejoin: round;
        stroke-width: 2px;
      }

      .cls-4 {
        fill: url(#linear-gradient);
      }

      .cls-4, .cls-5, .cls-6, .cls-7 {
        stroke-width: 0px;
      }

      .cls-2, .cls-5 {
        fill: #0a8aff;
      }

      .cls-6 {
        fill: #515151;
      }

      .cls-7 {
        fill: url(#linear-gradient-2);
      }

      .cls-3 {
        fill: #fff;
      }
    </style>
    <linearGradient id="linear-gradient" x1="531" y1="-113.4" x2="533.5" y2="-113.4" gradientTransform="translate(-491.5 79.4) rotate(11)" gradientUnits="userSpaceOnUse">
      <stop offset="0" stop-color="#38ffbf"/>
      <stop offset="1" stop-color="#00d9ff"/>
    </linearGradient>
    <linearGradient id="linear-gradient-2" x1="505" y1="-113.4" x2="507.6" y2="-113.4" xlink:href="#linear-gradient"/>
  </defs>
  <polygon class="cls-5" points="28.7 52.9 23.3 44.5 13.9 48.1 14.5 38.1 4.8 35.5 11.1 27.8 4.8 20 14.5 17.4 13.9 7.5 23.3 11 28.7 2.7 34.1 11 43.4 7.5 42.9 17.4 52.6 20 46.3 27.8 52.6 35.5 42.9 38.1 43.4 48.1 34.1 44.5 28.7 52.9"/>
  <g>
    <g>
      <path class="cls-6" d="M63.2,36.1c-.1,0-.2,0-.3,0-.6-.2-1-.8-.9-1.5.2-.6,0-2.6-1.5-5-1.6-2.5-4.9-5.8-11.9-7.2-7-1.4-11.3.4-13.7,2.2-2.3,1.7-3.2,3.5-3.2,4,0,.7-.7,1.1-1.3,1.1-.7,0-1.1-.7-1.1-1.3.2-1.4,1.5-3.8,4.2-5.7,2.8-2,7.8-4.2,15.6-2.6,7.9,1.5,11.7,5.3,13.5,8.3,1.7,2.8,2.1,5.5,1.7,6.9-.1.5-.6.9-1.2.9Z"/>
      <g>
        <path class="cls-3" d="M60.8,55.5c-1.9,9.9-11.5,16.4-21.5,14.5-9.9-1.9-16.4-11.5-14.5-21.5,1.9-9.9,11.5-16.4,21.5-14.5,9.9,1.9,16.4,11.5,14.5,21.5Z"/>
        <g>
          <line class="cls-1" x1="41" y1="53.2" x2="35.7" y2="56.6"/>
          <line class="cls-1" x1="44.9" y1="41.8" x2="43.3" y2="49.8"/>
        </g>
        <path class="cls-2" d="M44.5,52.3c-.2.9-1,1.5-1.9,1.3-.9-.2-1.5-1-1.3-1.9.2-.9,1-1.5,1.9-1.3.9.2,1.5,1,1.3,1.9Z"/>
      </g>
      <g>
        <line class="cls-4" x1="51.7" y1="68.2" x2="53.5" y2="72"/>
        <path class="cls-6" d="M53.4,73.3c-.4,0-.9-.2-1.1-.7l-1.9-3.8c-.3-.6,0-1.3.5-1.6.6-.3,1.3,0,1.6.5l1.9,3.8c.3.6,0,1.3-.5,1.6-.2,0-.4.1-.5.1Z"/>
      </g>
      <g>
        <line class="cls-7" x1="28.7" y1="63.7" x2="25.5" y2="66.5"/>
        <path class="cls-6" d="M25.4,67.8c-.3,0-.7-.1-.9-.4-.4-.5-.4-1.3.1-1.7l3.2-2.8c.5-.4,1.3-.4,1.7.1.4.5.4,1.3-.1,1.7l-3.2,2.8c-.2.2-.5.3-.8.3Z"/>
      </g>
    </g>
    <g>
      <path class="cls-2" d="M67.6,32.5c-3.3-3.9-9.2-4.3-13.1-1l12.1,14.1c3.9-3.3,4.3-9.2,1-13.1Z"/>
      <path class="cls-2" d="M27.3,24.6c4.6-2.3,10.1-.5,12.5,4l-16.5,8.5c-2.3-4.6-.5-10.1,4-12.5Z"/>
    </g>
  </g>
</svg>