<?xml version="1.0" encoding="UTF-8"?>
<svg id="_레이어_1" data-name=" 레이어 1" xmlns="http://www.w3.org/2000/svg" version="1.1" viewBox="0 0 75.9 75.9">
  <defs>
    <style>
      .cls-1 {
        fill: none;
      }

      .cls-1, .cls-2, .cls-3 {
        stroke: #515151;
        stroke-linecap: round;
        stroke-linejoin: round;
        stroke-width: 2px;
      }

      .cls-2, .cls-4 {
        fill: #0a8aff;
      }

      .cls-4 {
        stroke-width: 0px;
      }

      .cls-3 {
        fill: #fff;
      }
    </style>
  </defs>
  <g>
    <path class="cls-3" d="M5.3,62.5c0,1.9,1.6,3.5,3.5,3.5h58.4c1.9,0,3.5-1.6,3.5-3.5V26H5.3v36.6Z"/>
    <path class="cls-2" d="M67.2,13.7H8.7c-1.9,0-3.5,1.6-3.5,3.5v8.7h65.4v-8.7c0-1.9-1.6-3.5-3.5-3.5Z"/>
  </g>
  <line class="cls-1" x1="15.3" y1="10.4" x2="15.3" y2="16.3"/>
  <line class="cls-1" x1="26.6" y1="10.4" x2="26.6" y2="16.3"/>
  <line class="cls-1" x1="38" y1="10.4" x2="38" y2="16.3"/>
  <line class="cls-1" x1="49.3" y1="10.4" x2="49.3" y2="16.3"/>
  <line class="cls-1" x1="60.6" y1="10.4" x2="60.6" y2="16.3"/>
  <path class="cls-4" d="M32.1,50.7h.6c.9,0,1.8.5,2.1,1.3s1.5,1.8,3.2,1.8,3.5-1.6,3.5-3.8-1.3-3.8-3.6-3.8-2.2.4-2.9,1.1-1,.6-1.5.6h-1.4c-1.3,0-2.4-1.1-2.3-2.4l.5-9.5c0-1.2,1.1-2.2,2.3-2.2h10.7c1.3,0,2.3,1,2.3,2.3h0c0,1.3-1,2.3-2.3,2.3h-8.1s-.3,4.5-.3,4.5c1-.6,2.3-1,3.9-1,4.7,0,7.9,3,7.9,8.2s-3.8,8.4-8.7,8.4-6.6-1.6-7.9-4.3.4-3.3,2.1-3.3Z"/>
</svg>