<?xml version="1.0" encoding="UTF-8"?>
<svg id="_레이어_1" data-name=" 레이어 1" xmlns="http://www.w3.org/2000/svg" version="1.1" viewBox="0 0 75.9 75.9">
  <defs>
    <style>
      .cls-1 {
        fill: none;
      }

      .cls-1, .cls-2 {
        stroke: #515151;
        stroke-linecap: round;
        stroke-linejoin: round;
        stroke-width: 2px;
      }

      .cls-3 {
        fill: #0a8aff;
      }

      .cls-3, .cls-4 {
        stroke-width: 0px;
      }

      .cls-4 {
        fill: #515151;
      }

      .cls-2 {
        fill: #fff;
      }
    </style>
  </defs>
  <g>
    <path class="cls-4" d="M16.6,68.6c-.2,0-.4,0-.6,0-.7-.3-1.1-1.2-.7-2l7-14.9c.3-.7,1.2-1.1,2-.7.7.3,1.1,1.2.7,2l-7,14.9c-.3.5-.8.9-1.3.9h-.1Z"/>
    <path class="cls-4" d="M59.3,68.6c-.6,0-1.1-.3-1.3-.9l-7-14.9c-.3-.7,0-1.6.7-2,.7-.3,1.6,0,2,.7l7,14.9c.3.7,0,1.6-.7,2-.2,0-.4,0-.6,0h-.1Z"/>
  </g>
  <path class="cls-4" d="M38,57.8c-.8,0-1.5-.7-1.5-1.5V8.7c0-.8.7-1.5,1.5-1.5s1.5.7,1.5,1.5v47.6c0,.8-.7,1.5-1.5,1.5Z"/>
  <rect class="cls-2" x="10.2" y="20" width="55.4" height="33.4"/>
  <path class="cls-2" d="M71.4,16.4c0,1.8-1.5,3.3-3.3,3.3H7.8c-1.8,0-3.3-1.5-3.3-3.3h0c0-1.8,1.5-3.3,3.3-3.3h60.3c1.8,0,3.3,1.5,3.3,3.3h0Z"/>
  <path class="cls-2" d="M71.4,56.3c0,1.8-1.5,3.3-3.3,3.3H7.8c-1.8,0-3.3-1.5-3.3-3.3h0c0-1.8,1.5-3.3,3.3-3.3h60.3c1.8,0,3.3,1.5,3.3,3.3h0Z"/>
  <g>
    <path class="cls-4" d="M18.2,44.7c-.3,0-.6,0-.9-.3-.7-.5-.8-1.4-.3-2.1l5.8-8.1c.2-.3.6-.5,1-.6.4,0,.8,0,1.1.3l4.6,3.4,5-7.9c.4-.7,1.3-.9,2-.5s.9,1.3.5,2l-5.8,9.2c-.2.3-.6.6-1,.7-.4,0-.8,0-1.2-.3l-4.6-3.4-5,6.9c-.3.4-.7.6-1.2.6h0Z"/>
    <path class="cls-3" d="M20.8,43.3c0,1.4-1.2,2.6-2.6,2.6s-2.6-1.2-2.6-2.6,1.2-2.6,2.6-2.6,2.6,1.2,2.6,2.6Z"/>
    <path class="cls-3" d="M26.6,35.2c0,1.4-1.2,2.6-2.6,2.6s-2.6-1.2-2.6-2.6,1.2-2.6,2.6-2.6,2.6,1.2,2.6,2.6Z"/>
    <path class="cls-3" d="M32.5,39.5c0,1.4-1.2,2.6-2.6,2.6s-2.6-1.2-2.6-2.6,1.2-2.6,2.6-2.6,2.6,1.2,2.6,2.6Z"/>
    <path class="cls-3" d="M38.3,30.3c0,1.4-1.2,2.6-2.6,2.6s-2.6-1.2-2.6-2.6,1.2-2.6,2.6-2.6,2.6,1.2,2.6,2.6Z"/>
  </g>
  <g>
    <line class="cls-1" x1="45.6" y1="31.9" x2="57.6" y2="31.9"/>
    <line class="cls-1" x1="45.6" y1="36.9" x2="57.6" y2="36.9"/>
    <line class="cls-1" x1="45.6" y1="41.9" x2="53.8" y2="41.9"/>
  </g>
</svg>