<?xml version="1.0" encoding="UTF-8"?>
<svg id="_레이어_1" data-name=" 레이어 1" xmlns="http://www.w3.org/2000/svg" version="1.1" viewBox="0 0 75.9 75.9">
  <defs>
    <style>
      .cls-1 {
        fill: none;
      }

      .cls-1, .cls-2, .cls-3 {
        stroke: #515151;
        stroke-linecap: round;
        stroke-linejoin: round;
        stroke-width: 2px;
      }

      .cls-2 {
        fill: #0a8aff;
      }

      .cls-4 {
        fill: #515151;
        stroke-width: 0px;
      }

      .cls-3 {
        fill: #fff;
      }
    </style>
  </defs>
  <rect class="cls-3" x="9" y="5.2" width="57.9" height="23.2"/>
  <g>
    <path class="cls-3" d="M18.3,44.7h39.2c1.4,0,2.5,1.1,2.5,2.5v20.9c0,1.4-1.1,2.5-2.5,2.5H18.3c-1.4,0-2.5-1.1-2.5-2.5v-20.9c0-1.4,1.1-2.5,2.5-2.5Z"/>
    <path class="cls-2" d="M28.5,63.6v7.1h29.1c1.4,0,2.5-1.1,2.5-2.5v-4.5"/>
    <path class="cls-2" d="M57.1,33.7H18.8l-5.9,14.2h0s0,0,0,0h0s0,0,0,0c0,2.8,2.2,5,5,5s5-2.2,5-5h0c0,2.8,2.2,5,5,5s5-2.2,5-5h0c0,2.8,2.2,5,5,5s5-2.2,5-5h0c0,2.8,2.2,5,5,5s5-2.2,5-5h0c0,2.8,2.2,5,5,5s5-2.2,5-5h0l-5.9-14.2Z"/>
  </g>
  <line class="cls-1" x1="27.3" y1="28.4" x2="27.3" y2="33.7"/>
  <line class="cls-1" x1="48.6" y1="28.4" x2="48.6" y2="33.7"/>
  <line class="cls-1" x1="28.5" y1="52.9" x2="28.5" y2="66.3"/>
  <g>
    <path class="cls-4" d="M25.5,14.5h-.2c-.4,0-.7-.2-.9-.6-.3-.5-.8-.8-1.6-.8s-1.6.4-1.6,1,.8,1,2.7,1.4c2.3.5,3,1.6,3,3s-1.8,3-3.9,3-3.2-.7-3.9-1.9.1-1.5.9-1.5h.3c.4,0,.7.2.9.6.3.6,1,1,2,1s1.5-.4,1.5-1.1-.7-1.1-2.4-1.4c-2.1-.4-3.3-1.3-3.3-3.1s1.8-2.8,4-2.8,2.8.6,3.4,1.7,0,1.5-.9,1.5Z"/>
    <path class="cls-4" d="M36.9,12.5v7.8c0,.6-.4,1-1,1h-.2c-.6,0-1-.4-1-1v-3h-4.3v3c0,.6-.4,1-1,1h-.2c-.6,0-1-.4-1-1v-7.8c0-.6.4-1,1-1h.2c.6,0,1,.4,1,1v2.9h4.3v-2.9c0-.6.4-1,1-1h.2c.6,0,1,.4,1,1Z"/>
    <path class="cls-4" d="M38.2,16.4c0-3,2.2-5.1,5.3-5.1s5.3,2.2,5.3,5.1-2.2,5.1-5.3,5.1-5.3-2.2-5.3-5.1ZM46.6,16.4c0-1.8-1.3-3.2-3.1-3.2s-3.1,1.3-3.1,3.2,1.3,3.2,3.1,3.2,3.1-1.3,3.1-3.2Z"/>
    <path class="cls-4" d="M50.1,12.5c0-.6.4-1,1-1h2.8c2.5,0,4,1.4,4,3.6s-1.5,3.6-4,3.6h-1.6v1.6c0,.6-.4,1-1,1h-.2c-.6,0-1-.4-1-1v-7.8ZM53.7,16.8c1.2,0,1.9-.6,1.9-1.7s-.7-1.6-1.9-1.6h-1.5v3.3h1.5Z"/>
  </g>
</svg>