<?xml version="1.0" encoding="UTF-8"?>
<svg id="_레이어_1" data-name=" 레이어 1" xmlns="http://www.w3.org/2000/svg" version="1.1" viewBox="0 0 75.9 75.9">
  <defs>
    <style>
      .cls-1 {
        fill: #515151;
      }

      .cls-1, .cls-2 {
        stroke-width: 0px;
      }

      .cls-3, .cls-4 {
        stroke: #515151;
        stroke-linecap: round;
        stroke-linejoin: round;
        stroke-width: 2px;
      }

      .cls-3, .cls-2 {
        fill: #fff;
      }

      .cls-4 {
        fill: #0a8aff;
      }

      .cls-5 {
        fill: none;
        stroke: #fff;
        stroke-miterlimit: 10;
        stroke-width: .8px;
      }
    </style>
  </defs>
  <g>
    <g>
      <rect class="cls-3" x="4.8" y="53.8" width="10.8" height="18.2"/>
      <rect class="cls-3" x="22.8" y="46.8" width="10.8" height="25.2"/>
      <rect class="cls-3" x="40.9" y="37.9" width="10.8" height="34.2"/>
      <rect class="cls-4" x="58.9" y="25" width="10.8" height="47"/>
    </g>
    <path class="cls-1" d="M70.7,3s0,0,0,0c0-.1-.1-.3-.2-.4,0,0,0,0,0,0,0,0,0,0,0,0,0-.1-.2-.2-.3-.3,0,0,0,0,0,0-.1,0-.2-.2-.4-.2,0,0,0,0,0,0-.1,0-.3,0-.4,0,0,0,0,0-.1,0,0,0,0,0,0,0-.1,0-.2,0-.4,0,0,0,0,0,0,0l-12.6,2.8c-.9.2-1.5,1.1-1.3,2,.2.9,1.1,1.5,2,1.3l8.1-1.8c-12.2,15.5-27.1,23.6-37.7,27.8-12.4,4.9-22,5.6-22,5.6-.9,0-1.6.9-1.6,1.8,0,.9.8,1.6,1.7,1.6s0,0,.1,0c.4,0,10.1-.7,22.9-5.7,11-4.3,26.3-12.7,39-28.6v7.8c0,.9.8,1.7,1.7,1.7s1.7-.8,1.7-1.7V3.4c0-.1,0-.3,0-.4Z"/>
    <path class="cls-5" d="M70.7,3s0,0,0,0c0-.1-.1-.3-.2-.4,0,0,0,0,0,0,0,0,0,0,0,0,0-.1-.2-.2-.3-.3,0,0,0,0,0,0-.1,0-.2-.2-.4-.2,0,0,0,0,0,0-.1,0-.3,0-.4,0,0,0,0,0-.1,0,0,0,0,0,0,0-.1,0-.2,0-.4,0,0,0,0,0,0,0l-12.6,2.8c-.9.2-1.5,1.1-1.3,2,.2.9,1.1,1.5,2,1.3l8.1-1.8c-12.2,15.5-27.1,23.6-37.7,27.8-12.4,4.9-22,5.6-22,5.6-.9,0-1.6.9-1.6,1.8,0,.9.8,1.6,1.7,1.6s0,0,.1,0c.4,0,10.1-.7,22.9-5.7,11-4.3,26.3-12.7,39-28.6v7.8c0,.9.8,1.7,1.7,1.7s1.7-.8,1.7-1.7V3.4c0-.1,0-.3,0-.4Z"/>
  </g>
  <circle class="cls-4" cx="13.2" cy="11.4" r="8.4"/>
  <g>
    <path class="cls-2" d="M11.3,15.2c-.3,0-.7-.2-.8-.5l-1.8-5.3c-.1-.4,0-.9.5-1,.4-.1.9,0,1,.5l1.8,5.3c.1.4,0,.9-.5,1,0,0-.2,0-.3,0Z"/>
    <path class="cls-2" d="M11.3,15.2c0,0-.2,0-.3,0-.4-.1-.6-.6-.5-1l1.8-5.3c.1-.4.6-.7,1-.5.4.1.6.6.5,1l-1.8,5.3c-.1.3-.4.5-.8.5Z"/>
    <path class="cls-2" d="M15,15.2c-.3,0-.7-.2-.8-.5l-1.8-5.3c-.1-.4,0-.9.5-1,.4-.1.9,0,1,.5l1.8,5.3c.1.4,0,.9-.5,1,0,0-.2,0-.3,0Z"/>
    <path class="cls-2" d="M15,15.2c0,0-.2,0-.3,0-.4-.1-.6-.6-.5-1l1.8-5.3c.1-.4.6-.7,1-.5.4.1.6.6.5,1l-1.8,5.3c-.1.3-.4.5-.8.5Z"/>
    <path class="cls-2" d="M17.2,11.9h-8.1c-.4,0-.8-.4-.8-.8s.4-.8.8-.8h8.1c.4,0,.8.4.8.8s-.4.8-.8.8Z"/>
  </g>
</svg>