<?xml version="1.0" encoding="UTF-8"?>
<svg id="_레이어_1" data-name=" 레이어 1" xmlns="http://www.w3.org/2000/svg" version="1.1" viewBox="0 0 75.9 75.9">
  <defs>
    <style>
      .cls-1 {
        fill: none;
      }

      .cls-1, .cls-2, .cls-3 {
        stroke: #515151;
        stroke-linecap: round;
        stroke-linejoin: round;
        stroke-width: 2px;
      }

      .cls-4 {
        stroke-width: 0px;
      }

      .cls-4, .cls-3 {
        fill: #0a8aff;
      }

      .cls-2 {
        fill: #fff;
      }
    </style>
  </defs>
  <g>
    <line class="cls-1" x1="38.4" y1="3.1" x2="38.4" y2="14"/>
    <path class="cls-2" d="M17.8,36.5v15.7c0,11.4,9.2,20.6,20.6,20.6s20.6-9.2,20.6-20.6v-15.7H17.8Z"/>
    <path class="cls-2" d="M38.4,14v22.5h20.6v-1.9c0-11.4-9.2-20.6-20.6-20.6Z"/>
    <path class="cls-3" d="M17.8,34.5v1.9h20.6V14c-11.4,0-20.6,9.2-20.6,20.6Z"/>
  </g>
  <path class="cls-2" d="M40.8,28.6c0,1.3-1.1,2.4-2.4,2.4h0c-1.3,0-2.4-1.1-2.4-2.4v-6.8c0-1.3,1.1-2.4,2.4-2.4h0c1.3,0,2.4,1.1,2.4,2.4v6.8Z"/>
  <g>
    <path class="cls-4" d="M20.4,6.3c-.5-.7-1.5-.8-2.1-.3-.7.5-.8,1.5-.3,2.1l3.8,5.2c.3.4.8.6,1.2.6s.6,0,.9-.3c.7-.5.8-1.5.3-2.1l-3.8-5.2Z"/>
    <path class="cls-4" d="M19.4,15.2l-4.8-2.1c-.8-.3-1.7,0-2,.8-.3.8,0,1.7.8,2l4.8,2.1c.3.1.6.2.9.1.5,0,1-.4,1.2-.9.3-.8,0-1.7-.8-2Z"/>
    <path class="cls-4" d="M29.5,9.9l-.5-5.2c0-.8-.8-1.5-1.7-1.4-.8,0-1.5.8-1.4,1.7l.5,5.2c0,.7.6,1.2,1.2,1.3.2,0,.3,0,.5,0,.8,0,1.5-.8,1.4-1.7Z"/>
  </g>
</svg>