<?xml version="1.0" encoding="UTF-8"?>
<svg id="_레이어_1" data-name=" 레이어 1" xmlns="http://www.w3.org/2000/svg" version="1.1" viewBox="0 0 75.9 75.9">
  <defs>
    <style>
      .cls-1 {
        fill: #0a8aff;
      }

      .cls-1, .cls-2 {
        stroke: #515151;
        stroke-linecap: round;
        stroke-linejoin: round;
        stroke-width: 2px;
      }

      .cls-2 {
        fill: #fff;
      }
    </style>
  </defs>
  <g>
    <path class="cls-2" d="M22.9,37.4c0,4.4-3.5,7.9-7.9,7.9s-7.9-3.5-7.9-7.9,3.5-7.9,7.9-7.9,7.9,3.5,7.9,7.9Z"/>
    <path class="cls-1" d="M25.9,56.1c0-6-4.9-10.8-10.8-10.8s-10.8,4.9-10.8,10.8v7.7h21.7v-7.7Z"/>
  </g>
  <g>
    <path class="cls-2" d="M68.8,37.4c0,4.4-3.5,7.9-7.9,7.9s-7.9-3.5-7.9-7.9,3.5-7.9,7.9-7.9,7.9,3.5,7.9,7.9Z"/>
    <path class="cls-1" d="M71.7,56.1c0-6-4.9-10.8-10.8-10.8s-10.8,4.9-10.8,10.8v7.7h21.7v-7.7Z"/>
  </g>
  <g>
    <path class="cls-2" d="M48.3,22.4c0,5.7-4.6,10.4-10.4,10.4s-10.4-4.6-10.4-10.4,4.6-10.4,10.4-10.4,10.4,4.6,10.4,10.4Z"/>
    <path class="cls-2" d="M54.9,49.7c0-9.4-7.6-16.9-16.9-16.9s-16.9,7.6-16.9,16.9v14.1h33.9v-14.1Z"/>
  </g>
</svg>