<?xml version="1.0" encoding="UTF-8"?>
<svg id="_레이어_1" data-name=" 레이어 1" xmlns="http://www.w3.org/2000/svg" version="1.1" viewBox="0 0 75.9 75.9">
  <defs>
    <style>
      .cls-1, .cls-2 {
        fill: #0a8aff;
      }

      .cls-1, .cls-3 {
        stroke: #515151;
        stroke-linecap: round;
        stroke-linejoin: round;
        stroke-width: 2px;
      }

      .cls-2 {
        stroke-width: 0px;
      }

      .cls-3 {
        fill: #fff;
      }
    </style>
  </defs>
  <g>
    <path class="cls-1" d="M31.1,19.9c0-2.5-2-4.4-4.4-4.4s-4.4,2-4.4,4.4v7.6h8.9v-7.6Z"/>
    <path class="cls-3" d="M58.2,41.8v-6.1c0-2.5-2-4.4-4.4-4.4s-4.4,2-4.4,4.4v1.6h-.1v-4.1c0-2.5-2-4.4-4.4-4.4s-4.4,2-4.4,4.4v2.7h-.1v-4.1c0-2.5-2-4.4-4.4-4.4s-4.4,2-4.4,4.4v4.1h-.1v-8.5h-8.9v16.7l-3.8-3.8c-1.7-1.7-4.5-1.7-6.3,0-1.7,1.7-1.7,4.5,0,6.3l12.3,12.9c.4.4.8.8,1.2,1.2v.2c.5.3.9.6,1.3.8,1.9,1.2,4.1,1.9,6.5,1.9h12.2c8.1,0,11.8-7.4,12.4-14.5.2-2.5,0-5,0-7.5Z"/>
  </g>
  <path class="cls-1" d="M27.1,60.6h25.9c1.6,0,2.8,1.3,2.8,2.8v5.4c0,1.6-1.3,2.8-2.8,2.8h-25.9c-1.6,0-2.8-1.3-2.8-2.8v-5.4c0-1.6,1.3-2.8,2.8-2.8Z"/>
  <g>
    <path class="cls-2" d="M18.2,5.6c-.5-.6-1.4-.8-2-.3-.6.5-.8,1.4-.3,2l3.5,4.8c.3.4.7.6,1.1.6s.6,0,.8-.3c.6-.5.8-1.4.3-2l-3.5-4.8Z"/>
    <path class="cls-2" d="M17.3,13.9l-4.4-2c-.7-.3-1.6,0-1.9.7-.3.7,0,1.6.7,1.9l4.4,2c.3.1.5.1.8.1.5,0,.9-.4,1.1-.8.3-.7,0-1.6-.7-1.9Z"/>
    <path class="cls-2" d="M26.7,8.9l-.5-4.8c0-.8-.8-1.3-1.6-1.3-.8,0-1.3.8-1.3,1.6l.5,4.8c0,.6.5,1.1,1.1,1.2.1,0,.3,0,.5,0,.8,0,1.3-.8,1.3-1.6Z"/>
  </g>
</svg>