<?xml version="1.0" encoding="UTF-8"?>
<svg id="_레이어_1" data-name=" 레이어 1" xmlns="http://www.w3.org/2000/svg" version="1.1" viewBox="0 0 75.9 75.9">
  <defs>
    <style>
      .cls-1 {
        fill: none;
      }

      .cls-1, .cls-2, .cls-3 {
        stroke: #515151;
        stroke-linecap: round;
        stroke-linejoin: round;
        stroke-width: 2px;
      }

      .cls-2 {
        fill: #0a8aff;
      }

      .cls-3 {
        fill: #fff;
      }
    </style>
  </defs>
  <rect class="cls-3" x="4.9" y="17.9" width="66" height="45.6" rx="3.3" ry="3.3"/>
  <g>
    <path class="cls-3" d="M30.3,38.2c0,3.8-3.1,6.9-6.9,6.9s-6.9-3.1-6.9-6.9,3.1-6.9,6.9-6.9,6.9,3.1,6.9,6.9Z"/>
    <path class="cls-2" d="M31.9,53.5c0-4.7-3.8-8.4-8.4-8.4s-8.4,3.8-8.4,8.4v10h16.9v-10Z"/>
  </g>
  <line class="cls-1" x1="37.9" y1="12.4" x2="37.9" y2="24.1"/>
  <line class="cls-1" x1="32.2" y1="24.1" x2="43.7" y2="24.1"/>
  <line class="cls-1" x1="40.4" y1="36.2" x2="58.7" y2="36.2"/>
  <line class="cls-1" x1="40.4" y1="42" x2="58.7" y2="42"/>
  <line class="cls-1" x1="40.4" y1="47.9" x2="58.7" y2="47.9"/>
</svg>