<?xml version="1.0" encoding="UTF-8"?>
<svg id="_레이어_1" data-name=" 레이어 1" xmlns="http://www.w3.org/2000/svg" version="1.1" viewBox="0 0 75.9 75.9">
  <defs>
    <style>
      .cls-1 {
        stroke-width: 0px;
      }

      .cls-1, .cls-2 {
        fill: #0a8aff;
      }

      .cls-3 {
        fill: none;
        stroke: #fff;
        stroke-width: 2.5px;
      }

      .cls-3, .cls-4, .cls-2 {
        stroke-linecap: round;
        stroke-linejoin: round;
      }

      .cls-4 {
        fill: #fff;
      }

      .cls-4, .cls-2 {
        stroke: #515151;
        stroke-width: 2px;
      }
    </style>
  </defs>
  <g>
    <rect class="cls-4" x="10.1" y="55.9" width="41.3" height="10.9"/>
    <rect class="cls-4" x="4.9" y="44.7" width="41.3" height="10.9"/>
    <rect class="cls-4" x="10.1" y="33.6" width="41.3" height="10.9"/>
    <rect class="cls-4" x="15" y="22.4" width="41.3" height="10.9"/>
    <rect class="cls-4" x="10.1" y="11.3" width="41.3" height="10.9"/>
    <path class="cls-2" d="M70.5,48.6c0,10.3-8.3,18.6-18.6,18.6s-18.6-8.3-18.6-18.6,8.3-18.6,18.6-18.6,18.6,8.3,18.6,18.6Z"/>
    <g>
      <polyline class="cls-3" points="57.8 50.9 51.9 56.8 45.9 50.9"/>
      <line class="cls-3" x1="51.9" y1="40.3" x2="51.9" y2="56.8"/>
    </g>
  </g>
  <path class="cls-1" d="M72.5,15.8c-6.4-.5-7.2-8.6-7.2-8.6,0,0-.7,8-7.2,8.6,6.4.5,7.2,8.6,7.2,8.6,0,0,.7-8,7.2-8.6Z"/>
</svg>