<?xml version="1.0" encoding="UTF-8"?>
<svg id="_레이어_1" data-name=" 레이어 1" xmlns="http://www.w3.org/2000/svg" version="1.1" viewBox="0 0 75.9 75.9">
  <defs>
    <style>
      .cls-1 {
        fill: none;
      }

      .cls-1, .cls-2, .cls-3 {
        stroke: #515151;
        stroke-linecap: round;
        stroke-linejoin: round;
        stroke-width: 2px;
      }

      .cls-4 {
        stroke-width: 0px;
      }

      .cls-4, .cls-2 {
        fill: #0a8aff;
      }

      .cls-3 {
        fill: #fff;
      }
    </style>
  </defs>
  <line class="cls-1" x1="38" y1="53.2" x2="38" y2="62.1"/>
  <g>
    <path class="cls-3" d="M67.1,51.7c0,1.3-1.1,2.4-2.4,2.4H11.3c-1.3,0-2.4-1.1-2.4-2.4V15.8c0-1.3,1.1-1.8,2.4-1.8h53.4c1.3,0,2.4.5,2.4,1.8v35.9Z"/>
    <g>
      <rect class="cls-4" x="24.4" y="39.3" width="4.1" height="6.5"/>
      <rect class="cls-4" x="32.1" y="32.2" width="4.1" height="13.7"/>
      <rect class="cls-4" x="39.8" y="35.6" width="4.1" height="10.3"/>
      <rect class="cls-4" x="47.5" y="25.7" width="4.1" height="20.2"/>
    </g>
    <path class="cls-2" d="M6.9,10.2h62.3c1.3,0,2.4,1.1,2.4,2.4v3.2c0,1.3-1.1,2.4-2.4,2.4H6.9c-1.3,0-2.4-1.1-2.4-2.4v-3.2c0-1.3,1.1-2.4,2.4-2.4Z"/>
  </g>
  <path class="cls-3" d="M40.9,63.9c0,1.6-1.3,2.9-2.9,2.9s-2.9-1.3-2.9-2.9,1.3-2.9,2.9-2.9,2.9,1.3,2.9,2.9Z"/>
</svg>