<?xml version="1.0" encoding="UTF-8"?>
<svg id="_레이어_1" data-name=" 레이어 1" xmlns="http://www.w3.org/2000/svg" version="1.1" xmlns:xlink="http://www.w3.org/1999/xlink" viewBox="0 0 75.9 75.9">
  <defs>
    <style>
      .cls-1 {
        fill: url(#linear-gradient);
      }

      .cls-1, .cls-2, .cls-3 {
        stroke-width: 0px;
      }

      .cls-4 {
        fill: none;
      }

      .cls-4, .cls-5 {
        stroke: #515151;
        stroke-linecap: round;
        stroke-linejoin: round;
        stroke-width: 2px;
      }

      .cls-2 {
        fill: #0a8aff;
      }

      .cls-3 {
        fill: #515151;
      }

      .cls-5 {
        fill: #fff;
      }
    </style>
    <linearGradient id="linear-gradient" x1="48.9" y1="34.2" x2="27.3" y2="60.1" gradientUnits="userSpaceOnUse">
      <stop offset="0" stop-color="#38ffbf"/>
      <stop offset="1" stop-color="#00d9ff"/>
    </linearGradient>
  </defs>
  <g>
    <g>
      <path class="cls-5" d="M22.1,4.8h32.2c1.9,0,3.4,1.5,3.4,3.4v59.7c0,1.9-1.5,3.4-3.4,3.4H8.1c-1.9,0-3.4-1.5-3.4-3.4V22.2L22.1,4.8Z"/>
      <path class="cls-5" d="M22.1,18.8c0,1.9-1.5,3.4-3.4,3.4H4.7L22.1,4.8v14Z"/>
    </g>
    <g>
      <path class="cls-3" d="M36.6,59.7c-.5,0-1-.2-1.3-.6l-9.3-11.6-9,6.8c-.7.5-1.8.4-2.3-.3-.5-.7-.4-1.8.3-2.3l10.3-7.8c.7-.5,1.7-.4,2.3.3l8.6,10.8,9.2-19.1c.4-.8,1.4-1.2,2.2-.8.8.4,1.2,1.4.8,2.2l-10.3,21.5c-.2.5-.7.9-1.3.9,0,0-.1,0-.2,0Z"/>
      <g>
        <path class="cls-2" d="M19.5,52.9c0,1.9-1.5,3.4-3.4,3.4s-3.4-1.5-3.4-3.4,1.5-3.4,3.4-3.4,3.4,1.5,3.4,3.4Z"/>
        <path class="cls-2" d="M29.8,45.2c0,1.9-1.5,3.4-3.4,3.4s-3.4-1.5-3.4-3.4,1.5-3.4,3.4-3.4,3.4,1.5,3.4,3.4Z"/>
        <path class="cls-2" d="M40.1,58c0,1.9-1.5,3.4-3.4,3.4s-3.4-1.5-3.4-3.4,1.5-3.4,3.4-3.4,3.4,1.5,3.4,3.4Z"/>
        <circle class="cls-1" cx="46.9" cy="36.6" r="3.4"/>
      </g>
    </g>
    <path class="cls-3" d="M48.9,15.1h-18.2c-.9,0-1.6-.7-1.6-1.6s.7-1.6,1.6-1.6h18.2c.9,0,1.6.7,1.6,1.6s-.7,1.6-1.6,1.6Z"/>
    <path class="cls-3" d="M40.1,21.7h-9.5c-.9,0-1.6-.7-1.6-1.6s.7-1.6,1.6-1.6h9.5c.9,0,1.6.7,1.6,1.6s-.7,1.6-1.6,1.6Z"/>
  </g>
  <g>
    <g>
      <line class="cls-4" x1="55.2" y1="38" x2="72.3" y2="55.1"/>
      <path class="cls-5" d="M69.2,38.7c0,7.7-6.2,14-14,14s-14-6.3-14-14,6.3-14,14-14,14,6.3,14,14Z"/>
    </g>
    <g>
      <path class="cls-3" d="M55.2,42.3c-.9,0-1.6-.7-1.6-1.6v-3c0-.9.7-1.6,1.6-1.6s1.5-.7,1.5-1.5-.7-1.5-1.5-1.5-1.5.7-1.5,1.5-.7,1.6-1.6,1.6-1.6-.7-1.6-1.6c0-2.6,2.1-4.8,4.8-4.8s4.8,2.1,4.8,4.8-1.3,3.8-3.1,4.5v1.6c0,.9-.7,1.6-1.6,1.6Z"/>
      <path class="cls-3" d="M57.1,44.9c0,1-.8,1.9-1.9,1.9s-1.9-.8-1.9-1.9.8-1.9,1.9-1.9,1.9.8,1.9,1.9Z"/>
    </g>
  </g>
</svg>