<?xml version="1.0" encoding="UTF-8"?>
<svg id="_레이어_1" data-name=" 레이어 1" xmlns="http://www.w3.org/2000/svg" version="1.1" viewBox="0 0 75.9 75.9">
  <defs>
    <style>
      .cls-1 {
        fill: none;
        stroke-miterlimit: 10;
      }

      .cls-1, .cls-2, .cls-3 {
        stroke: #515151;
        stroke-linecap: round;
        stroke-width: 2px;
      }

      .cls-2 {
        fill: #0a8aff;
      }

      .cls-2, .cls-3 {
        stroke-linejoin: round;
      }

      .cls-3 {
        fill: #fff;
      }
    </style>
  </defs>
  <g>
    <path class="cls-3" d="M71.5,48.4V12c0-1.9-1.5-3.4-3.4-3.4H7.8c-1.9,0-3.4,1.5-3.4,3.4v36.4"/>
    <path class="cls-3" d="M4.4,48.4v6c0,1.9,1.5,3.4,3.4,3.4h60.4c1.9,0,3.4-1.5,3.4-3.4v-6"/>
    <line class="cls-1" x1="38" y1="58.2" x2="38" y2="67.9"/>
    <line class="cls-1" x1="16.1" y1="67.9" x2="59.8" y2="67.9"/>
  </g>
  <g>
    <path class="cls-2" d="M49.4,41.7c1.8-2.4,2.9-5.4,2.9-8.6,0-7.9-6.4-14.3-14.3-14.3s-6.2,1.1-8.6,2.9l20.1,20.1Z"/>
    <path class="cls-2" d="M26.5,24.5c-1.8,2.4-2.9,5.4-2.9,8.7,0,7.9,6.4,14.3,14.4,14.3s6.2-1.1,8.7-2.9l-20.1-20.1Z"/>
  </g>
</svg>