<?xml version="1.0" encoding="UTF-8"?>
<svg id="_레이어_1" data-name=" 레이어 1" xmlns="http://www.w3.org/2000/svg" version="1.1" viewBox="0 0 75.9 75.9">
  <defs>
    <style>
      .cls-1 {
        fill: none;
      }

      .cls-1, .cls-2, .cls-3 {
        stroke: #515151;
        stroke-linecap: round;
        stroke-linejoin: round;
        stroke-width: 2px;
      }

      .cls-2 {
        fill: #0a8aff;
      }

      .cls-3, .cls-4 {
        fill: #fff;
      }

      .cls-4 {
        stroke-width: 0px;
      }
    </style>
  </defs>
  <rect class="cls-3" x="16.9" y="4.9" width="42.2" height="66.2" rx="3.3" ry="3.3"/>
  <g>
    <path class="cls-2" d="M59,40.4c0-10.4-9.5-18.8-21.1-18.8s-21.1,8.4-21.1,18.8,9.5,18.8,21.1,18.8,7-.8,9.9-2.2l5.6,3.3-.7-6.5c3.9-3.4,6.3-8.2,6.3-13.4Z"/>
    <path class="cls-4" d="M42.2,38.5l-.5,3.1h.6c.7,0,1.3.6,1.3,1.3h0c0,.7-.6,1.3-1.3,1.3h-1.1l-.5,2.9c-.1.6-.6,1.1-1.3,1.1h-.3c-.8,0-1.4-.7-1.3-1.5l.4-2.5h-2.3l-.5,2.9c-.1.6-.6,1.1-1.3,1.1h-.3c-.8,0-1.4-.7-1.3-1.5l.4-2.5h-.6c-.7,0-1.3-.6-1.3-1.3h0c0-.7.6-1.3,1.3-1.3h1.1l.5-3.1h-.6c-.7,0-1.3-.6-1.3-1.3h0c0-.7.6-1.3,1.3-1.3h1.1l.5-2.9c.1-.6.6-1.1,1.3-1.1h.3c.8,0,1.4.7,1.3,1.5l-.4,2.5h2.3l.5-2.9c.1-.6.6-1.1,1.3-1.1h.3c.8,0,1.4.7,1.3,1.5l-.4,2.5h.6c.7,0,1.3.6,1.3,1.3h0c0,.7-.6,1.3-1.3,1.3h-1.1ZM39.4,38.5h-2.3l-.5,3.1h2.3l.5-3.1Z"/>
  </g>
  <line class="cls-1" x1="34.9" y1="10.1" x2="41" y2="10.1"/>
</svg>