<svg width="777" height="410" xmlns="http://www.w3.org/2000/svg" xmlns:xlink="http://www.w3.org/1999/xlink" xml:space="preserve" overflow="hidden"><g transform="translate(-224 -254)"><g><g><g><g><path d="M759.539 255.549 225.4 255.549 225.4 632.551 759.539 632.551 759.539 255.549Z" stroke="#3C4043" stroke-width="0.799885" stroke-linecap="round" stroke-linejoin="round" stroke-miterlimit="4" stroke-opacity="1" fill="#FFFFFF" fill-rule="nonzero" fill-opacity="1"/><path d="M262.443 273.315C262.451 276.474 259.899 279.042 256.739 279.05 253.58 279.058 251.012 276.506 251.004 273.347 250.996 270.187 253.548 267.62 256.707 267.612 256.707 267.612 256.723 267.612 256.731 267.612 259.883 267.612 262.435 270.163 262.443 273.315Z" stroke="#3C4043" stroke-width="0.799885" stroke-linecap="butt" stroke-linejoin="miter" stroke-miterlimit="4" stroke-opacity="1" fill="#FFFFFF" fill-rule="nonzero" fill-opacity="1"/><path d="M290.383 273.315C290.383 276.466 287.831 279.026 284.679 279.034 281.528 279.034 278.968 276.482 278.96 273.331 278.96 270.179 281.512 267.62 284.663 267.612 284.663 267.612 284.663 267.612 284.663 267.612 287.815 267.612 290.367 270.163 290.375 273.315Z" stroke="#3C4043" stroke-width="0.799885" stroke-linecap="butt" stroke-linejoin="miter" stroke-miterlimit="4" stroke-opacity="1" fill="#FFFFFF" fill-rule="nonzero" fill-opacity="1"/><path d="M225.944 289.928 577.709 289.928" stroke="#3C4043" stroke-width="0.799885" stroke-linecap="round" stroke-linejoin="round" stroke-miterlimit="4" stroke-opacity="1" fill="none" fill-rule="nonzero"/><path d="M262.771 312.741 266.554 312.741C266.698 312.741 266.69 312.741 266.714 312.885 266.786 313.437 266.802 313.997 266.778 314.557 266.738 315.765 266.442 316.957 265.906 318.044 265.29 319.244 264.338 320.236 263.178 320.916 262.627 321.244 262.051 321.508 261.443 321.716 261.027 321.86 260.603 321.964 260.171 322.02 259.643 322.1 259.107 322.132 258.571 322.116 256.347 322.06 254.236 321.164 252.644 319.612 251.42 318.42 250.58 316.885 250.244 315.213 250.092 314.501 250.044 313.773 250.084 313.053 250.164 311.413 250.716 309.83 251.684 308.502 253.044 306.63 255.092 305.382 257.371 305.022 257.899 304.934 258.435 304.894 258.971 304.91 261.035 304.95 263.027 305.734 264.57 307.102L264.57 307.23 263.074 308.766 263.035 308.766C262.995 308.766 262.963 308.83 262.899 308.766 262.107 308.062 261.147 307.574 260.107 307.35 259.491 307.214 258.851 307.182 258.219 307.238 257.283 307.31 256.387 307.606 255.588 308.094 254.108 308.966 253.052 310.413 252.684 312.093 252.572 312.565 252.524 313.053 252.54 313.541 252.572 315.509 253.54 317.332 255.148 318.468 255.892 319.02 256.755 319.38 257.667 319.54 258.259 319.652 258.867 319.676 259.467 319.596 260.523 319.484 261.539 319.1 262.403 318.476 263.418 317.756 264.082 316.653 264.258 315.421 264.258 315.293 264.298 315.173 264.306 315.053 264.314 314.933 264.306 314.965 264.226 314.965L258.883 314.965C258.808 314.965 258.771 314.927 258.771 314.853L258.771 312.877C258.771 312.725 258.771 312.741 258.907 312.741L262.771 312.741Z" fill="#3183FB" fill-rule="evenodd" fill-opacity="1"/><path d="M299.997 320.876C299.941 320.9 299.893 320.94 299.845 320.98 299.333 321.42 298.741 321.748 298.093 321.94 297.31 322.172 296.478 322.172 295.694 321.94 295.086 321.764 294.518 321.492 293.99 321.14 293.614 320.884 293.286 320.564 293.006 320.204 292.47 319.556 292.07 318.804 291.822 317.996 291.662 317.46 291.59 316.893 291.622 316.333 291.67 315.613 291.862 314.909 292.19 314.269 292.79 313.037 293.798 312.045 295.038 311.461 295.614 311.181 296.246 311.037 296.886 311.037 297.534 311.045 298.173 311.213 298.749 311.509 299.133 311.701 299.493 311.941 299.821 312.221 299.821 312.221 299.877 312.277 299.917 312.285 299.957 312.293 299.917 312.229 299.917 312.197L299.917 311.549C299.917 311.333 299.917 311.437 300.037 311.437L302.141 311.437C302.181 311.437 302.205 311.437 302.205 311.501L302.205 321.884C302.221 323.076 301.837 324.235 301.117 325.187 300.637 325.835 299.997 326.339 299.261 326.659 299.053 326.747 298.837 326.803 298.621 326.843 297.981 327.003 297.318 327.075 296.654 327.043 295.542 327.019 294.462 326.619 293.606 325.907 293.126 325.499 292.718 325.003 292.414 324.451 292.302 324.267 292.206 324.083 292.118 323.892 292.118 323.892 292.158 323.892 292.182 323.836L294.118 322.996C294.19 322.996 294.198 322.996 294.23 323.044 294.438 323.476 294.726 323.86 295.07 324.195 295.406 324.539 295.838 324.771 296.302 324.883 296.43 324.915 296.558 324.931 296.686 324.931 297.102 324.931 297.518 324.891 297.917 324.795 298.773 324.571 299.461 323.931 299.733 323.092 299.861 322.724 299.933 322.332 299.957 321.94 299.973 321.62 299.973 321.308 299.957 320.988 299.957 320.988 299.997 320.924 299.997 320.876ZM294.166 316.597C294.166 316.821 294.182 317.044 294.222 317.26 294.35 318.076 294.774 318.82 295.422 319.34 296.198 320.004 297.286 320.172 298.221 319.764 298.901 319.484 299.461 318.972 299.781 318.308 300.181 317.556 300.301 316.677 300.117 315.845 299.973 315.053 299.549 314.349 298.917 313.853 298.245 313.301 297.358 313.101 296.518 313.317 295.878 313.477 295.318 313.853 294.918 314.373 294.414 315.005 294.15 315.797 294.166 316.605Z" fill="#3183FB" fill-rule="evenodd" fill-opacity="1"/><path d="M273.113 322.172C270.018 322.172 267.514 319.668 267.514 316.573 267.514 313.477 270.018 310.973 273.113 310.973 276.209 310.973 278.712 313.477 278.712 316.573 278.712 319.668 276.209 322.172 273.113 322.172ZM272.953 319.98C273.817 320.02 274.649 319.692 275.265 319.092 275.985 318.38 276.353 317.388 276.265 316.381 276.225 315.597 275.913 314.853 275.377 314.277 274.865 313.693 274.145 313.333 273.369 313.277 272.529 313.205 271.705 313.493 271.097 314.077 269.842 315.261 269.626 317.172 270.593 318.604 271.113 319.42 271.993 319.932 272.953 319.98Z" fill="#FC2C25" fill-rule="evenodd" fill-opacity="1"/><path d="M285.159 322.172C282.064 322.172 279.56 319.668 279.56 316.573 279.56 313.477 282.064 310.973 285.159 310.973 288.255 310.973 290.759 313.477 290.759 316.573 290.759 319.668 288.255 322.172 285.159 322.172ZM288.359 316.573 288.359 316.109C288.263 315.349 287.919 314.653 287.375 314.117 286.199 312.941 284.295 312.941 283.12 314.117 283.072 314.165 283.032 314.205 282.992 314.253 282.32 314.997 282.008 315.989 282.128 316.98 282.208 317.884 282.656 318.716 283.368 319.276 284.559 320.244 286.295 320.14 287.367 319.044 287.999 318.388 288.343 317.516 288.335 316.605L288.359 316.573Z" fill="#FFB900" fill-rule="evenodd" fill-opacity="1"/><path d="M315.571 318.372 317.379 319.58C317.379 319.58 317.395 319.636 317.379 319.66 316.643 320.756 315.523 321.54 314.243 321.86 312.147 322.404 309.924 321.644 308.604 319.924 306.724 317.516 307.148 314.037 309.564 312.157 309.708 312.045 309.86 311.941 310.012 311.837 311.364 310.965 313.059 310.813 314.539 311.437 315.259 311.757 315.891 312.253 316.363 312.885 316.835 313.509 317.211 314.205 317.475 314.941 317.475 315.005 317.547 315.077 317.531 315.133 317.515 315.189 317.419 315.197 317.355 315.229L310.38 318.164C310.196 318.244 310.188 318.164 310.3 318.404 310.588 318.98 311.06 319.436 311.643 319.7 311.979 319.844 312.339 319.916 312.707 319.916 313.259 319.932 313.803 319.812 314.307 319.58 314.843 319.332 315.291 318.932 315.595 318.42 315.587 318.404 315.579 318.388 315.571 318.372ZM309.748 316.405 314.707 314.325C314.675 314.253 314.635 314.189 314.587 314.125 314.155 313.509 313.435 313.149 312.683 313.181 312.203 313.189 311.723 313.309 311.292 313.517 310.948 313.669 310.652 313.901 310.42 314.189 310.132 314.549 309.94 314.973 309.844 315.421 309.764 315.741 309.732 316.077 309.748 316.405Z" fill="#FC2C25" fill-rule="evenodd" fill-opacity="1"/><path d="M306.348 313.677 306.348 321.676C306.348 321.836 306.348 321.812 306.204 321.812L304.053 321.812C303.909 321.812 303.917 321.812 303.917 321.692L303.917 305.694C303.917 305.625 303.951 305.59 304.021 305.59L306.244 305.59C306.364 305.59 306.348 305.59 306.348 305.702L306.348 313.701 306.348 313.677Z" fill="#00AB47" fill-rule="evenodd" fill-opacity="1"/><path d="M343.871 308.574 686.869 308.574C691.445 308.574 695.156 312.285 695.156 316.861 695.156 321.436 691.445 325.147 686.869 325.147L343.871 325.147C339.296 325.147 335.584 321.436 335.584 316.861 335.584 312.285 339.296 308.574 343.871 308.574Z" stroke="#3B4043" stroke-width="0.799885" stroke-linecap="round" stroke-linejoin="round" stroke-miterlimit="4" stroke-opacity="1" fill="#FFFFFF" fill-rule="nonzero" fill-opacity="1"/><path d="M351.022 317.236 426.363 317.236" stroke="#3C4043" stroke-width="0.799885" stroke-linecap="round" stroke-linejoin="round" stroke-miterlimit="4" stroke-opacity="1" fill="none" fill-rule="nonzero"/><path d="M335.584 344.737 382.289 344.737" stroke="#3183FB" stroke-width="1.59977" stroke-linecap="round" stroke-linejoin="miter" stroke-miterlimit="10" stroke-opacity="1" fill="none" fill-rule="nonzero"/><path d="M409.405 344.737 456.119 344.737" stroke="#3C4043" stroke-width="0.799885" stroke-linecap="round" stroke-linejoin="round" stroke-miterlimit="4" stroke-opacity="1" fill="none" fill-rule="nonzero"/><path d="M483.987 344.737 542.37 344.737" stroke="#3C4043" stroke-width="0.799885" stroke-linecap="round" stroke-linejoin="round" stroke-miterlimit="4" stroke-opacity="1" fill="none" fill-rule="nonzero"/><path d="M569.118 344.737 615.824 344.737" stroke="#3C4043" stroke-width="0.799885" stroke-linecap="round" stroke-linejoin="round" stroke-miterlimit="4" stroke-opacity="1" fill="none" fill-rule="nonzero"/><path d="M644.307 344.737 691.013 344.737" stroke="#3C4043" stroke-width="0.799885" stroke-linecap="round" stroke-linejoin="round" stroke-miterlimit="4" stroke-opacity="1" fill="none" fill-rule="nonzero"/><path d="M335.584 572.472 569.118 572.472" stroke="#D0E1FA" stroke-width="2.39965" stroke-linecap="butt" stroke-linejoin="miter" stroke-miterlimit="10" stroke-opacity="1" fill="none" fill-rule="nonzero"/><path d="M335.208 593.941 691.013 593.941" stroke="#3C4043" stroke-width="0.799885" stroke-linecap="round" stroke-linejoin="round" stroke-miterlimit="4" stroke-opacity="1" fill="none" fill-rule="nonzero"/><path d="M335.96 611.034 524.373 611.034" stroke="#3C4043" stroke-width="0.799885" stroke-linecap="round" stroke-linejoin="round" stroke-miterlimit="4" stroke-opacity="1" fill="none" fill-rule="nonzero"/><path d="M335.584 483.532 542.746 483.532" stroke="#CEE2FF" stroke-width="2.39965" stroke-linecap="round" stroke-linejoin="round" stroke-miterlimit="4" stroke-opacity="1" fill="none" fill-rule="nonzero"/><path d="M375.882 505.001 483.611 505.001" stroke="#00AB47" stroke-width="0.799885" stroke-linecap="round" stroke-linejoin="miter" stroke-miterlimit="10" stroke-opacity="1" fill="none" fill-rule="nonzero"/><path d="M335.96 526.094 668.672 526.094" stroke="#3C4043" stroke-width="0.799885" stroke-linecap="round" stroke-linejoin="round" stroke-miterlimit="4" stroke-opacity="1" fill="none" fill-rule="nonzero"/><path d="M335.96 543.42 569.118 543.42" stroke="#3C4043" stroke-width="0.799885" stroke-linecap="round" stroke-linejoin="round" stroke-miterlimit="4" stroke-opacity="1" fill="none" fill-rule="nonzero"/><path d="M335.96 500.482 359.317 500.482 359.317 509.521 335.96 509.521Z" fill="#FFB900" fill-rule="nonzero" fill-opacity="1"/><path d="M325.058 364.958 682.102 364.958 682.102 458.48 325.058 458.48Z" fill="#FEEFC3" fill-rule="nonzero" fill-opacity="1"/><path d="M682.102 454.481 682.102 458.48 678.103 458.48" stroke="#3B4043" stroke-width="0.799885" stroke-linecap="round" stroke-linejoin="round" stroke-miterlimit="4" stroke-opacity="1" fill="none" fill-rule="nonzero"/><path d="M674.135 458.48 331.041 458.48" stroke="#3B4043" stroke-width="0.799885" stroke-linecap="round" stroke-linejoin="round" stroke-miterlimit="4" stroke-dasharray="0 0 7.93486 3.96743" stroke-opacity="1" fill="none" fill-rule="nonzero"/><path d="M329.057 458.48 325.058 458.48 325.058 454.481" stroke="#3B4043" stroke-width="0.799885" stroke-linecap="round" stroke-linejoin="round" stroke-miterlimit="4" stroke-opacity="1" fill="none" fill-rule="nonzero"/><path d="M325.058 450.593 325.058 370.901" stroke="#3B4043" stroke-width="0.799885" stroke-linecap="round" stroke-linejoin="round" stroke-miterlimit="4" stroke-dasharray="0 0 7.77488 3.88744" stroke-opacity="1" fill="none" fill-rule="nonzero"/><path d="M325.058 368.957 325.058 364.958 329.057 364.958" stroke="#3B4043" stroke-width="0.799885" stroke-linecap="round" stroke-linejoin="round" stroke-miterlimit="4" stroke-opacity="1" fill="none" fill-rule="nonzero"/><path d="M333.024 364.958 676.119 364.958" stroke="#3B4043" stroke-width="0.799885" stroke-linecap="round" stroke-linejoin="round" stroke-miterlimit="4" stroke-dasharray="0 0 7.93486 3.96743" stroke-opacity="1" fill="none" fill-rule="nonzero"/><path d="M678.103 364.958 682.102 364.958 682.102 368.957" stroke="#3B4043" stroke-width="0.799885" stroke-linecap="round" stroke-linejoin="round" stroke-miterlimit="4" stroke-opacity="1" fill="none" fill-rule="nonzero"/><path d="M682.102 372.844 682.102 452.537" stroke="#3B4043" stroke-width="0.799885" stroke-linecap="round" stroke-linejoin="round" stroke-miterlimit="4" stroke-dasharray="0 0 7.77488 3.88744" stroke-opacity="1" fill="none" fill-rule="nonzero"/><path d="M946.664 368.189 933.066 368.189 933.57 361.958C931.266 363.126 928.826 364.022 926.315 364.622 921.811 365.765 923.035 351.871 923.035 351.871L919.892 351.871C920.972 349.968 924.299 346.024 924.835 341.233 924.987 340.369 925.243 339.521 925.595 338.713 930.394 338.713 935.929 338.617 935.929 338.617 934.33 342.417 931.93 344.361 932.226 346.144 932.866 350.328 938.673 342.481 941.233 342.081 943.792 341.681 946.92 346 939.473 349.624L939.473 350.528C939.473 351.935 940.609 353.079 942.017 353.087 942.024 353.087 942.033 353.087 942.041 353.087L946.664 353.087" fill="#933222" fill-rule="nonzero" fill-opacity="1"/><path d="M923.035 351.895 919.892 351.895C920.972 349.992 924.299 346.048 924.835 341.257 924.987 340.393 925.243 339.545 925.595 338.737 930.394 338.737 935.929 338.641 935.929 338.641 934.33 342.441 931.93 344.385 932.226 346.168 932.866 350.352 938.673 342.505 941.233 342.105 943.792 341.705 946.92 346.024 939.473 349.648L939.473 350.552C939.473 351.959 940.609 353.103 942.017 353.111 942.024 353.111 942.033 353.111 942.041 353.111L946.664 353.111" stroke="#3C4043" stroke-width="0.799885" stroke-linecap="round" stroke-linejoin="round" stroke-miterlimit="4" stroke-opacity="1" fill="#933222" fill-rule="nonzero" fill-opacity="1"/><path d="M946.664 368.189 933.066 368.189" stroke="#3C4043" stroke-width="0.799885" stroke-linecap="round" stroke-linejoin="round" stroke-miterlimit="4" stroke-opacity="1" fill="none" fill-rule="nonzero"/><path d="M955.671 335.938C953.975 340.177 950.247 348.248 950.007 348.736 948.504 352.103 947.968 353.079 946.68 353.079L942.057 353.079C940.649 353.087 939.505 351.959 939.497 350.552 939.497 350.544 939.497 350.528 939.497 350.52L939.497 349.672C946.944 346.072 943.816 341.729 941.257 342.129 938.697 342.529 932.89 350.376 932.242 346.192 931.962 344.409 934.386 342.465 935.953 338.665 935.953 338.665 930.354 338.945 925.555 338.945 925.555 338.945 927.675 332.594 928.138 331.074 929.962 325.067 932.706 328.307 935.649 328.307 938.593 328.307 939.793 326.707 942.592 326.707 945.392 326.707 945.936 328.987 947.824 328.987 949.711 328.987 953.207 327.211 955.967 327.211 960.374 327.131 957.014 332.53 955.671 335.938Z" stroke="#3C4043" stroke-width="0.799885" stroke-linecap="butt" stroke-linejoin="miter" stroke-miterlimit="10" stroke-opacity="1" fill="#3C4043" fill-rule="nonzero" fill-opacity="1"/><path d="M924.611 338.665C924.611 338.665 926.779 332.074 927.259 330.475 929.194 324.075 932.114 327.539 935.258 327.539 938.401 327.539 939.665 325.795 942.648 325.795 945.632 325.795 946.2 328.195 948.2 328.195 950.199 328.195 953.119 326.683 956.055 326.683 960.758 326.683 957.99 332.026 956.566 335.65 954.759 340.161 950.799 348.736 950.543 349.248 948.944 352.823 948.368 353.871 947.008 353.871" stroke="#FFFFFF" stroke-width="0.847878" stroke-linecap="round" stroke-linejoin="round" stroke-miterlimit="4" stroke-opacity="1" fill="none" fill-rule="nonzero"/><path d="M949.167 368.149 930.826 368.149C930.306 376.54 919.108 368.229 910.277 383.411 905.718 391.282 894.279 421.005 894.279 421.005L862.684 416.598 855.053 426.869C855.053 426.869 874.458 435.163 890.88 441.451 899.527 444.77 906.878 437.403 906.878 437.403L911.181 471.798 962.454 471.798 963.157 441.443C972.972 438.875 967.157 440.755 972.972 438.875 981.099 435.275 979.747 430.996 978.675 428.06 975.972 418.83 972.444 403.544 972.444 403.544L968.565 391.586C968.565 391.586 967.901 389.786 965.885 384.515 961.878 374.02 949.208 375.7 949.167 368.149Z" fill="#D2E3FC" fill-rule="nonzero" fill-opacity="1"/><path d="M864.668 431.26C864.668 431.26 874.394 435.555 890.856 441.443 910.637 448.506 927.539 407.159 927.539 407.159" stroke="#3C4043" stroke-width="0.799885" stroke-linecap="round" stroke-linejoin="round" stroke-miterlimit="4" stroke-opacity="1" fill="none" fill-rule="nonzero"/><path d="M968.605 391.562C968.605 391.562 967.949 389.762 965.925 384.491 961.926 374.02 949.223 375.692 949.167 368.149L930.826 368.149C930.306 376.54 919.108 368.229 910.301 383.411" stroke="#3C4043" stroke-width="0.799885" stroke-linecap="round" stroke-linejoin="round" stroke-miterlimit="4" stroke-opacity="1" fill="none" fill-rule="nonzero"/><path d="M962.454 450.609 963.613 411.087" stroke="#3C4043" stroke-width="0.799885" stroke-linecap="round" stroke-linejoin="round" stroke-miterlimit="4" stroke-opacity="1" fill="none" fill-rule="nonzero"/><path d="M968.589 391.562C971.428 399.409 972.852 403.816 977.387 423.597" stroke="#3C4043" stroke-width="0.799885" stroke-linecap="round" stroke-linejoin="round" stroke-miterlimit="4" stroke-opacity="1" fill="none" fill-rule="nonzero"/><path d="M843.023 378.876 723.496 378.876 723.496 471.774 843.023 471.774 843.023 378.876Z" fill="#F1F3F4" fill-rule="nonzero" fill-opacity="1"/><path d="M837.872 409.943C838.751 410.239 839.695 410.519 840.119 410.687 841.719 411.303 849.51 416.166 843.399 414.766 840.831 414.055 838.328 413.159 835.888 412.087 828.585 409.039 825.281 409.743 830.425 414.086 835.568 418.43 834.528 423.141 844.823 424.181 851.518 424.637 849.23 424.477 855.821 425.821L862.028 417.454C855.461 416.87 844.207 406.856 837.64 407.479 837.224 407.519 836.808 407.583 836.4 407.663" fill="#933222" fill-rule="nonzero" fill-opacity="1"/><path d="M843.039 404.472 843.039 412.983C842.719 412.663 835.608 409.783 835.608 409.783L832.624 402.584 838.711 402.584 843.039 404.472Z" fill="#F1F3F4" fill-rule="nonzero" fill-opacity="1"/><path d="M911.317 471.758 856.869 637.63 881.345 637.63 933.57 511.448 944.984 637.63 973.78 637.63C973.78 637.63 968.813 539.972 966.189 515.024 963.565 490.076 974.188 487.34 962.63 471.734L911.317 471.758Z" fill="#FFFFFF" fill-rule="nonzero" fill-opacity="1"/><path d="M933.57 511.472 944.984 637.63 973.78 637.63C973.78 637.63 968.813 539.972 966.189 515.024 963.565 490.076 974.188 487.34 962.63 471.734" stroke="#3C4043" stroke-width="0.799885" stroke-linecap="round" stroke-linejoin="round" stroke-miterlimit="4" stroke-opacity="1" fill="#FFFFFF" fill-rule="nonzero" fill-opacity="1"/><path d="M911.317 471.758 856.869 637.63 881.345 637.63" stroke="#3C4043" stroke-width="0.799885" stroke-linecap="round" stroke-linejoin="round" stroke-miterlimit="4" stroke-opacity="1" fill="#FFFFFF" fill-rule="nonzero" fill-opacity="1"/><path d="M881.345 637.63 935.21 506.537C935.21 506.537 939.081 507.137 943.84 504.457" stroke="#3C4043" stroke-width="0.799885" stroke-linecap="round" stroke-linejoin="round" stroke-miterlimit="4" stroke-opacity="1" fill="none" fill-rule="nonzero"/><path d="M869.211 637.63 866.971 645.629 867.307 661.331 826.937 661.331C833.168 650.132 846.486 663.73 857.037 637.638L869.211 637.638Z" stroke="#3C4043" stroke-width="0.799885" stroke-linecap="round" stroke-linejoin="round" stroke-miterlimit="4" stroke-opacity="1" fill="#FFFFFF" fill-rule="nonzero" fill-opacity="1"/><path d="M868.971 637.63 855.173 641.75C855.941 640.454 856.557 639.07 857.013 637.63L868.971 637.63Z" stroke="#3C4043" stroke-width="0.799885" stroke-linecap="round" stroke-linejoin="round" stroke-miterlimit="4" stroke-opacity="1" fill="#3C4043" fill-rule="nonzero" fill-opacity="1"/><path d="M853.269 645.629 866.947 645.629" stroke="#3C4043" stroke-width="0.799885" stroke-linecap="round" stroke-linejoin="round" stroke-miterlimit="4" stroke-opacity="1" fill="none" fill-rule="nonzero"/><path d="M963.461 637.63 967.605 661.315 930.81 661.315C935.233 649.98 956.902 661.315 951.231 637.63L963.461 637.63Z" stroke="#3C4043" stroke-width="0.799885" stroke-linecap="round" stroke-linejoin="round" stroke-miterlimit="4" stroke-opacity="1" fill="#FFFFFF" fill-rule="nonzero" fill-opacity="1"/><path d="M1000.41 661.339 792.958 661.339" stroke="#3C4043" stroke-width="0.799885" stroke-linecap="round" stroke-linejoin="round" stroke-miterlimit="4" stroke-opacity="1" fill="none" fill-rule="nonzero"/><path d="M1000.58 662.427 793.126 662.427" stroke="#FFFFFF" stroke-width="0.847878" stroke-linecap="round" stroke-linejoin="round" stroke-miterlimit="4" stroke-opacity="1" fill="none" fill-rule="nonzero"/><path d="M964.853 645.805 952.399 645.805" stroke="#3C4043" stroke-width="0.799885" stroke-linecap="round" stroke-linejoin="round" stroke-miterlimit="4" stroke-opacity="1" fill="none" fill-rule="nonzero"/><path d="M963.253 637.63 951.975 641.75C951.831 640.358 951.567 638.974 951.175 637.63L963.253 637.63Z" stroke="#3C4043" stroke-width="0.799885" stroke-linecap="round" stroke-linejoin="round" stroke-miterlimit="4" stroke-opacity="1" fill="#3C4043" fill-rule="nonzero" fill-opacity="1"/><path d="M708.717 410.92C709.253 425.457 697.992 437.673 683.565 438.205 669.138 438.736 657.008 427.382 656.472 412.845 655.937 398.307 667.198 386.091 681.625 385.56 696.052 385.028 708.182 396.382 708.717 410.92Z" fill="#3CAF5D" fill-rule="nonzero" fill-opacity="1"/><path d="M669.528 412.015 694.668 412.015" stroke="#FFFFFF" stroke-width="0.799885" stroke-linecap="round" stroke-linejoin="round" stroke-miterlimit="4" stroke-opacity="1" fill="none" fill-rule="nonzero"/><path d="M682.102 399.441 682.102 424.581" stroke="#FFFFFF" stroke-width="0.799885" stroke-linecap="round" stroke-linejoin="round" stroke-miterlimit="4" stroke-opacity="1" fill="none" fill-rule="nonzero"/><path d="M708.717 410.92C709.253 425.457 697.992 437.673 683.565 438.205 669.138 438.736 657.008 427.382 656.472 412.845 655.937 398.307 667.198 386.091 681.625 385.56 696.052 385.028 708.182 396.382 708.717 410.92Z" stroke="#3B4043" stroke-width="0.799885" stroke-linecap="round" stroke-linejoin="round" stroke-miterlimit="4" stroke-opacity="1" fill="none" fill-rule="nonzero"/><path d="M818.274 398.001 741.485 398.001 741.485 449.193 818.274 449.193 818.274 398.001Z" stroke="#3D4043" stroke-width="0.799885" stroke-linecap="round" stroke-linejoin="round" stroke-miterlimit="4" stroke-opacity="1" fill="#FFFFFF" fill-rule="nonzero" fill-opacity="1"/><path d="M741.485 406.8 811.875 406.8" stroke="#3D4043" stroke-width="0.799885" stroke-linecap="round" stroke-linejoin="round" stroke-miterlimit="4" stroke-opacity="1" fill="none" fill-rule="nonzero"/><path d="M745.885 403.6C746.549 403.6 747.085 403.064 747.085 402.4 747.085 401.736 746.549 401.2 745.885 401.2 745.221 401.2 744.685 401.736 744.685 402.4 744.685 403.064 745.221 403.6 745.885 403.6L745.885 403.6Z" stroke="#3D4043" stroke-width="0.799885" stroke-linecap="round" stroke-linejoin="round" stroke-miterlimit="4" stroke-opacity="1" fill="none" fill-rule="nonzero"/><path d="M751.484 403.6C752.148 403.6 752.684 403.064 752.684 402.4 752.684 401.736 752.148 401.2 751.484 401.2 750.82 401.2 750.284 401.736 750.284 402.4 750.284 403.064 750.82 403.6 751.484 403.6L751.484 403.6Z" stroke="#3D4043" stroke-width="0.799885" stroke-linecap="round" stroke-linejoin="round" stroke-miterlimit="4" stroke-opacity="1" fill="none" fill-rule="nonzero"/><path d="M770.281 433.996 805.476 433.996" stroke="#3D4043" stroke-width="0.799885" stroke-linecap="round" stroke-linejoin="round" stroke-miterlimit="4" stroke-opacity="1" fill="none" fill-rule="nonzero"/><path d="M763.882 433.996 754.284 433.996 754.284 440.395 763.882 440.395 763.882 433.996Z" stroke="#D4E2F9" stroke-width="0.799885" stroke-linecap="round" stroke-linejoin="round" stroke-miterlimit="4" stroke-opacity="1" fill="#D2E3FC" fill-rule="nonzero" fill-opacity="1"/><path d="M770.281 440.395 805.476 440.395" stroke="#3D4043" stroke-width="0.799885" stroke-linecap="round" stroke-linejoin="round" stroke-miterlimit="4" stroke-opacity="1" fill="none" fill-rule="nonzero"/><path d="M754.284 419.598C754.284 416.062 757.147 413.199 760.683 413.199L799.077 413.199C802.613 413.199 805.476 416.07 805.468 419.606 805.468 423.133 802.605 425.989 799.077 425.997L760.683 425.997C757.147 425.997 754.284 423.133 754.284 419.598Z" stroke="#D4E2F9" stroke-width="0.799885" stroke-linecap="round" stroke-linejoin="round" stroke-miterlimit="4" stroke-opacity="1" fill="#D2E3FC" fill-rule="nonzero" fill-opacity="1"/><path d="M798.573 421.285 800.173 422.797" stroke="#3D4043" stroke-width="0.799885" stroke-linecap="round" stroke-linejoin="round" stroke-miterlimit="4" stroke-opacity="1" fill="none" fill-rule="nonzero"/><path d="M796.302 421.997C797.845 421.981 799.093 420.718 799.077 419.174 799.061 417.63 797.797 416.382 796.254 416.398 794.718 416.414 793.478 417.662 793.478 419.198 793.478 420.75 794.742 422.005 796.294 421.997L796.302 421.997Z" stroke="#3D4043" stroke-width="0.799885" stroke-linecap="round" stroke-linejoin="round" stroke-miterlimit="4" stroke-opacity="1" fill="none" fill-rule="nonzero"/></g></g></g></g></g></svg>