<svg width="615" height="377" xmlns="http://www.w3.org/2000/svg" xmlns:xlink="http://www.w3.org/1999/xlink" xml:space="preserve" overflow="hidden"><g transform="translate(-297 -248)"><g><g><g><g><path d="M75.6248 60.2996 601.146 60.2996 601.146 374.237 75.6248 374.237Z" fill="#F8F9FA" fill-rule="nonzero" fill-opacity="1" transform="matrix(1 0 0 1.00031 298.75 249)"/><path d="M12.9492 19.7378 12.9492 18.6516 26.0003 18.6516 26.0003 19.7378 12.9492 19.7378ZM12.9492 15.9362 12.9492 14.85 26.0003 14.85 26.0003 15.9362 12.9492 15.9362ZM12.9492 12.1346 12.9492 11.0484 26.0003 11.0484 26.0003 12.1346 12.9492 12.1346Z" fill="#BDC1C6" fill-rule="nonzero" fill-opacity="1" transform="matrix(1 0 0 1.00031 298.75 249)"/><path d="M599.092 15.3931C599.092 20.3608 595.065 24.388 590.097 24.388 585.13 24.388 581.102 20.3608 581.102 15.3931 581.102 10.4254 585.13 6.39824 590.097 6.39824 595.065 6.39824 599.092 10.4254 599.092 15.3931Z" fill="#E8EAED" fill-rule="nonzero" fill-opacity="1" transform="matrix(1 0 0 1.00031 298.75 249)"/><path d="M446.213 15.3931C446.213 20.3608 442.186 24.388 437.219 24.388 432.251 24.388 428.224 20.3608 428.224 15.3931 428.224 10.4254 432.251 6.39824 437.219 6.39824 442.186 6.39824 446.213 10.4254 446.213 15.3931Z" fill="#E8EAED" fill-rule="nonzero" fill-opacity="1" transform="matrix(1 0 0 1.00031 298.75 249)"/><path d="M414.629 7.14498C418.032 7.14498 420.79 9.90319 420.79 13.3056L420.79 17.0563C420.79 20.4587 418.032 23.2169 414.629 23.2169L163.384 23.2169C159.982 23.2169 157.223 20.4587 157.223 17.0563L157.223 13.3056C157.223 9.90319 159.982 7.14498 163.384 7.14498Z" stroke="#E8EAED" stroke-width="1.27286" stroke-linecap="butt" stroke-linejoin="miter" stroke-miterlimit="10" stroke-opacity="1" fill="#FFFFFF" fill-rule="nonzero" fill-opacity="1" transform="matrix(1 0 0 1.00031 298.75 249)"/><path d="M394.569 6.89041 414.443 6.89041C417.837 6.89041 420.603 9.65675 420.603 13.051L420.603 16.8187C420.603 20.213 417.837 22.9793 414.443 22.9793L394.569 22.9793 394.569 6.89041Z" fill="#E8EAED" fill-rule="nonzero" fill-opacity="1" transform="matrix(1 0 0 1.00031 298.75 249)"/><path d="M1.83292 30.2431 68.1234 30.2431 68.1234 39.0174 1.83292 39.0174Z" fill="#F8F9FA" fill-rule="nonzero" fill-opacity="1" transform="matrix(1 0 0 1.00031 298.75 249)"/><path d="M20.5694 34.8084C20.5694 36.6737 19.0573 38.1858 17.1921 38.1858 15.3268 38.1858 13.8148 36.6737 13.8148 34.8084 13.8148 32.9432 15.3268 31.4311 17.1921 31.4311 19.0573 31.4311 20.5694 32.9432 20.5694 34.8084Z" fill="#E8EAED" fill-rule="nonzero" fill-opacity="1" transform="matrix(1 0 0 1.00031 298.75 249)"/><path d="M32.7888 32.1439 53.477 32.1439C54.9536 32.1439 56.1416 33.3319 56.1416 34.8084 56.1416 36.285 54.9536 37.473 53.477 37.473L32.7888 37.473C31.3123 37.473 30.1243 36.285 30.1243 34.8084 30.1243 33.3319 31.3123 32.1439 32.7888 32.1439Z" fill="#E8EAED" fill-rule="nonzero" fill-opacity="1" transform="matrix(1 0 0 1.00031 298.75 249)"/><path d="M20.5694 48.148C20.5694 50.0132 19.0573 51.5253 17.1921 51.5253 15.3268 51.5253 13.8148 50.0132 13.8148 48.148 13.8148 46.2828 15.3268 44.7707 17.1921 44.7707 19.0573 44.7707 20.5694 46.2828 20.5694 48.148Z" fill="#E8EAED" fill-rule="nonzero" fill-opacity="1" transform="matrix(1 0 0 1.00031 298.75 249)"/><path d="M32.7888 45.4835 53.477 45.4835C54.9536 45.4835 56.1416 46.6715 56.1416 48.148 56.1416 49.6245 54.9536 50.8125 53.477 50.8125L32.7888 50.8125C31.3123 50.8125 30.1243 49.6245 30.1243 48.148 30.1243 46.6715 31.3123 45.4835 32.7888 45.4835Z" fill="#E8EAED" fill-rule="nonzero" fill-opacity="1" transform="matrix(1 0 0 1.00031 298.75 249)"/><path d="M20.5694 61.4706C20.5694 63.3358 19.0573 64.8479 17.1921 64.8479 15.3268 64.8479 13.8148 63.3358 13.8148 61.4706 13.8148 59.6054 15.3268 58.0933 17.1921 58.0933 19.0573 58.0933 20.5694 59.6053 20.5694 61.4706Z" fill="#E8EAED" fill-rule="nonzero" fill-opacity="1" transform="matrix(1 0 0 1.00031 298.75 249)"/><path d="M32.7888 58.823 53.477 58.823C54.9536 58.823 56.1416 60.011 56.1416 61.4876 56.1416 62.9641 54.9536 64.1521 53.477 64.1521L32.7888 64.1521C31.3123 64.1521 30.1243 62.9641 30.1243 61.4876 30.1243 60.011 31.3123 58.823 32.7888 58.823Z" fill="#E8EAED" fill-rule="nonzero" fill-opacity="1" transform="matrix(1 0 0 1.00031 298.75 249)"/><path d="M20.5694 74.8102C20.5694 76.6754 19.0573 78.1875 17.1921 78.1875 15.3268 78.1875 13.8148 76.6754 13.8148 74.8102 13.8148 72.9449 15.3268 71.4328 17.1921 71.4328 19.0573 71.4328 20.5694 72.9449 20.5694 74.8102Z" fill="#E8EAED" fill-rule="nonzero" fill-opacity="1" transform="matrix(1 0 0 1.00031 298.75 249)"/><path d="M32.7888 72.1456 53.477 72.1456C54.9536 72.1456 56.1416 73.3336 56.1416 74.8102 56.1416 76.2867 54.9536 77.4747 53.477 77.4747L32.7888 77.4747C31.3123 77.4747 30.1243 76.2867 30.1243 74.8102 30.1243 73.3336 31.3123 72.1456 32.7888 72.1456Z" fill="#E8EAED" fill-rule="nonzero" fill-opacity="1" transform="matrix(1 0 0 1.00031 298.75 249)"/><path d="M20.5694 97.7216C20.5694 99.5868 19.0573 101.099 17.1921 101.099 15.3268 101.099 13.8148 99.5868 13.8148 97.7216 13.8148 95.8564 15.3268 94.3443 17.1921 94.3443 19.0573 94.3443 20.5694 95.8564 20.5694 97.7216Z" fill="#E8EAED" fill-rule="nonzero" fill-opacity="1" transform="matrix(1 0 0 1.00031 298.75 249)"/><path d="M32.7888 95.0571 53.477 95.0571C54.9536 95.0571 56.1416 96.2451 56.1416 97.7216 56.1416 99.1981 54.9536 100.386 53.477 100.386L32.7888 100.386C31.3123 100.386 30.1243 99.1981 30.1243 97.7216 30.1243 96.2451 31.3123 95.0571 32.7888 95.0571Z" fill="#E8EAED" fill-rule="nonzero" fill-opacity="1" transform="matrix(1 0 0 1.00031 298.75 249)"/><path d="M20.5694 113.743C20.5694 115.608 19.0573 117.12 17.1921 117.12 15.3268 117.12 13.8148 115.608 13.8148 113.743 13.8148 111.877 15.3268 110.365 17.1921 110.365 19.0573 110.365 20.5694 111.877 20.5694 113.743Z" fill="#E8EAED" fill-rule="nonzero" fill-opacity="1" transform="matrix(1 0 0 1.00031 298.75 249)"/><path d="M32.7888 111.078 53.477 111.078C54.9536 111.078 56.1416 112.266 56.1416 113.743 56.1416 115.219 54.9536 116.407 53.477 116.407L32.7888 116.407C31.3123 116.407 30.1243 115.219 30.1243 113.743 30.1243 112.266 31.3123 111.078 32.7888 111.078Z" fill="#E8EAED" fill-rule="nonzero" fill-opacity="1" transform="matrix(1 0 0 1.00031 298.75 249)"/><path d="M20.5694 129.781C20.5694 131.646 19.0573 133.158 17.1921 133.158 15.3268 133.158 13.8148 131.646 13.8148 129.781 13.8148 127.915 15.3268 126.403 17.1921 126.403 19.0573 126.403 20.5694 127.915 20.5694 129.781Z" fill="#E8EAED" fill-rule="nonzero" fill-opacity="1" transform="matrix(1 0 0 1.00031 298.75 249)"/><path d="M32.7888 127.116 53.477 127.116C54.9536 127.116 56.1416 128.304 56.1416 129.781 56.1416 131.257 54.9536 132.445 53.477 132.445L32.7888 132.445C31.3123 132.445 30.1243 131.257 30.1243 129.781 30.1243 128.304 31.3123 127.116 32.7888 127.116Z" fill="#E8EAED" fill-rule="nonzero" fill-opacity="1" transform="matrix(1 0 0 1.00031 298.75 249)"/><path d="M20.5694 145.802C20.5694 147.667 19.0573 149.179 17.1921 149.179 15.3268 149.179 13.8148 147.667 13.8148 145.802 13.8148 143.936 15.3268 142.424 17.1921 142.424 19.0573 142.424 20.5694 143.936 20.5694 145.802Z" fill="#E8EAED" fill-rule="nonzero" fill-opacity="1" transform="matrix(1 0 0 1.00031 298.75 249)"/><path d="M32.7888 143.137 53.477 143.137C54.9536 143.137 56.1416 144.325 56.1416 145.802 56.1416 147.278 54.9536 148.466 53.477 148.466L32.7888 148.466C31.3123 148.466 30.1243 147.278 30.1243 145.802 30.1243 144.325 31.3123 143.137 32.7888 143.137Z" fill="#E8EAED" fill-rule="nonzero" fill-opacity="1" transform="matrix(1 0 0 1.00031 298.75 249)"/><path d="M20.5694 161.823C20.5694 163.688 19.0573 165.2 17.1921 165.2 15.3268 165.2 13.8148 163.688 13.8148 161.823 13.8148 159.958 15.3268 158.445 17.1921 158.445 19.0573 158.445 20.5694 159.958 20.5694 161.823Z" fill="#E8EAED" fill-rule="nonzero" fill-opacity="1" transform="matrix(1 0 0 1.00031 298.75 249)"/><path d="M32.7888 159.175 53.477 159.175C54.9536 159.175 56.1416 160.363 56.1416 161.84 56.1416 163.316 54.9536 164.504 53.477 164.504L32.7888 164.504C31.3123 164.504 30.1243 163.316 30.1243 161.84 30.1243 160.363 31.3123 159.175 32.7888 159.175Z" fill="#E8EAED" fill-rule="nonzero" fill-opacity="1" transform="matrix(1 0 0 1.00031 298.75 249)"/><path d="M20.5694 177.861C20.5694 179.726 19.0573 181.238 17.1921 181.238 15.3268 181.238 13.8148 179.726 13.8148 177.861 13.8148 175.996 15.3268 174.483 17.1921 174.483 19.0573 174.483 20.5694 175.996 20.5694 177.861Z" fill="#E8EAED" fill-rule="nonzero" fill-opacity="1" transform="matrix(1 0 0 1.00031 298.75 249)"/><path d="M32.7888 175.196 53.477 175.196C54.9536 175.196 56.1416 176.384 56.1416 177.861 56.1416 179.337 54.9536 180.525 53.477 180.525L32.7888 180.525C31.3123 180.525 30.1243 179.337 30.1243 177.861 30.1243 176.384 31.3123 175.196 32.7888 175.196Z" fill="#E8EAED" fill-rule="nonzero" fill-opacity="1" transform="matrix(1 0 0 1.00031 298.75 249)"/><path d="M20.5694 199.72C20.5694 201.585 19.0573 203.097 17.1921 203.097 15.3268 203.097 13.8148 201.585 13.8148 199.72 13.8148 197.855 15.3268 196.343 17.1921 196.343 19.0573 196.343 20.5694 197.855 20.5694 199.72Z" fill="#E8EAED" fill-rule="nonzero" fill-opacity="1" transform="matrix(1 0 0 1.00031 298.75 249)"/><path d="M32.7888 197.055 53.477 197.055C54.9536 197.055 56.1416 198.243 56.1416 199.72 56.1416 201.197 54.9536 202.385 53.477 202.385L32.7888 202.385C31.3123 202.385 30.1243 201.197 30.1243 199.72 30.1243 198.243 31.3123 197.055 32.7888 197.055Z" fill="#E8EAED" fill-rule="nonzero" fill-opacity="1" transform="matrix(1 0 0 1.00031 298.75 249)"/><path d="M20.5694 214.298C20.5694 216.164 19.0573 217.676 17.1921 217.676 15.3268 217.676 13.8148 216.164 13.8148 214.298 13.8148 212.433 15.3268 210.921 17.1921 210.921 19.0573 210.921 20.5694 212.433 20.5694 214.298Z" fill="#E8EAED" fill-rule="nonzero" fill-opacity="1" transform="matrix(1 0 0 1.00031 298.75 249)"/><path d="M32.7888 211.634 53.477 211.634C54.9536 211.634 56.1416 212.822 56.1416 214.298 56.1416 215.775 54.9536 216.963 53.477 216.963L32.7888 216.963C31.3123 216.963 30.1243 215.775 30.1243 214.298 30.1243 212.822 31.3123 211.634 32.7888 211.634Z" fill="#E8EAED" fill-rule="nonzero" fill-opacity="1" transform="matrix(1 0 0 1.00031 298.75 249)"/><path d="M20.5694 228.86C20.5694 230.725 19.0573 232.237 17.1921 232.237 15.3268 232.237 13.8148 230.725 13.8148 228.86 13.8148 226.995 15.3268 225.483 17.1921 225.483 19.0573 225.483 20.5694 226.995 20.5694 228.86Z" fill="#E8EAED" fill-rule="nonzero" fill-opacity="1" transform="matrix(1 0 0 1.00031 298.75 249)"/><path d="M32.7888 226.195 53.477 226.195C54.9536 226.195 56.1416 227.383 56.1416 228.86 56.1416 230.337 54.9536 231.525 53.477 231.525L32.7888 231.525C31.3123 231.525 30.1243 230.337 30.1243 228.86 30.1243 227.383 31.3123 226.195 32.7888 226.195Z" fill="#E8EAED" fill-rule="nonzero" fill-opacity="1" transform="matrix(1 0 0 1.00031 298.75 249)"/><path d="M20.5694 243.438C20.5694 245.304 19.0573 246.816 17.1921 246.816 15.3268 246.816 13.8148 245.304 13.8148 243.438 13.8148 241.573 15.3268 240.061 17.1921 240.061 19.0573 240.061 20.5694 241.573 20.5694 243.438Z" fill="#E8EAED" fill-rule="nonzero" fill-opacity="1" transform="matrix(1 0 0 1.00031 298.75 249)"/><path d="M32.7888 240.774 53.477 240.774C54.9536 240.774 56.1416 241.962 56.1416 243.438 56.1416 244.915 54.9536 246.103 53.477 246.103L32.7888 246.103C31.3123 246.103 30.1243 244.915 30.1243 243.438 30.1243 241.962 31.3123 240.774 32.7888 240.774Z" fill="#E8EAED" fill-rule="nonzero" fill-opacity="1" transform="matrix(1 0 0 1.00031 298.75 249)"/><path d="M20.5694 258C20.5694 259.865 19.0573 261.377 17.1921 261.377 15.3268 261.377 13.8148 259.865 13.8148 258 13.8148 256.135 15.3268 254.623 17.1921 254.623 19.0573 254.623 20.5694 256.135 20.5694 258Z" fill="#E8EAED" fill-rule="nonzero" fill-opacity="1" transform="matrix(1 0 0 1.00031 298.75 249)"/><path d="M32.7888 255.352 53.477 255.352C54.9536 255.352 56.1416 256.54 56.1416 258.017 56.1416 259.493 54.9536 260.681 53.477 260.681L32.7888 260.681C31.3123 260.681 30.1243 259.493 30.1243 258.017 30.1243 256.54 31.3123 255.352 32.7888 255.352Z" fill="#E8EAED" fill-rule="nonzero" fill-opacity="1" transform="matrix(1 0 0 1.00031 298.75 249)"/><path d="M20.5694 272.578C20.5694 274.444 19.0573 275.956 17.1921 275.956 15.3268 275.956 13.8148 274.444 13.8148 272.578 13.8148 270.713 15.3268 269.201 17.1921 269.201 19.0573 269.201 20.5694 270.713 20.5694 272.578Z" fill="#E8EAED" fill-rule="nonzero" fill-opacity="1" transform="matrix(1 0 0 1.00031 298.75 249)"/><path d="M32.7888 269.914 53.477 269.914C54.9536 269.914 56.1416 271.102 56.1416 272.578 56.1416 274.055 54.9536 275.243 53.477 275.243L32.7888 275.243C31.3123 275.243 30.1243 274.055 30.1243 272.578 30.1243 271.102 31.3123 269.914 32.7888 269.914Z" fill="#E8EAED" fill-rule="nonzero" fill-opacity="1" transform="matrix(1 0 0 1.00031 298.75 249)"/><path d="M20.5694 287.157C20.5694 289.022 19.0573 290.534 17.1921 290.534 15.3268 290.534 13.8148 289.022 13.8148 287.157 13.8148 285.292 15.3268 283.78 17.1921 283.78 19.0573 283.78 20.5694 285.292 20.5694 287.157Z" fill="#E8EAED" fill-rule="nonzero" fill-opacity="1" transform="matrix(1 0 0 1.00031 298.75 249)"/><path d="M32.7888 284.492 53.477 284.492C54.9536 284.492 56.1416 285.68 56.1416 287.157 56.1416 288.633 54.9536 289.821 53.477 289.821L32.7888 289.821C31.3123 289.821 30.1243 288.633 30.1243 287.157 30.1243 285.68 31.3123 284.492 32.7888 284.492Z" fill="#E8EAED" fill-rule="nonzero" fill-opacity="1" transform="matrix(1 0 0 1.00031 298.75 249)"/><path d="M20.5694 306.929C20.5694 308.794 19.0573 310.306 17.1921 310.306 15.3268 310.306 13.8148 308.794 13.8148 306.929 13.8148 305.063 15.3268 303.551 17.1921 303.551 19.0573 303.551 20.5694 305.063 20.5694 306.929Z" fill="#E8EAED" fill-rule="nonzero" fill-opacity="1" transform="matrix(1 0 0 1.00031 298.75 249)"/><path d="M32.7888 304.264 53.477 304.264C54.9536 304.264 56.1416 305.452 56.1416 306.929 56.1416 308.405 54.9536 309.593 53.477 309.593L32.7888 309.593C31.3123 309.593 30.1243 308.405 30.1243 306.929 30.1243 305.452 31.3123 304.264 32.7888 304.264Z" fill="#E8EAED" fill-rule="nonzero" fill-opacity="1" transform="matrix(1 0 0 1.00031 298.75 249)"/><path d="M20.5694 318.639C20.5694 320.504 19.0573 322.016 17.1921 322.016 15.3268 322.016 13.8148 320.504 13.8148 318.639 13.8148 316.774 15.3268 315.262 17.1921 315.262 19.0573 315.262 20.5694 316.774 20.5694 318.639Z" fill="#E8EAED" fill-rule="nonzero" fill-opacity="1" transform="matrix(1 0 0 1.00031 298.75 249)"/><path d="M32.7888 315.974 53.477 315.974C54.9536 315.974 56.1416 317.162 56.1416 318.639 56.1416 320.115 54.9536 321.303 53.477 321.303L32.7888 321.303C31.3123 321.303 30.1243 320.115 30.1243 318.639 30.1243 317.162 31.3123 315.974 32.7888 315.974Z" fill="#E8EAED" fill-rule="nonzero" fill-opacity="1" transform="matrix(1 0 0 1.00031 298.75 249)"/><path d="M20.5694 330.349C20.5694 332.214 19.0573 333.727 17.1921 333.727 15.3268 333.727 13.8148 332.214 13.8148 330.349 13.8148 328.484 15.3268 326.972 17.1921 326.972 19.0573 326.972 20.5694 328.484 20.5694 330.349Z" fill="#E8EAED" fill-rule="nonzero" fill-opacity="1" transform="matrix(1 0 0 1.00031 298.75 249)"/><path d="M32.7888 327.685 53.477 327.685C54.9536 327.685 56.1416 328.873 56.1416 330.349 56.1416 331.826 54.9536 333.014 53.477 333.014L32.7888 333.014C31.3123 333.014 30.1243 331.826 30.1243 330.349 30.1243 328.873 31.3123 327.685 32.7888 327.685Z" fill="#E8EAED" fill-rule="nonzero" fill-opacity="1" transform="matrix(1 0 0 1.00031 298.75 249)"/><path d="M20.5694 342.06C20.5694 343.925 19.0573 345.437 17.1921 345.437 15.3268 345.437 13.8148 343.925 13.8148 342.06 13.8148 340.194 15.3268 338.682 17.1921 338.682 19.0573 338.682 20.5694 340.194 20.5694 342.06Z" fill="#E8EAED" fill-rule="nonzero" fill-opacity="1" transform="matrix(1 0 0 1.00031 298.75 249)"/><path d="M32.7888 339.395 53.477 339.395C54.9536 339.395 56.1416 340.583 56.1416 342.06 56.1416 343.536 54.9536 344.724 53.477 344.724L32.7888 344.724C31.3123 344.724 30.1243 343.536 30.1243 342.06 30.1243 340.583 31.3123 339.395 32.7888 339.395Z" fill="#E8EAED" fill-rule="nonzero" fill-opacity="1" transform="matrix(1 0 0 1.00031 298.75 249)"/><path d="M20.5694 353.77C20.5694 355.635 19.0573 357.147 17.1921 357.147 15.3268 357.147 13.8148 355.635 13.8148 353.77 13.8148 351.905 15.3268 350.393 17.1921 350.393 19.0573 350.393 20.5694 351.905 20.5694 353.77Z" fill="#E8EAED" fill-rule="nonzero" fill-opacity="1" transform="matrix(1 0 0 1.00031 298.75 249)"/><path d="M32.7888 351.105 53.477 351.105C54.9536 351.105 56.1416 352.293 56.1416 353.77 56.1416 355.246 54.9536 356.434 53.477 356.434L32.7888 356.434C31.3123 356.434 30.1243 355.246 30.1243 353.77 30.1243 352.293 31.3123 351.105 32.7888 351.105Z" fill="#E8EAED" fill-rule="nonzero" fill-opacity="1" transform="matrix(1 0 0 1.00031 298.75 249)"/><path d="M1.27286 296.406 67.156 296.406" stroke="#F8F9FA" stroke-width="1.69714" stroke-linecap="butt" stroke-linejoin="miter" stroke-miterlimit="10" stroke-opacity="1" fill="none" fill-rule="nonzero" transform="matrix(1 0 0 1.00031 298.75 249)"/><path d="M1.27286 188.723 67.156 188.723" stroke="#F8F9FA" stroke-width="1.69714" stroke-linecap="butt" stroke-linejoin="miter" stroke-miterlimit="10" stroke-opacity="1" fill="none" fill-rule="nonzero" transform="matrix(1 0 0 1.00031 298.75 249)"/><path d="M1.27286 86.6902 67.156 86.6902" stroke="#F8F9FA" stroke-width="1.69714" stroke-linecap="butt" stroke-linejoin="miter" stroke-miterlimit="10" stroke-opacity="1" fill="none" fill-rule="nonzero" transform="matrix(1 0 0 1.00031 298.75 249)"/><path d="M68.1234 31.0578 611.142 31.0578" stroke="#F8F9FA" stroke-width="1.69714" stroke-linecap="butt" stroke-linejoin="miter" stroke-miterlimit="10" stroke-opacity="1" fill="none" fill-rule="nonzero" transform="matrix(1 0 0 1.00031 298.75 249)"/><path d="M599.143 0.848572C606.051 0.848572 611.651 6.44858 611.651 13.3565L611.651 362.527C611.651 369.435 606.051 375.035 599.143 375.035L13.3565 375.035C6.44857 375.035 0.848571 369.435 0.848571 362.527L0.848571 13.3565C0.848571 6.44858 6.44857 0.848574 13.3565 0.848574Z" stroke="#5F6368" stroke-width="1.69714" stroke-linecap="butt" stroke-linejoin="miter" stroke-miterlimit="10" stroke-opacity="1" fill="none" fill-rule="nonzero" transform="matrix(1 0 0 1.00031 298.75 249)"/><path d="M114.54 143.001 245.39 143.001 245.39 211.074 114.54 211.074Z" fill="#F1F3F4" fill-rule="nonzero" fill-opacity="1" transform="matrix(1 0 0 1.00031 298.75 249)"/><path d="M114.54 217.862 245.39 217.862 245.39 285.935 114.54 285.935Z" fill="#F1F3F4" fill-rule="nonzero" fill-opacity="1" transform="matrix(1 0 0 1.00031 298.75 249)"/><path d="M114.54 292.724 245.39 292.724 245.39 360.796 114.54 360.796Z" fill="#F1F3F4" fill-rule="nonzero" fill-opacity="1" transform="matrix(1 0 0 1.00031 298.75 249)"/><path d="M267.945 153.066 318.316 153.066 318.316 159.498 267.945 159.498Z" fill="#E8EAED" fill-rule="nonzero" fill-opacity="1" transform="matrix(1 0 0 1.00031 298.75 249)"/><path d="M267.945 166.456 380.89 166.456 380.89 172.888 267.945 172.888Z" fill="#E8EAED" fill-rule="nonzero" fill-opacity="1" transform="matrix(1 0 0 1.00031 298.75 249)"/><path d="M267.945 179.863 501.54 179.863 501.54 186.296 267.945 186.296Z" fill="#E8EAED" fill-rule="nonzero" fill-opacity="1" transform="matrix(1 0 0 1.00031 298.75 249)"/><path d="M267.945 193.254 501.54 193.254 501.54 199.686 267.945 199.686Z" fill="#E8EAED" fill-rule="nonzero" fill-opacity="1" transform="matrix(1 0 0 1.00031 298.75 249)"/><path d="M267.945 226.314 318.316 226.314 318.316 232.746 267.945 232.746Z" fill="#E8EAED" fill-rule="nonzero" fill-opacity="1" transform="matrix(1 0 0 1.00031 298.75 249)"/><path d="M267.945 239.705 380.89 239.705 380.89 246.137 267.945 246.137Z" fill="#E8EAED" fill-rule="nonzero" fill-opacity="1" transform="matrix(1 0 0 1.00031 298.75 249)"/><path d="M267.945 253.112 501.54 253.112 501.54 259.544 267.945 259.544Z" fill="#E8EAED" fill-rule="nonzero" fill-opacity="1" transform="matrix(1 0 0 1.00031 298.75 249)"/><path d="M267.945 266.503 501.54 266.503 501.54 272.935 267.945 272.935Z" fill="#E8EAED" fill-rule="nonzero" fill-opacity="1" transform="matrix(1 0 0 1.00031 298.75 249)"/><path d="M100.861 64.9328 549.637 64.9328 549.637 134.38 100.861 134.38Z" fill="#FEEFC3" fill-rule="nonzero" fill-opacity="1" transform="matrix(1 0 0 1.00031 298.75 249)"/><path d="M549.637 131.41 549.637 134.38 544.614 134.38" stroke="#3B4043" stroke-width="1.69714" stroke-linecap="round" stroke-linejoin="round" stroke-miterlimit="4" stroke-opacity="1" fill="none" fill-rule="nonzero" transform="matrix(1 0 0 1.00031 298.75 249)"/><path d="M539.624 134.38 108.397 134.38" stroke="#3B4043" stroke-width="1.69714" stroke-linecap="round" stroke-linejoin="round" stroke-miterlimit="4" stroke-dasharray="0 0 7.67109 3.83555" stroke-opacity="1" fill="none" fill-rule="nonzero" transform="matrix(1 0 0 1.00031 298.75 249)"/><path d="M105.902 134.38 100.861 134.38 100.861 131.41" stroke="#3B4043" stroke-width="1.69714" stroke-linecap="round" stroke-linejoin="round" stroke-miterlimit="4" stroke-opacity="1" fill="none" fill-rule="nonzero" transform="matrix(1 0 0 1.00031 298.75 249)"/><path d="M100.861 128.525 100.861 69.3453" stroke="#3B4043" stroke-width="1.69714" stroke-linecap="round" stroke-linejoin="round" stroke-miterlimit="4" stroke-dasharray="0 0 7.51835 3.75069" stroke-opacity="1" fill="none" fill-rule="nonzero" transform="matrix(1 0 0 1.00031 298.75 249)"/><path d="M100.861 67.9028 100.861 64.9328 105.902 64.9328" stroke="#3B4043" stroke-width="1.69714" stroke-linecap="round" stroke-linejoin="round" stroke-miterlimit="4" stroke-opacity="1" fill="none" fill-rule="nonzero" transform="matrix(1 0 0 1.00031 298.75 249)"/><path d="M110.874 64.9328 542.119 64.9328" stroke="#3B4043" stroke-width="1.69714" stroke-linecap="round" stroke-linejoin="round" stroke-miterlimit="4" stroke-dasharray="0 0 7.67109 3.83555" stroke-opacity="1" fill="none" fill-rule="nonzero" transform="matrix(1 0 0 1.00031 298.75 249)"/><path d="M544.614 64.9328 549.637 64.9328 549.637 67.9028" stroke="#3B4043" stroke-width="1.69714" stroke-linecap="round" stroke-linejoin="round" stroke-miterlimit="4" stroke-opacity="1" fill="none" fill-rule="nonzero" transform="matrix(1 0 0 1.00031 298.75 249)"/><path d="M549.637 70.7879 549.637 129.967" stroke="#3B4043" stroke-width="1.69714" stroke-linecap="round" stroke-linejoin="round" stroke-miterlimit="4" stroke-dasharray="0 0 7.51835 3.75069" stroke-opacity="1" fill="none" fill-rule="nonzero" transform="matrix(1 0 0 1.00031 298.75 249)"/><path d="M267.945 301.99 318.316 301.99 318.316 308.422 267.945 308.422Z" fill="#E8EAED" fill-rule="nonzero" fill-opacity="1" transform="matrix(1 0 0 1.00031 298.75 249)"/><path d="M267.945 315.38 380.89 315.38 380.89 321.813 267.945 321.813Z" fill="#E8EAED" fill-rule="nonzero" fill-opacity="1" transform="matrix(1 0 0 1.00031 298.75 249)"/><path d="M267.945 328.771 501.54 328.771 501.54 335.203 267.945 335.203Z" fill="#E8EAED" fill-rule="nonzero" fill-opacity="1" transform="matrix(1 0 0 1.00031 298.75 249)"/><path d="M267.945 342.178 501.54 342.178 501.54 348.611 267.945 348.611Z" fill="#E8EAED" fill-rule="nonzero" fill-opacity="1" transform="matrix(1 0 0 1.00031 298.75 249)"/><path d="M116.034 97.6707 497.179 98.061" stroke="#9AA0A6" stroke-width="2.83423" stroke-linecap="round" stroke-linejoin="miter" stroke-miterlimit="10" stroke-opacity="0.7" fill="none" fill-rule="nonzero" transform="matrix(1 0 0 1.00031 298.75 249)"/><path d="M116.187 82.1248 263.397 82.2776" stroke="#9AA0A6" stroke-width="2.93606" stroke-linecap="round" stroke-linejoin="miter" stroke-miterlimit="10" stroke-opacity="0.7" fill="none" fill-rule="nonzero" transform="matrix(1 0 0 1.00031 298.75 249)"/><path d="M151.623 113.335 198.651 113.403" stroke="#9AA0A6" stroke-width="2.20629" stroke-linecap="round" stroke-linejoin="miter" stroke-miterlimit="10" stroke-opacity="0.7" fill="none" fill-rule="nonzero" transform="matrix(1 0 0 1.00031 298.75 249)"/><path d="M115.457 51.135 531.715 51.135" stroke="#F1F3F4" stroke-width="1.69714" stroke-linecap="butt" stroke-linejoin="miter" stroke-miterlimit="10" stroke-opacity="1" fill="none" fill-rule="nonzero" transform="matrix(1 0 0 1.00031 298.75 249)"/><path d="M119.666 39.7811 127.456 39.7811 127.456 47.7916 119.666 47.7916Z" fill="#F1F3F4" fill-rule="nonzero" fill-opacity="1" transform="matrix(1 0 0 1.00031 298.75 249)"/><path d="M139.42 40.6806 148.483 40.6806C150.197 40.6806 151.572 42.0722 151.572 43.7694 151.572 45.4835 150.18 46.8582 148.483 46.8582L139.42 46.8582C137.706 46.8582 136.332 45.4665 136.332 43.7694 136.332 42.0553 137.723 40.6806 139.42 40.6806Z" fill="#F1F3F4" fill-rule="nonzero" fill-opacity="1" transform="matrix(1 0 0 1.00031 298.75 249)"/><path d="M527.71 72.8415C527.71 73.282 527.353 73.6391 526.913 73.6391 526.472 73.6391 526.115 73.282 526.115 72.8415 526.115 72.4009 526.472 72.0438 526.913 72.0438 527.353 72.0438 527.71 72.4009 527.71 72.8415Z" fill="#9AA0A6" fill-rule="nonzero" fill-opacity="1" transform="matrix(1 0 0 1.00031 298.75 249)"/><path d="M527.676 75.6417C527.676 76.0823 527.319 76.4394 526.879 76.4394 526.438 76.4394 526.081 76.0823 526.081 75.6417 526.081 75.2012 526.438 74.8441 526.879 74.8441 527.319 74.8441 527.676 75.2012 527.676 75.6417Z" fill="#9AA0A6" fill-rule="nonzero" fill-opacity="1" transform="matrix(1 0 0 1.00031 298.75 249)"/><path d="M527.676 78.459C527.676 78.8995 527.319 79.2567 526.879 79.2567 526.438 79.2567 526.081 78.8995 526.081 78.459 526.081 78.0185 526.438 77.6613 526.879 77.6613 527.319 77.6613 527.676 78.0185 527.676 78.459Z" fill="#9AA0A6" fill-rule="nonzero" fill-opacity="1" transform="matrix(1 0 0 1.00031 298.75 249)"/><path d="M69.2435 25.3214 69.2435 20.2979 72.2644 9.86041 69.7187 9.86041 68.5986 14.6124C68.361 15.6986 68.1404 16.8357 68.0046 17.5824L67.9367 17.5824C67.8349 16.8526 67.6143 15.6986 67.3597 14.5954L66.2905 9.86041 63.7617 9.86041 66.7317 20.2979 66.7317 25.3214 69.2605 25.3214Z" fill="#212121" fill-rule="nonzero" fill-opacity="1" transform="matrix(1 0 0 1.00031 298.75 249)"/><path d="M75.0138 13.7978C72.2305 13.7978 71.348 15.4949 71.348 18.8383L71.348 20.4845C71.348 23.6752 72.0099 25.4911 74.9459 25.4911 77.882 25.4911 78.5439 23.7431 78.5439 20.4845L78.5439 18.8383C78.5439 15.6477 77.8311 13.7978 74.9968 13.7978ZM75.9812 21.401C75.9812 22.8945 75.7945 23.76 74.9629 23.76 74.1313 23.76 73.9616 22.8775 73.9616 21.401L73.9616 17.8879C73.9616 16.5641 74.1143 15.5458 74.9629 15.5458 75.8115 15.5458 75.9812 16.615 75.9812 17.8879L75.9812 21.401Z" fill="#212121" fill-rule="nonzero" fill-opacity="1" transform="matrix(1 0 0 1.00031 298.75 249)"/><path d="M81.8872 25.4911C83.0413 25.4911 83.9068 24.9989 84.5348 23.9128L84.5687 23.9128 84.6875 25.3044 86.6902 25.3044 86.6902 14.0184 84.1105 14.0184 84.1105 22.9793C83.9068 23.4036 83.4316 23.6921 82.9564 23.6921 82.3624 23.6921 82.2097 23.183 82.2097 22.3005L82.2097 14.0184 79.647 14.0184 79.647 22.4532C79.647 24.354 80.224 25.4911 81.8872 25.4911Z" fill="#212121" fill-rule="nonzero" fill-opacity="1" transform="matrix(1 0 0 1.00031 298.75 249)"/><path d="M91.1367 25.3044 91.1367 11.897 93.7333 11.897 93.7333 9.86041 86.0113 9.86041 86.0113 11.897 88.6079 11.897 88.6079 25.3044 91.1197 25.3044Z" fill="#212121" fill-rule="nonzero" fill-opacity="1" transform="matrix(1 0 0 1.00031 298.75 249)"/><path d="M95.1589 25.4911C96.313 25.4911 97.1785 24.9989 97.8065 23.9128L97.8404 23.9128 97.9592 25.3044 99.9618 25.3044 99.9618 14.0184 97.3822 14.0184 97.3822 22.9793C97.1785 23.4036 96.7033 23.6921 96.2281 23.6921 95.6341 23.6921 95.4814 23.183 95.4814 22.3005L95.4814 14.0184 92.9187 14.0184 92.9187 22.4532C92.9187 24.354 93.4957 25.4911 95.1589 25.4911Z" fill="#212121" fill-rule="nonzero" fill-opacity="1" transform="matrix(1 0 0 1.00031 298.75 249)"/><path d="M106.156 13.7638C105.121 13.7638 104.256 14.3409 103.78 15.1555L103.729 15.1555C103.797 14.0524 103.814 13.2886 103.814 12.474L103.814 9.26641 101.337 9.26641 101.337 25.2875 103.458 25.2875 103.679 24.2522 103.713 24.2522C104.171 24.9989 105.019 25.4572 106.038 25.4572 107.989 25.4572 108.617 23.5224 108.617 20.5355L108.617 18.7535C108.617 15.461 108.193 13.7469 106.156 13.7469ZM106.038 20.4167C106.038 22.589 105.834 23.6412 104.901 23.6412 104.476 23.6412 104.069 23.4545 103.831 23.0472L103.831 16.5981C104.035 15.9871 104.51 15.5458 105.019 15.5458 105.902 15.5458 106.055 16.632 106.055 18.9232L106.055 20.3997Z" fill="#212121" fill-rule="nonzero" fill-opacity="1" transform="matrix(1 0 0 1.00031 298.75 249)"/><path d="M116.475 18.5837C116.475 15.6816 116.085 13.8148 113.132 13.8148 110.179 13.8148 109.585 15.6816 109.585 18.6856L109.585 20.6543C109.585 23.5224 110.23 25.4911 113.064 25.4911 115.27 25.4911 116.56 24.4049 116.407 21.978L114.184 21.8423C114.184 23.1321 113.98 23.76 113.132 23.76 112.147 23.76 112.113 22.8096 112.113 21.0955L112.113 20.5185 116.509 20.5185 116.509 18.5837ZM113.064 15.5289C113.997 15.5289 114.048 16.4114 114.048 18.1934L114.048 18.9911 112.079 18.9911 112.079 18.1934C112.079 16.4284 112.13 15.5289 113.064 15.5289Z" fill="#212121" fill-rule="nonzero" fill-opacity="1" transform="matrix(1 0 0 1.00031 298.75 249)"/><path d="M48.131 26.7131C48.131 26.7131 56.5149 26.7131 58.5854 26.153 59.7565 25.8305 60.639 24.9141 60.9445 23.777 61.5215 21.7065 61.5215 17.3278 61.5215 17.3278 61.5215 17.3278 61.5215 12.9832 60.9445 10.9296 60.639 9.77555 59.7565 8.87607 58.5854 8.55361 56.5149 7.97658 48.131 7.97658 48.131 7.97658 48.131 7.97658 39.7641 7.97658 37.6936 8.55361 36.5395 8.8591 35.64 9.75858 35.3176 10.9296 34.7575 12.9832 34.7575 17.3278 34.7575 17.3278 34.7575 17.3278 34.7575 21.7065 35.3176 23.777 35.64 24.9141 36.5395 25.8305 37.6936 26.153 39.7641 26.7131 48.131 26.7131 48.131 26.7131Z" fill="#FF0000" fill-rule="nonzero" fill-opacity="1" transform="matrix(1 0 0 1.00031 298.75 249)"/><path d="M52.4078 17.3278 45.4665 13.3226 45.4665 21.3501 52.4078 17.3278Z" fill="#FFFFFF" fill-rule="nonzero" fill-opacity="1" transform="matrix(1 0 0 1.00031 298.75 249)"/><path d="M137.554 113.454C137.554 113.234 137.655 112.911 137.876 112.809 138.097 112.589 138.3 112.487 138.623 112.487 138.945 112.487 139.166 112.589 139.37 112.809 139.573 113.03 139.692 113.234 139.692 113.454 139.692 113.675 139.59 113.997 139.37 114.099 139.149 114.32 138.945 114.422 138.623 114.422 138.3 114.422 138.08 114.32 137.876 114.099 137.655 113.997 137.554 113.777 137.554 113.454Z" fill="#7F868C" fill-rule="nonzero" fill-opacity="1" transform="matrix(1 0 0 1.00031 298.75 249)"/><path d="M119.801 110.399 117.324 117.986 115.321 117.986 118.715 108.855 119.988 108.855 119.801 110.416ZM121.753 114.574 121.753 116.051 116.933 116.051 116.933 114.574 121.753 114.574ZM121.872 117.969 119.377 110.382 119.174 108.821 120.463 108.821 123.875 117.952 121.855 117.952C121.855 117.952 121.855 117.952 121.855 117.952Z" fill="#7F868C" fill-rule="nonzero" fill-opacity="1" transform="matrix(1 0 0 1.00031 298.75 249)"/><path d="M124.333 114.659 124.333 114.523C124.333 114.014 124.384 113.539 124.503 113.115 124.621 112.69 124.791 112.317 125.012 112.029 125.232 111.74 125.521 111.485 125.843 111.316 126.166 111.146 126.556 111.061 126.963 111.061 127.371 111.061 127.71 111.146 128.016 111.316 128.321 111.468 128.576 111.723 128.779 112.029 128.983 112.334 129.17 112.69 129.288 113.115 129.407 113.539 129.509 113.98 129.56 114.472L129.56 114.761C129.509 115.236 129.407 115.677 129.288 116.085 129.17 116.492 128.983 116.848 128.779 117.137 128.576 117.425 128.304 117.68 128.016 117.85 127.727 118.019 127.354 118.104 126.963 118.104 126.539 118.104 126.166 118.019 125.843 117.85 125.521 117.68 125.249 117.442 125.012 117.137 124.774 116.831 124.621 116.458 124.503 116.051 124.384 115.643 124.333 115.168 124.333 114.676ZM126.149 114.523 126.149 114.659C126.149 114.931 126.166 115.202 126.217 115.44 126.268 115.677 126.335 115.898 126.437 116.085 126.539 116.271 126.675 116.424 126.845 116.509 127.014 116.594 127.201 116.662 127.456 116.662 127.761 116.662 128.016 116.594 128.219 116.441 128.423 116.288 128.576 116.102 128.678 115.864 128.779 115.626 128.847 115.321 128.864 115.016L128.864 114.184C128.864 113.912 128.813 113.675 128.762 113.471 128.711 113.267 128.61 113.081 128.491 112.928 128.372 112.775 128.236 112.656 128.067 112.572 127.897 112.487 127.71 112.436 127.473 112.436 127.235 112.436 127.031 112.487 126.879 112.589 126.726 112.69 126.573 112.843 126.471 113.03 126.369 113.217 126.285 113.42 126.251 113.675 126.217 113.929 126.183 114.184 126.183 114.472L126.183 114.506ZM128.627 116.492 128.627 108.346 130.443 108.346 130.443 117.986 128.796 117.986 128.61 116.509Z" fill="#7F868C" fill-rule="nonzero" fill-opacity="1" transform="matrix(1 0 0 1.00031 298.75 249)"/></g></g></g></g></g></svg>