<svg width="349" height="247" xmlns="http://www.w3.org/2000/svg" xmlns:xlink="http://www.w3.org/1999/xlink" xml:space="preserve" overflow="hidden"><g transform="translate(-652 -326)"><g><g><g><g><path d="M348.057 0.260417 0.260417 0.260417 0.260417 245.74 348.057 245.74 348.057 0.260417Z" stroke="#3C4043" stroke-width="0.520833" stroke-linecap="round" stroke-linejoin="round" stroke-miterlimit="4" stroke-opacity="1" fill="#FFFFFF" fill-rule="nonzero" fill-opacity="1" transform="matrix(1.00094 0 0 1 652.178 327)"/><path d="M24.3802 11.8281C24.3854 13.8854 22.724 15.5573 20.6667 15.5625 18.6094 15.5677 16.9375 13.9062 16.9323 11.849 16.9271 9.79167 18.5885 8.11979 20.6458 8.11458 20.6458 8.11458 20.6562 8.11458 20.6615 8.11458 22.7135 8.11458 24.375 9.77604 24.3802 11.8281Z" stroke="#3C4043" stroke-width="0.520833" stroke-linecap="butt" stroke-linejoin="miter" stroke-miterlimit="4" stroke-opacity="1" fill="#FFFFFF" fill-rule="nonzero" fill-opacity="1" transform="matrix(1.00094 0 0 1 652.178 327)"/><path d="M42.5729 11.8281C42.5729 13.8802 40.9115 15.5469 38.8594 15.5521 36.8073 15.5521 35.1406 13.8906 35.1354 11.8385 35.1354 9.78646 36.7969 8.11979 38.849 8.11458 38.849 8.11458 38.849 8.11458 38.849 8.11458 40.901 8.11458 42.5625 9.77604 42.5677 11.8281Z" stroke="#3C4043" stroke-width="0.520833" stroke-linecap="butt" stroke-linejoin="miter" stroke-miterlimit="4" stroke-opacity="1" fill="#FFFFFF" fill-rule="nonzero" fill-opacity="1" transform="matrix(1.00094 0 0 1 652.178 327)"/><path d="M0.614583 22.6458 229.661 22.6458" stroke="#3C4043" stroke-width="0.520833" stroke-linecap="round" stroke-linejoin="round" stroke-miterlimit="4" stroke-opacity="1" fill="none" fill-rule="nonzero" transform="matrix(1.00094 0 0 1 652.178 327)"/><path d="M24.5938 37.5 27.0573 37.5C27.151 37.5 27.1458 37.5 27.1615 37.5938 27.2083 37.9531 27.2187 38.3177 27.2031 38.6823 27.1771 39.4687 26.9844 40.2448 26.6354 40.9531 26.2344 41.7344 25.6146 42.3802 24.8594 42.8229 24.5 43.0365 24.125 43.2083 23.7292 43.3438 23.4583 43.4375 23.1823 43.5052 22.901 43.5417 22.5573 43.5937 22.2083 43.6146 21.8594 43.6042 20.4115 43.5677 19.0365 42.9844 18 41.974 17.2031 41.1979 16.6562 40.1979 16.4375 39.1094 16.3385 38.6458 16.3073 38.1719 16.3333 37.7031 16.3854 36.6354 16.7448 35.6042 17.375 34.7396 18.2604 33.5208 19.5937 32.7083 21.0781 32.474 21.4219 32.4167 21.7708 32.3906 22.1198 32.401 23.4635 32.4271 24.7604 32.9375 25.7656 33.8281L25.7656 33.9115 24.7917 34.9115 24.7656 34.9115C24.7396 34.9115 24.7187 34.9531 24.6771 34.9115 24.1615 34.4531 23.5365 34.1354 22.8594 33.9896 22.4583 33.901 22.0417 33.8802 21.6302 33.9167 21.0208 33.9635 20.4375 34.1562 19.9167 34.474 18.9531 35.0417 18.2656 35.9844 18.026 37.0781 17.9531 37.3854 17.9219 37.7031 17.9323 38.0208 17.9531 39.3021 18.5833 40.4896 19.6302 41.2292 20.1146 41.5885 20.6771 41.8229 21.2708 41.9271 21.6562 42 22.0521 42.0156 22.4427 41.9635 23.1302 41.8906 23.7917 41.6406 24.3542 41.2344 25.0156 40.7656 25.4479 40.0469 25.5625 39.2448 25.5625 39.1615 25.5885 39.0833 25.5937 39.0052 25.599 38.9271 25.5937 38.9479 25.5417 38.9479L22.0625 38.9479C22.0139 38.9479 21.9896 38.9236 21.9896 38.875L21.9896 37.5885C21.9896 37.4896 21.9896 37.5 22.0781 37.5L24.5938 37.5Z" fill="#3183FB" fill-rule="evenodd" fill-opacity="1" transform="matrix(1.00094 0 0 1 652.178 327)"/><path d="M48.8333 42.7969C48.7969 42.8125 48.7656 42.8385 48.7344 42.8646 48.401 43.151 48.0156 43.3646 47.5937 43.4896 47.0833 43.6406 46.5417 43.6406 46.0312 43.4896 45.6354 43.375 45.2656 43.1979 44.9219 42.9688 44.6771 42.8021 44.4635 42.5937 44.2812 42.3594 43.9323 41.9375 43.6719 41.4479 43.5104 40.9219 43.4062 40.5729 43.3594 40.2031 43.3802 39.8385 43.4115 39.3698 43.5365 38.9115 43.75 38.4948 44.1406 37.6927 44.7969 37.0469 45.6042 36.6667 45.9792 36.4844 46.3906 36.3906 46.8073 36.3906 47.2292 36.3958 47.6458 36.5052 48.0208 36.6979 48.2708 36.8229 48.5052 36.9792 48.7188 37.1615 48.7188 37.1615 48.7552 37.1979 48.7812 37.2031 48.8073 37.2083 48.7812 37.1667 48.7812 37.1458L48.7812 36.724C48.7812 36.5833 48.7812 36.651 48.8594 36.651L50.2292 36.651C50.2552 36.651 50.2708 36.651 50.2708 36.6927L50.2708 43.4531C50.2812 44.2292 50.0312 44.9844 49.5625 45.6042 49.25 46.026 48.8333 46.3542 48.3542 46.5625 48.2188 46.6198 48.0781 46.6562 47.9375 46.6823 47.5208 46.7865 47.0885 46.8333 46.6562 46.8125 45.9323 46.7969 45.2292 46.5365 44.6719 46.0729 44.3594 45.8073 44.0938 45.4844 43.8958 45.125 43.8229 45.0052 43.7604 44.8854 43.7031 44.7604 43.7031 44.7604 43.7292 44.7604 43.7448 44.724L45.0052 44.1771C45.0521 44.1771 45.0573 44.1771 45.0781 44.2083 45.2135 44.4896 45.401 44.7396 45.625 44.9583 45.8437 45.1823 46.125 45.3333 46.4271 45.4062 46.5104 45.4271 46.5937 45.4375 46.6771 45.4375 46.9479 45.4375 47.2188 45.4115 47.4792 45.349 48.0365 45.2031 48.4844 44.7865 48.6615 44.2396 48.7448 44 48.7917 43.7448 48.8073 43.4896 48.8177 43.2812 48.8177 43.0781 48.8073 42.8698 48.8073 42.8698 48.8333 42.8281 48.8333 42.7969ZM45.0365 40.0104C45.0365 40.1562 45.0469 40.3021 45.0729 40.4427 45.1562 40.974 45.4323 41.4583 45.8542 41.7969 46.3594 42.2292 47.0677 42.3385 47.6771 42.0729 48.1198 41.8906 48.4844 41.5573 48.6927 41.125 48.9531 40.6354 49.0312 40.0625 48.9115 39.5208 48.8177 39.0052 48.5417 38.5469 48.1302 38.224 47.6927 37.8646 47.1146 37.7344 46.5677 37.875 46.151 37.9792 45.7865 38.224 45.526 38.5625 45.1979 38.974 45.026 39.4896 45.0365 40.0156Z" fill="#3183FB" fill-rule="evenodd" fill-opacity="1" transform="matrix(1.00094 0 0 1 652.178 327)"/><path d="M31.3281 43.6406C29.3125 43.6406 27.6823 42.0104 27.6823 39.9948 27.6823 37.9792 29.3125 36.349 31.3281 36.349 33.3437 36.349 34.974 37.9792 34.974 39.9948 34.974 42.0104 33.3437 43.6406 31.3281 43.6406ZM31.224 42.2135C31.7865 42.2396 32.3281 42.026 32.7292 41.6354 33.1979 41.1719 33.4375 40.526 33.3802 39.8698 33.3542 39.3594 33.151 38.875 32.8021 38.5 32.4688 38.1198 32 37.8854 31.4948 37.849 30.9479 37.8021 30.4115 37.9896 30.0156 38.3698 29.1979 39.1406 29.0573 40.3854 29.6875 41.3177 30.026 41.849 30.599 42.1823 31.224 42.2135Z" fill="#FC2C25" fill-rule="evenodd" fill-opacity="1" transform="matrix(1.00094 0 0 1 652.178 327)"/><path d="M39.1719 43.6406C37.1562 43.6406 35.526 42.0104 35.526 39.9948 35.526 37.9792 37.1562 36.349 39.1719 36.349 41.1875 36.349 42.8177 37.9792 42.8177 39.9948 42.8177 42.0104 41.1875 43.6406 39.1719 43.6406ZM41.2552 39.9948 41.2552 39.6927C41.1927 39.1979 40.9688 38.7448 40.6146 38.3958 39.849 37.6302 38.6094 37.6302 37.8438 38.3958 37.8125 38.4271 37.7865 38.4531 37.7604 38.4844 37.3229 38.9688 37.1198 39.6146 37.1979 40.2604 37.25 40.849 37.5417 41.3906 38.0052 41.7552 38.7812 42.3854 39.9115 42.3177 40.6094 41.6042 41.0208 41.1771 41.2448 40.6094 41.2396 40.0156L41.2552 39.9948Z" fill="#FFB900" fill-rule="evenodd" fill-opacity="1" transform="matrix(1.00094 0 0 1 652.178 327)"/><path d="M58.974 41.1667 60.151 41.9531C60.151 41.9531 60.1615 41.9896 60.151 42.0052 59.6719 42.7187 58.9427 43.2292 58.1094 43.4375 56.7448 43.7917 55.2969 43.2969 54.4375 42.1771 53.2135 40.6094 53.4896 38.3438 55.0625 37.1198 55.1562 37.0469 55.2552 36.9792 55.3542 36.9115 56.2344 36.3437 57.3385 36.2448 58.3021 36.651 58.7708 36.8594 59.1823 37.1823 59.4896 37.5938 59.7969 38 60.0417 38.4531 60.2135 38.9323 60.2135 38.974 60.2604 39.0208 60.25 39.0573 60.2396 39.0937 60.1771 39.099 60.1354 39.1198L55.5937 41.0312C55.474 41.0833 55.4687 41.0312 55.5417 41.1875 55.7292 41.5625 56.0365 41.8594 56.4167 42.0312 56.6354 42.125 56.8698 42.1719 57.1094 42.1719 57.4687 42.1823 57.8229 42.1042 58.151 41.9531 58.5 41.7917 58.7917 41.5312 58.9896 41.1979 58.9844 41.1875 58.9792 41.1771 58.974 41.1667ZM55.1823 39.8854 58.4115 38.5312C58.3906 38.4844 58.3646 38.4427 58.3333 38.401 58.0521 38 57.5833 37.7656 57.0938 37.7865 56.7812 37.7917 56.4687 37.8698 56.1875 38.0052 55.9635 38.1042 55.7708 38.2552 55.6198 38.4427 55.4323 38.6771 55.3073 38.9531 55.2448 39.2448 55.1927 39.4531 55.1719 39.6719 55.1823 39.8854Z" fill="#FC2C25" fill-rule="evenodd" fill-opacity="1" transform="matrix(1.00094 0 0 1 652.178 327)"/><path d="M52.9687 38.1094 52.9687 43.3177C52.9687 43.4219 52.9687 43.4062 52.875 43.4062L51.474 43.4062C51.3802 43.4062 51.3854 43.4062 51.3854 43.3281L51.3854 32.9115C51.3854 32.8663 51.408 32.8438 51.4531 32.8438L52.901 32.8438C52.9792 32.8438 52.9687 32.8438 52.9687 32.9167L52.9687 38.125 52.9687 38.1094Z" fill="#00AB47" fill-rule="evenodd" fill-opacity="1" transform="matrix(1.00094 0 0 1 652.178 327)"/><path d="M148.24 226.208 150.703 226.208C150.797 226.208 150.792 226.208 150.807 226.302 150.854 226.661 150.865 227.026 150.849 227.391 150.823 228.177 150.63 228.953 150.281 229.661 149.88 230.443 149.26 231.089 148.505 231.531 148.146 231.745 147.771 231.917 147.375 232.052 147.104 232.146 146.828 232.214 146.547 232.25 146.203 232.302 145.854 232.323 145.505 232.312 144.057 232.276 142.682 231.693 141.646 230.682 140.849 229.906 140.302 228.906 140.083 227.818 139.984 227.354 139.953 226.88 139.979 226.411 140.031 225.344 140.391 224.312 141.021 223.448 141.906 222.229 143.24 221.417 144.724 221.182 145.068 221.125 145.417 221.099 145.766 221.109 147.109 221.135 148.406 221.646 149.411 222.536L149.411 222.62 148.438 223.62 148.411 223.62C148.385 223.62 148.365 223.661 148.323 223.62 147.807 223.161 147.182 222.844 146.505 222.698 146.104 222.609 145.688 222.589 145.276 222.625 144.667 222.672 144.083 222.865 143.562 223.182 142.599 223.75 141.911 224.693 141.672 225.786 141.599 226.094 141.568 226.411 141.578 226.729 141.599 228.01 142.229 229.198 143.276 229.938 143.76 230.297 144.323 230.531 144.917 230.635 145.302 230.708 145.698 230.724 146.089 230.672 146.776 230.599 147.437 230.349 148 229.943 148.661 229.474 149.094 228.755 149.208 227.953 149.208 227.87 149.234 227.792 149.24 227.714 149.245 227.635 149.24 227.656 149.188 227.656L145.708 227.656C145.66 227.656 145.635 227.632 145.635 227.583L145.635 226.297C145.635 226.198 145.635 226.208 145.724 226.208L148.24 226.208Z" fill="#3183FB" fill-rule="evenodd" fill-opacity="1" transform="matrix(1.00094 0 0 1 652.178 327)"/><path d="M211.401 231.505C211.365 231.521 211.333 231.547 211.302 231.573 210.969 231.859 210.583 232.073 210.161 232.198 209.651 232.349 209.109 232.349 208.599 232.198 208.203 232.083 207.833 231.906 207.49 231.677 207.245 231.51 207.031 231.302 206.849 231.068 206.5 230.646 206.24 230.156 206.078 229.63 205.974 229.281 205.927 228.911 205.948 228.547 205.979 228.078 206.104 227.62 206.318 227.203 206.708 226.401 207.365 225.755 208.172 225.375 208.547 225.193 208.958 225.099 209.375 225.099 209.797 225.104 210.214 225.214 210.589 225.406 210.839 225.531 211.073 225.688 211.286 225.87 211.286 225.87 211.323 225.906 211.349 225.911 211.375 225.917 211.349 225.875 211.349 225.854L211.349 225.432C211.349 225.292 211.349 225.359 211.427 225.359L212.797 225.359C212.823 225.359 212.839 225.359 212.839 225.401L212.839 232.161C212.849 232.937 212.599 233.693 212.13 234.312 211.818 234.734 211.401 235.062 210.922 235.271 210.786 235.328 210.646 235.365 210.505 235.391 210.089 235.495 209.656 235.542 209.224 235.521 208.5 235.505 207.797 235.245 207.24 234.781 206.927 234.516 206.661 234.193 206.464 233.833 206.391 233.714 206.328 233.594 206.271 233.469 206.271 233.469 206.297 233.469 206.312 233.432L207.573 232.885C207.62 232.885 207.625 232.885 207.646 232.917 207.781 233.198 207.969 233.448 208.193 233.667 208.411 233.891 208.693 234.042 208.995 234.115 209.078 234.135 209.161 234.146 209.245 234.146 209.516 234.146 209.786 234.12 210.047 234.057 210.604 233.911 211.052 233.495 211.229 232.948 211.312 232.708 211.359 232.453 211.375 232.198 211.385 231.99 211.385 231.786 211.375 231.578 211.375 231.578 211.401 231.536 211.401 231.505ZM207.604 228.719C207.604 228.865 207.615 229.01 207.641 229.151 207.724 229.682 208 230.167 208.422 230.505 208.927 230.937 209.635 231.047 210.245 230.781 210.687 230.599 211.052 230.266 211.26 229.833 211.521 229.344 211.599 228.771 211.479 228.229 211.385 227.714 211.109 227.255 210.698 226.932 210.26 226.573 209.682 226.443 209.135 226.583 208.719 226.687 208.354 226.932 208.094 227.271 207.766 227.682 207.594 228.198 207.604 228.724Z" fill="#3183FB" fill-rule="evenodd" fill-opacity="1" transform="matrix(1.00094 0 0 1 652.178 327)"/><path d="M154.974 232.349C152.958 232.349 151.328 230.719 151.328 228.703 151.328 226.687 152.958 225.057 154.974 225.057 156.99 225.057 158.62 226.687 158.62 228.703 158.62 230.719 156.99 232.349 154.974 232.349ZM154.87 230.922C155.432 230.948 155.974 230.734 156.375 230.344 156.844 229.88 157.083 229.234 157.026 228.578 157 228.068 156.797 227.583 156.448 227.208 156.115 226.828 155.646 226.594 155.141 226.557 154.594 226.51 154.057 226.698 153.661 227.078 152.844 227.849 152.703 229.094 153.333 230.026 153.672 230.557 154.245 230.891 154.87 230.922Z" fill="#FC2C25" fill-rule="evenodd" fill-opacity="1" transform="matrix(1.00094 0 0 1 652.178 327)"/><path d="M162.745 232.349C160.729 232.349 159.099 230.719 159.099 228.703 159.099 226.687 160.729 225.057 162.745 225.057 164.76 225.057 166.391 226.687 166.391 228.703 166.391 230.719 164.76 232.349 162.745 232.349ZM164.828 228.703 164.828 228.401C164.766 227.906 164.542 227.453 164.187 227.104 163.422 226.339 162.182 226.339 161.417 227.104 161.385 227.135 161.359 227.161 161.333 227.193 160.896 227.677 160.693 228.323 160.771 228.969 160.823 229.557 161.115 230.099 161.578 230.464 162.354 231.094 163.484 231.026 164.182 230.312 164.594 229.885 164.818 229.318 164.812 228.724L164.828 228.703Z" fill="#FFB900" fill-rule="evenodd" fill-opacity="1" transform="matrix(1.00094 0 0 1 652.178 327)"/><path d="M170.521 232.349C168.505 232.349 166.875 230.719 166.875 228.703 166.875 226.687 168.505 225.057 170.521 225.057 172.536 225.057 174.167 226.687 174.167 228.703 174.167 230.719 172.536 232.349 170.521 232.349ZM172.604 228.703 172.604 228.401C172.542 227.906 172.318 227.453 171.964 227.104 171.198 226.339 169.958 226.339 169.193 227.104 169.161 227.135 169.135 227.161 169.109 227.193 168.672 227.677 168.469 228.323 168.547 228.969 168.599 229.557 168.891 230.099 169.354 230.464 170.13 231.094 171.26 231.026 171.958 230.312 172.37 229.885 172.594 229.318 172.589 228.724L172.604 228.703Z" fill="#FFB900" fill-rule="evenodd" fill-opacity="1" transform="matrix(1.00094 0 0 1 652.178 327)"/><path d="M178.292 232.349C176.276 232.349 174.646 230.719 174.646 228.703 174.646 226.687 176.276 225.057 178.292 225.057 180.307 225.057 181.938 226.687 181.938 228.703 181.938 230.719 180.307 232.349 178.292 232.349ZM180.375 228.703 180.375 228.401C180.312 227.906 180.089 227.453 179.734 227.104 178.969 226.339 177.729 226.339 176.964 227.104 176.932 227.135 176.906 227.161 176.88 227.193 176.443 227.677 176.24 228.323 176.318 228.969 176.37 229.557 176.661 230.099 177.125 230.464 177.901 231.094 179.031 231.026 179.729 230.312 180.141 229.885 180.365 229.318 180.359 228.724L180.375 228.703Z" fill="#FFB900" fill-rule="evenodd" fill-opacity="1" transform="matrix(1.00094 0 0 1 652.178 327)"/><path d="M186.068 232.349C184.052 232.349 182.422 230.719 182.422 228.703 182.422 226.687 184.052 225.057 186.068 225.057 188.083 225.057 189.714 226.687 189.714 228.703 189.714 230.719 188.083 232.349 186.068 232.349ZM188.151 228.703 188.151 228.401C188.089 227.906 187.865 227.453 187.51 227.104 186.745 226.339 185.505 226.339 184.74 227.104 184.708 227.135 184.682 227.161 184.656 227.193 184.219 227.677 184.016 228.323 184.094 228.969 184.146 229.557 184.437 230.099 184.901 230.464 185.677 231.094 186.807 231.026 187.505 230.312 187.917 229.885 188.141 229.318 188.135 228.724L188.151 228.703Z" fill="#FFB900" fill-rule="evenodd" fill-opacity="1" transform="matrix(1.00094 0 0 1 652.178 327)"/><path d="M193.844 232.349C191.828 232.349 190.198 230.719 190.198 228.703 190.198 226.687 191.828 225.057 193.844 225.057 195.859 225.057 197.49 226.687 197.49 228.703 197.49 230.719 195.859 232.349 193.844 232.349ZM195.927 228.703 195.927 228.401C195.865 227.906 195.641 227.453 195.286 227.104 194.521 226.339 193.281 226.339 192.516 227.104 192.484 227.135 192.458 227.161 192.432 227.193 191.995 227.677 191.792 228.323 191.87 228.969 191.922 229.557 192.214 230.099 192.677 230.464 193.453 231.094 194.583 231.026 195.281 230.312 195.693 229.885 195.917 229.318 195.911 228.724L195.927 228.703Z" fill="#FFB900" fill-rule="evenodd" fill-opacity="1" transform="matrix(1.00094 0 0 1 652.178 327)"/><path d="M201.615 232.349C199.599 232.349 197.969 230.719 197.969 228.703 197.969 226.687 199.599 225.057 201.615 225.057 203.63 225.057 205.26 226.687 205.26 228.703 205.26 230.719 203.63 232.349 201.615 232.349ZM203.698 228.703 203.698 228.401C203.635 227.906 203.411 227.453 203.057 227.104 202.292 226.339 201.052 226.339 200.286 227.104 200.255 227.135 200.229 227.161 200.203 227.193 199.766 227.677 199.562 228.323 199.641 228.969 199.693 229.557 199.984 230.099 200.448 230.464 201.224 231.094 202.354 231.026 203.052 230.312 203.464 229.885 203.687 229.318 203.682 228.724L203.698 228.703Z" fill="#FFB900" fill-rule="evenodd" fill-opacity="1" transform="matrix(1.00094 0 0 1 652.178 327)"/><path d="M221.542 229.875 222.719 230.661C222.719 230.661 222.729 230.698 222.719 230.714 222.24 231.427 221.51 231.938 220.677 232.146 219.312 232.5 217.865 232.005 217.005 230.885 215.781 229.318 216.057 227.052 217.63 225.828 217.724 225.755 217.823 225.688 217.922 225.62 218.802 225.052 219.906 224.953 220.87 225.359 221.339 225.568 221.75 225.891 222.057 226.302 222.365 226.708 222.609 227.161 222.781 227.641 222.781 227.682 222.828 227.729 222.818 227.766 222.807 227.802 222.745 227.807 222.703 227.828L218.161 229.74C218.042 229.792 218.036 229.74 218.109 229.896 218.297 230.271 218.604 230.568 218.984 230.74 219.203 230.833 219.438 230.88 219.677 230.88 220.036 230.891 220.391 230.812 220.719 230.661 221.068 230.5 221.359 230.24 221.557 229.906 221.552 229.896 221.547 229.885 221.542 229.875ZM217.75 228.594 220.979 227.24C220.958 227.193 220.932 227.151 220.901 227.109 220.62 226.708 220.151 226.474 219.661 226.495 219.349 226.5 219.036 226.578 218.755 226.714 218.531 226.812 218.339 226.964 218.188 227.151 218 227.385 217.875 227.661 217.812 227.953 217.76 228.161 217.74 228.38 217.75 228.594Z" fill="#FC2C25" fill-rule="evenodd" fill-opacity="1" transform="matrix(1.00094 0 0 1 652.178 327)"/><path d="M215.536 226.818 215.536 232.026C215.536 232.13 215.536 232.115 215.443 232.115L214.042 232.115C213.948 232.115 213.953 232.115 213.953 232.036L213.953 221.62C213.953 221.574 213.976 221.552 214.021 221.552L215.469 221.552C215.547 221.552 215.536 221.552 215.536 221.625L215.536 226.833 215.536 226.818Z" fill="#00AB47" fill-rule="evenodd" fill-opacity="1" transform="matrix(1.00094 0 0 1 652.178 327)"/><path d="M77.401 34.7865 300.74 34.7865C303.719 34.7865 306.135 37.2031 306.135 40.1823 306.135 43.1615 303.719 45.5781 300.74 45.5781L77.401 45.5781C74.4219 45.5781 72.0052 43.1615 72.0052 40.1823 72.0052 37.2031 74.4219 34.7865 77.401 34.7865Z" stroke="#3B4043" stroke-width="0.520833" stroke-linecap="round" stroke-linejoin="round" stroke-miterlimit="4" stroke-opacity="1" fill="#FFFFFF" fill-rule="nonzero" fill-opacity="1" transform="matrix(1.00094 0 0 1 652.178 327)"/><path d="M82.0573 40.4271 131.115 40.4271" stroke="#3C4043" stroke-width="0.520833" stroke-linecap="round" stroke-linejoin="round" stroke-miterlimit="4" stroke-opacity="1" fill="none" fill-rule="nonzero" transform="matrix(1.00094 0 0 1 652.178 327)"/><path d="M72.0052 58.3333 102.417 58.3333" stroke="#3183FB" stroke-width="1.04167" stroke-linecap="round" stroke-linejoin="miter" stroke-miterlimit="10" stroke-opacity="1" fill="none" fill-rule="nonzero" transform="matrix(1.00094 0 0 1 652.178 327)"/><path d="M120.073 58.3333 150.49 58.3333" stroke="#3C4043" stroke-width="0.520833" stroke-linecap="round" stroke-linejoin="round" stroke-miterlimit="4" stroke-opacity="1" fill="none" fill-rule="nonzero" transform="matrix(1.00094 0 0 1 652.178 327)"/><path d="M168.635 58.3333 206.651 58.3333" stroke="#3C4043" stroke-width="0.520833" stroke-linecap="round" stroke-linejoin="round" stroke-miterlimit="4" stroke-opacity="1" fill="none" fill-rule="nonzero" transform="matrix(1.00094 0 0 1 652.178 327)"/><path d="M224.068 58.3333 254.479 58.3333" stroke="#3C4043" stroke-width="0.520833" stroke-linecap="round" stroke-linejoin="round" stroke-miterlimit="4" stroke-opacity="1" fill="none" fill-rule="nonzero" transform="matrix(1.00094 0 0 1 652.178 327)"/><path d="M273.026 58.3333 303.437 58.3333" stroke="#3C4043" stroke-width="0.520833" stroke-linecap="round" stroke-linejoin="round" stroke-miterlimit="4" stroke-opacity="1" fill="none" fill-rule="nonzero" transform="matrix(1.00094 0 0 1 652.178 327)"/><path d="M65.151 71.5 297.635 71.5 297.635 132.396 65.151 132.396Z" fill="#FEEFC3" fill-rule="nonzero" fill-opacity="1" transform="matrix(1.00094 0 0 1 652.178 327)"/><path d="M297.635 129.792 297.635 132.396 295.031 132.396" stroke="#3B4043" stroke-width="0.520833" stroke-linecap="round" stroke-linejoin="round" stroke-miterlimit="4" stroke-opacity="1" fill="none" fill-rule="nonzero" transform="matrix(1.00094 0 0 1 652.178 327)"/><path d="M291.156 132.396 67.7552 132.396" stroke="#3B4043" stroke-width="0.520833" stroke-linecap="round" stroke-linejoin="round" stroke-miterlimit="4" stroke-dasharray="0 0 5.16667 2.58333" stroke-opacity="1" fill="none" fill-rule="nonzero" transform="matrix(1.00094 0 0 1 652.178 327)"/><path d="M67.7552 132.396 65.151 132.396 65.151 129.792" stroke="#3B4043" stroke-width="0.520833" stroke-linecap="round" stroke-linejoin="round" stroke-miterlimit="4" stroke-opacity="1" fill="none" fill-rule="nonzero" transform="matrix(1.00094 0 0 1 652.178 327)"/><path d="M65.151 127.26 65.151 75.3698" stroke="#3B4043" stroke-width="0.520833" stroke-linecap="round" stroke-linejoin="round" stroke-miterlimit="4" stroke-dasharray="0 0 5.0625 2.53125" stroke-opacity="1" fill="none" fill-rule="nonzero" transform="matrix(1.00094 0 0 1 652.178 327)"/><path d="M65.151 74.1042 65.151 71.5 67.7552 71.5" stroke="#3B4043" stroke-width="0.520833" stroke-linecap="round" stroke-linejoin="round" stroke-miterlimit="4" stroke-opacity="1" fill="none" fill-rule="nonzero" transform="matrix(1.00094 0 0 1 652.178 327)"/><path d="M70.3385 71.5 293.74 71.5" stroke="#3B4043" stroke-width="0.520833" stroke-linecap="round" stroke-linejoin="round" stroke-miterlimit="4" stroke-dasharray="0 0 5.16667 2.58333" stroke-opacity="1" fill="none" fill-rule="nonzero" transform="matrix(1.00094 0 0 1 652.178 327)"/><path d="M295.031 71.5 297.635 71.5 297.635 74.1042" stroke="#3B4043" stroke-width="0.520833" stroke-linecap="round" stroke-linejoin="round" stroke-miterlimit="4" stroke-opacity="1" fill="none" fill-rule="nonzero" transform="matrix(1.00094 0 0 1 652.178 327)"/><path d="M297.635 76.6354 297.635 128.526" stroke="#3B4043" stroke-width="0.520833" stroke-linecap="round" stroke-linejoin="round" stroke-miterlimit="4" stroke-dasharray="0 0 5.0625 2.53125" stroke-opacity="1" fill="none" fill-rule="nonzero" transform="matrix(1.00094 0 0 1 652.178 327)"/><path d="M72.0052 81.8177 206.896 81.8177" stroke="#CEE2FF" stroke-width="1.5625" stroke-linecap="round" stroke-linejoin="round" stroke-miterlimit="4" stroke-opacity="1" fill="none" fill-rule="nonzero" transform="matrix(1.00094 0 0 1 652.178 327)"/><path d="M98.2448 95.7969 168.391 95.7969" stroke="#00AB47" stroke-width="0.520833" stroke-linecap="round" stroke-linejoin="miter" stroke-miterlimit="10" stroke-opacity="1" fill="none" fill-rule="nonzero" transform="matrix(1.00094 0 0 1 652.178 327)"/><path d="M72.25 109.531 288.891 109.531" stroke="#3C4043" stroke-width="0.520833" stroke-linecap="round" stroke-linejoin="round" stroke-miterlimit="4" stroke-opacity="1" fill="none" fill-rule="nonzero" transform="matrix(1.00094 0 0 1 652.178 327)"/><path d="M72.026 142.724 102.38 142.724" stroke="#3C4043" stroke-width="0.520833" stroke-linecap="round" stroke-linejoin="round" stroke-miterlimit="4" stroke-opacity="1" fill="none" fill-rule="nonzero" transform="matrix(1.00094 0 0 1 652.178 327)"/><path d="M72.1354 120.812 223.953 120.812" stroke="#3C4043" stroke-width="0.520833" stroke-linecap="round" stroke-linejoin="round" stroke-miterlimit="4" stroke-opacity="1" fill="none" fill-rule="nonzero" transform="matrix(1.00094 0 0 1 652.178 327)"/><path d="M72.25 92.8542 87.4583 92.8542 87.4583 98.7396 72.25 98.7396Z" fill="#FFB900" fill-rule="nonzero" fill-opacity="1" transform="matrix(1.00094 0 0 1 652.178 327)"/><path d="M168.76 153.057C171.74 153.057 174.156 155.473 174.156 158.453L174.156 158.453C174.156 161.433 171.74 163.849 168.76 163.849L77.5312 163.849C74.5512 163.849 72.1354 161.433 72.1354 158.453 72.1354 155.473 74.5512 153.057 77.5312 153.057Z" fill="#E2E2E2" fill-rule="nonzero" fill-opacity="1" transform="matrix(1.00094 0 0 1 652.178 327)"/><path d="M283.755 153.057C286.735 153.057 289.151 155.473 289.151 158.453L289.151 158.453C289.151 161.433 286.735 163.849 283.755 163.849L192.526 163.849C189.546 163.849 187.13 161.433 187.13 158.453 187.13 155.473 189.546 153.057 192.526 153.057Z" fill="#E2E2E2" fill-rule="nonzero" fill-opacity="1" transform="matrix(1.00094 0 0 1 652.178 327)"/><path d="M168.76 168.995C171.74 168.995 174.156 171.411 174.156 174.391L174.156 174.391C174.156 177.371 171.74 179.786 168.76 179.786L77.5312 179.786C74.5512 179.786 72.1354 177.371 72.1354 174.391 72.1354 171.411 74.5512 168.995 77.5312 168.995Z" fill="#E2E2E2" fill-rule="nonzero" fill-opacity="1" transform="matrix(1.00094 0 0 1 652.178 327)"/><path d="M283.755 168.995C286.735 168.995 289.151 171.411 289.151 174.391L289.151 174.391C289.151 177.371 286.735 179.786 283.755 179.786L192.526 179.786C189.546 179.786 187.13 177.371 187.13 174.391 187.13 171.411 189.546 168.995 192.526 168.995Z" fill="#E2E2E2" fill-rule="nonzero" fill-opacity="1" transform="matrix(1.00094 0 0 1 652.178 327)"/><path d="M168.76 184.932C171.74 184.932 174.156 187.348 174.156 190.328L174.156 190.328C174.156 193.308 171.74 195.724 168.76 195.724L77.5312 195.724C74.5512 195.724 72.1354 193.308 72.1354 190.328 72.1354 187.348 74.5512 184.932 77.5312 184.932Z" fill="#E2E2E2" fill-rule="nonzero" fill-opacity="1" transform="matrix(1.00094 0 0 1 652.178 327)"/><path d="M283.755 184.932C286.735 184.932 289.151 187.348 289.151 190.328L289.151 190.328C289.151 193.308 286.735 195.724 283.755 195.724L192.526 195.724C189.546 195.724 187.13 193.308 187.13 190.328 187.13 187.348 189.546 184.932 192.526 184.932Z" fill="#E2E2E2" fill-rule="nonzero" fill-opacity="1" transform="matrix(1.00094 0 0 1 652.178 327)"/><path d="M168.76 200.875C171.74 200.875 174.156 203.291 174.156 206.271L174.156 206.271C174.156 209.251 171.74 211.667 168.76 211.667L77.5312 211.667C74.5512 211.667 72.1354 209.251 72.1354 206.271 72.1354 203.291 74.5512 200.875 77.5312 200.875Z" fill="#E2E2E2" fill-rule="nonzero" fill-opacity="1" transform="matrix(1.00094 0 0 1 652.178 327)"/><path d="M283.755 200.875C286.735 200.875 289.151 203.291 289.151 206.271L289.151 206.271C289.151 209.251 286.735 211.667 283.755 211.667L192.526 211.667C189.546 211.667 187.13 209.251 187.13 206.271 187.13 203.291 189.546 200.875 192.526 200.875Z" fill="#E2E2E2" fill-rule="nonzero" fill-opacity="1" transform="matrix(1.00094 0 0 1 652.178 327)"/></g></g></g></g></g></svg>