<svg width="350" height="247" xmlns="http://www.w3.org/2000/svg" xmlns:xlink="http://www.w3.org/1999/xlink" xml:space="preserve" overflow="hidden"><g transform="translate(-224 -326)"><g><g><g><g><path d="M348.057 0.260417 0.260417 0.260417 0.260417 245.74 348.057 245.74 348.057 0.260417Z" stroke="#3C4043" stroke-width="0.520833" stroke-linecap="round" stroke-linejoin="round" stroke-miterlimit="4" stroke-opacity="1" fill="#FFFFFF" fill-rule="nonzero" fill-opacity="1" transform="matrix(1.00094 0 0 1 225.178 327)"/><path d="M24.3802 11.8281C24.3854 13.8854 22.724 15.5573 20.6667 15.5625 18.6094 15.5677 16.9375 13.9062 16.9323 11.849 16.9271 9.79167 18.5885 8.11979 20.6458 8.11458 20.6458 8.11458 20.6562 8.11458 20.6615 8.11458 22.7135 8.11458 24.375 9.77604 24.3802 11.8281Z" stroke="#3C4043" stroke-width="0.520833" stroke-linecap="butt" stroke-linejoin="miter" stroke-miterlimit="4" stroke-opacity="1" fill="#FFFFFF" fill-rule="nonzero" fill-opacity="1" transform="matrix(1.00094 0 0 1 225.178 327)"/><path d="M42.5729 11.8281C42.5729 13.8802 40.9115 15.5469 38.8594 15.5521 36.8073 15.5521 35.1406 13.8906 35.1354 11.8385 35.1354 9.78646 36.7969 8.11979 38.849 8.11458 38.849 8.11458 38.849 8.11458 38.849 8.11458 40.901 8.11458 42.5625 9.77604 42.5677 11.8281Z" stroke="#3C4043" stroke-width="0.520833" stroke-linecap="butt" stroke-linejoin="miter" stroke-miterlimit="4" stroke-opacity="1" fill="#FFFFFF" fill-rule="nonzero" fill-opacity="1" transform="matrix(1.00094 0 0 1 225.178 327)"/><path d="M0.614583 22.6458 229.661 22.6458" stroke="#3C4043" stroke-width="0.520833" stroke-linecap="round" stroke-linejoin="round" stroke-miterlimit="4" stroke-opacity="1" fill="none" fill-rule="nonzero" transform="matrix(1.00094 0 0 1 225.178 327)"/><path d="M24.5938 37.5 27.0573 37.5C27.151 37.5 27.1458 37.5 27.1615 37.5938 27.2083 37.9531 27.2187 38.3177 27.2031 38.6823 27.1771 39.4687 26.9844 40.2448 26.6354 40.9531 26.2344 41.7344 25.6146 42.3802 24.8594 42.8229 24.5 43.0365 24.125 43.2083 23.7292 43.3438 23.4583 43.4375 23.1823 43.5052 22.901 43.5417 22.5573 43.5937 22.2083 43.6146 21.8594 43.6042 20.4115 43.5677 19.0365 42.9844 18 41.974 17.2031 41.1979 16.6562 40.1979 16.4375 39.1094 16.3385 38.6458 16.3073 38.1719 16.3333 37.7031 16.3854 36.6354 16.7448 35.6042 17.375 34.7396 18.2604 33.5208 19.5937 32.7083 21.0781 32.474 21.4219 32.4167 21.7708 32.3906 22.1198 32.401 23.4635 32.4271 24.7604 32.9375 25.7656 33.8281L25.7656 33.9115 24.7917 34.9115 24.7656 34.9115C24.7396 34.9115 24.7187 34.9531 24.6771 34.9115 24.1615 34.4531 23.5365 34.1354 22.8594 33.9896 22.4583 33.901 22.0417 33.8802 21.6302 33.9167 21.0208 33.9635 20.4375 34.1562 19.9167 34.474 18.9531 35.0417 18.2656 35.9844 18.026 37.0781 17.9531 37.3854 17.9219 37.7031 17.9323 38.0208 17.9531 39.3021 18.5833 40.4896 19.6302 41.2292 20.1146 41.5885 20.6771 41.8229 21.2708 41.9271 21.6562 42 22.0521 42.0156 22.4427 41.9635 23.1302 41.8906 23.7917 41.6406 24.3542 41.2344 25.0156 40.7656 25.4479 40.0469 25.5625 39.2448 25.5625 39.1615 25.5885 39.0833 25.5937 39.0052 25.599 38.9271 25.5937 38.9479 25.5417 38.9479L22.0625 38.9479C22.0139 38.9479 21.9896 38.9236 21.9896 38.875L21.9896 37.5885C21.9896 37.4896 21.9896 37.5 22.0781 37.5L24.5938 37.5Z" fill="#3183FB" fill-rule="evenodd" fill-opacity="1" transform="matrix(1.00094 0 0 1 225.178 327)"/><path d="M48.8333 42.7969C48.7969 42.8125 48.7656 42.8385 48.7344 42.8646 48.401 43.151 48.0156 43.3646 47.5937 43.4896 47.0833 43.6406 46.5417 43.6406 46.0312 43.4896 45.6354 43.375 45.2656 43.1979 44.9219 42.9688 44.6771 42.8021 44.4635 42.5937 44.2812 42.3594 43.9323 41.9375 43.6719 41.4479 43.5104 40.9219 43.4062 40.5729 43.3594 40.2031 43.3802 39.8385 43.4115 39.3698 43.5365 38.9115 43.75 38.4948 44.1406 37.6927 44.7969 37.0469 45.6042 36.6667 45.9792 36.4844 46.3906 36.3906 46.8073 36.3906 47.2292 36.3958 47.6458 36.5052 48.0208 36.6979 48.2708 36.8229 48.5052 36.9792 48.7188 37.1615 48.7188 37.1615 48.7552 37.1979 48.7812 37.2031 48.8073 37.2083 48.7812 37.1667 48.7812 37.1458L48.7812 36.724C48.7812 36.5833 48.7812 36.651 48.8594 36.651L50.2292 36.651C50.2552 36.651 50.2708 36.651 50.2708 36.6927L50.2708 43.4531C50.2812 44.2292 50.0312 44.9844 49.5625 45.6042 49.25 46.026 48.8333 46.3542 48.3542 46.5625 48.2188 46.6198 48.0781 46.6562 47.9375 46.6823 47.5208 46.7865 47.0885 46.8333 46.6562 46.8125 45.9323 46.7969 45.2292 46.5365 44.6719 46.0729 44.3594 45.8073 44.0938 45.4844 43.8958 45.125 43.8229 45.0052 43.7604 44.8854 43.7031 44.7604 43.7031 44.7604 43.7292 44.7604 43.7448 44.724L45.0052 44.1771C45.0521 44.1771 45.0573 44.1771 45.0781 44.2083 45.2135 44.4896 45.401 44.7396 45.625 44.9583 45.8437 45.1823 46.125 45.3333 46.4271 45.4062 46.5104 45.4271 46.5937 45.4375 46.6771 45.4375 46.9479 45.4375 47.2188 45.4115 47.4792 45.349 48.0365 45.2031 48.4844 44.7865 48.6615 44.2396 48.7448 44 48.7917 43.7448 48.8073 43.4896 48.8177 43.2812 48.8177 43.0781 48.8073 42.8698 48.8073 42.8698 48.8333 42.8281 48.8333 42.7969ZM45.0365 40.0104C45.0365 40.1562 45.0469 40.3021 45.0729 40.4427 45.1562 40.974 45.4323 41.4583 45.8542 41.7969 46.3594 42.2292 47.0677 42.3385 47.6771 42.0729 48.1198 41.8906 48.4844 41.5573 48.6927 41.125 48.9531 40.6354 49.0312 40.0625 48.9115 39.5208 48.8177 39.0052 48.5417 38.5469 48.1302 38.224 47.6927 37.8646 47.1146 37.7344 46.5677 37.875 46.151 37.9792 45.7865 38.224 45.526 38.5625 45.1979 38.974 45.026 39.4896 45.0365 40.0156Z" fill="#3183FB" fill-rule="evenodd" fill-opacity="1" transform="matrix(1.00094 0 0 1 225.178 327)"/><path d="M31.3281 43.6406C29.3125 43.6406 27.6823 42.0104 27.6823 39.9948 27.6823 37.9792 29.3125 36.349 31.3281 36.349 33.3437 36.349 34.974 37.9792 34.974 39.9948 34.974 42.0104 33.3437 43.6406 31.3281 43.6406ZM31.224 42.2135C31.7865 42.2396 32.3281 42.026 32.7292 41.6354 33.1979 41.1719 33.4375 40.526 33.3802 39.8698 33.3542 39.3594 33.151 38.875 32.8021 38.5 32.4688 38.1198 32 37.8854 31.4948 37.849 30.9479 37.8021 30.4115 37.9896 30.0156 38.3698 29.1979 39.1406 29.0573 40.3854 29.6875 41.3177 30.026 41.849 30.599 42.1823 31.224 42.2135Z" fill="#FC2C25" fill-rule="evenodd" fill-opacity="1" transform="matrix(1.00094 0 0 1 225.178 327)"/><path d="M39.1719 43.6406C37.1562 43.6406 35.526 42.0104 35.526 39.9948 35.526 37.9792 37.1562 36.349 39.1719 36.349 41.1875 36.349 42.8177 37.9792 42.8177 39.9948 42.8177 42.0104 41.1875 43.6406 39.1719 43.6406ZM41.2552 39.9948 41.2552 39.6927C41.1927 39.1979 40.9688 38.7448 40.6146 38.3958 39.849 37.6302 38.6094 37.6302 37.8438 38.3958 37.8125 38.4271 37.7865 38.4531 37.7604 38.4844 37.3229 38.9688 37.1198 39.6146 37.1979 40.2604 37.25 40.849 37.5417 41.3906 38.0052 41.7552 38.7812 42.3854 39.9115 42.3177 40.6094 41.6042 41.0208 41.1771 41.2448 40.6094 41.2396 40.0156L41.2552 39.9948Z" fill="#FFB900" fill-rule="evenodd" fill-opacity="1" transform="matrix(1.00094 0 0 1 225.178 327)"/><path d="M58.974 41.1667 60.151 41.9531C60.151 41.9531 60.1615 41.9896 60.151 42.0052 59.6719 42.7187 58.9427 43.2292 58.1094 43.4375 56.7448 43.7917 55.2969 43.2969 54.4375 42.1771 53.2135 40.6094 53.4896 38.3438 55.0625 37.1198 55.1562 37.0469 55.2552 36.9792 55.3542 36.9115 56.2344 36.3437 57.3385 36.2448 58.3021 36.651 58.7708 36.8594 59.1823 37.1823 59.4896 37.5938 59.7969 38 60.0417 38.4531 60.2135 38.9323 60.2135 38.974 60.2604 39.0208 60.25 39.0573 60.2396 39.0937 60.1771 39.099 60.1354 39.1198L55.5937 41.0312C55.474 41.0833 55.4687 41.0312 55.5417 41.1875 55.7292 41.5625 56.0365 41.8594 56.4167 42.0312 56.6354 42.125 56.8698 42.1719 57.1094 42.1719 57.4687 42.1823 57.8229 42.1042 58.151 41.9531 58.5 41.7917 58.7917 41.5312 58.9896 41.1979 58.9844 41.1875 58.9792 41.1771 58.974 41.1667ZM55.1823 39.8854 58.4115 38.5312C58.3906 38.4844 58.3646 38.4427 58.3333 38.401 58.0521 38 57.5833 37.7656 57.0938 37.7865 56.7812 37.7917 56.4687 37.8698 56.1875 38.0052 55.9635 38.1042 55.7708 38.2552 55.6198 38.4427 55.4323 38.6771 55.3073 38.9531 55.2448 39.2448 55.1927 39.4531 55.1719 39.6719 55.1823 39.8854Z" fill="#FC2C25" fill-rule="evenodd" fill-opacity="1" transform="matrix(1.00094 0 0 1 225.178 327)"/><path d="M52.9687 38.1094 52.9687 43.3177C52.9687 43.4219 52.9687 43.4062 52.875 43.4062L51.474 43.4062C51.3802 43.4062 51.3854 43.4062 51.3854 43.3281L51.3854 32.9115C51.3854 32.8663 51.408 32.8438 51.4531 32.8438L52.901 32.8438C52.9792 32.8438 52.9687 32.8438 52.9687 32.9167L52.9687 38.125 52.9687 38.1094Z" fill="#00AB47" fill-rule="evenodd" fill-opacity="1" transform="matrix(1.00094 0 0 1 225.178 327)"/><path d="M77.401 34.7865 300.74 34.7865C303.719 34.7865 306.135 37.2031 306.135 40.1823 306.135 43.1615 303.719 45.5781 300.74 45.5781L77.401 45.5781C74.4219 45.5781 72.0052 43.1615 72.0052 40.1823 72.0052 37.2031 74.4219 34.7865 77.401 34.7865Z" stroke="#3B4043" stroke-width="0.520833" stroke-linecap="round" stroke-linejoin="round" stroke-miterlimit="4" stroke-opacity="1" fill="#FFFFFF" fill-rule="nonzero" fill-opacity="1" transform="matrix(1.00094 0 0 1 225.178 327)"/><path d="M82.0573 40.4271 131.115 40.4271" stroke="#3C4043" stroke-width="0.520833" stroke-linecap="round" stroke-linejoin="round" stroke-miterlimit="4" stroke-opacity="1" fill="none" fill-rule="nonzero" transform="matrix(1.00094 0 0 1 225.178 327)"/><path d="M72.0052 58.3333 102.417 58.3333" stroke="#3183FB" stroke-width="1.04167" stroke-linecap="round" stroke-linejoin="miter" stroke-miterlimit="10" stroke-opacity="1" fill="none" fill-rule="nonzero" transform="matrix(1.00094 0 0 1 225.178 327)"/><path d="M120.073 58.3333 150.49 58.3333" stroke="#3C4043" stroke-width="0.520833" stroke-linecap="round" stroke-linejoin="round" stroke-miterlimit="4" stroke-opacity="1" fill="none" fill-rule="nonzero" transform="matrix(1.00094 0 0 1 225.178 327)"/><path d="M168.635 58.3333 206.651 58.3333" stroke="#3C4043" stroke-width="0.520833" stroke-linecap="round" stroke-linejoin="round" stroke-miterlimit="4" stroke-opacity="1" fill="none" fill-rule="nonzero" transform="matrix(1.00094 0 0 1 225.178 327)"/><path d="M224.068 58.3333 254.479 58.3333" stroke="#3C4043" stroke-width="0.520833" stroke-linecap="round" stroke-linejoin="round" stroke-miterlimit="4" stroke-opacity="1" fill="none" fill-rule="nonzero" transform="matrix(1.00094 0 0 1 225.178 327)"/><path d="M273.026 58.3333 303.437 58.3333" stroke="#3C4043" stroke-width="0.520833" stroke-linecap="round" stroke-linejoin="round" stroke-miterlimit="4" stroke-opacity="1" fill="none" fill-rule="nonzero" transform="matrix(1.00094 0 0 1 225.178 327)"/><path d="M72.0052 206.62 224.068 206.62" stroke="#D0E1FA" stroke-width="1.5625" stroke-linecap="butt" stroke-linejoin="miter" stroke-miterlimit="10" stroke-opacity="1" fill="none" fill-rule="nonzero" transform="matrix(1.00094 0 0 1 225.178 327)"/><path d="M71.7604 220.599 303.437 220.599" stroke="#3C4043" stroke-width="0.520833" stroke-linecap="round" stroke-linejoin="round" stroke-miterlimit="4" stroke-opacity="1" fill="none" fill-rule="nonzero" transform="matrix(1.00094 0 0 1 225.178 327)"/><path d="M72.25 231.729 194.932 231.729" stroke="#3C4043" stroke-width="0.520833" stroke-linecap="round" stroke-linejoin="round" stroke-miterlimit="4" stroke-opacity="1" fill="none" fill-rule="nonzero" transform="matrix(1.00094 0 0 1 225.178 327)"/><path d="M72.0052 158.151 224.068 158.151" stroke="#D0E1FA" stroke-width="1.5625" stroke-linecap="butt" stroke-linejoin="miter" stroke-miterlimit="10" stroke-opacity="1" fill="none" fill-rule="nonzero" transform="matrix(1.00094 0 0 1 225.178 327)"/><path d="M71.7604 172.13 303.437 172.13" stroke="#3C4043" stroke-width="0.520833" stroke-linecap="round" stroke-linejoin="round" stroke-miterlimit="4" stroke-opacity="1" fill="none" fill-rule="nonzero" transform="matrix(1.00094 0 0 1 225.178 327)"/><path d="M72.25 183.26 194.932 183.26" stroke="#3C4043" stroke-width="0.520833" stroke-linecap="round" stroke-linejoin="round" stroke-miterlimit="4" stroke-opacity="1" fill="none" fill-rule="nonzero" transform="matrix(1.00094 0 0 1 225.178 327)"/><path d="M65.151 71.5 297.635 71.5 297.635 132.396 65.151 132.396Z" fill="#FEEFC3" fill-rule="nonzero" fill-opacity="1" transform="matrix(1.00094 0 0 1 225.178 327)"/><path d="M297.635 129.792 297.635 132.396 295.031 132.396" stroke="#3B4043" stroke-width="0.520833" stroke-linecap="round" stroke-linejoin="round" stroke-miterlimit="4" stroke-opacity="1" fill="none" fill-rule="nonzero" transform="matrix(1.00094 0 0 1 225.178 327)"/><path d="M292.448 132.396 69.0469 132.396" stroke="#3B4043" stroke-width="0.520833" stroke-linecap="round" stroke-linejoin="round" stroke-miterlimit="4" stroke-dasharray="0 0 5.16667 2.58333" stroke-opacity="1" fill="none" fill-rule="nonzero" transform="matrix(1.00094 0 0 1 225.178 327)"/><path d="M67.7552 132.396 65.151 132.396 65.151 129.792" stroke="#3B4043" stroke-width="0.520833" stroke-linecap="round" stroke-linejoin="round" stroke-miterlimit="4" stroke-opacity="1" fill="none" fill-rule="nonzero" transform="matrix(1.00094 0 0 1 225.178 327)"/><path d="M65.151 127.26 65.151 75.3698" stroke="#3B4043" stroke-width="0.520833" stroke-linecap="round" stroke-linejoin="round" stroke-miterlimit="4" stroke-dasharray="0 0 5.0625 2.53125" stroke-opacity="1" fill="none" fill-rule="nonzero" transform="matrix(1.00094 0 0 1 225.178 327)"/><path d="M65.151 74.1042 65.151 71.5 67.7552 71.5" stroke="#3B4043" stroke-width="0.520833" stroke-linecap="round" stroke-linejoin="round" stroke-miterlimit="4" stroke-opacity="1" fill="none" fill-rule="nonzero" transform="matrix(1.00094 0 0 1 225.178 327)"/><path d="M70.3385 71.5 293.74 71.5" stroke="#3B4043" stroke-width="0.520833" stroke-linecap="round" stroke-linejoin="round" stroke-miterlimit="4" stroke-dasharray="0 0 5.16667 2.58333" stroke-opacity="1" fill="none" fill-rule="nonzero" transform="matrix(1.00094 0 0 1 225.178 327)"/><path d="M295.031 71.5 297.635 71.5 297.635 74.1042" stroke="#3B4043" stroke-width="0.520833" stroke-linecap="round" stroke-linejoin="round" stroke-miterlimit="4" stroke-opacity="1" fill="none" fill-rule="nonzero" transform="matrix(1.00094 0 0 1 225.178 327)"/><path d="M297.635 76.6354 297.635 128.526" stroke="#3B4043" stroke-width="0.520833" stroke-linecap="round" stroke-linejoin="round" stroke-miterlimit="4" stroke-dasharray="0 0 5.0625 2.53125" stroke-opacity="1" fill="none" fill-rule="nonzero" transform="matrix(1.00094 0 0 1 225.178 327)"/><path d="M72.0052 81.8177 206.896 81.8177" stroke="#CEE2FF" stroke-width="1.5625" stroke-linecap="round" stroke-linejoin="round" stroke-miterlimit="4" stroke-opacity="1" fill="none" fill-rule="nonzero" transform="matrix(1.00094 0 0 1 225.178 327)"/><path d="M98.2448 95.7969 168.391 95.7969" stroke="#00AB47" stroke-width="0.520833" stroke-linecap="round" stroke-linejoin="miter" stroke-miterlimit="10" stroke-opacity="1" fill="none" fill-rule="nonzero" transform="matrix(1.00094 0 0 1 225.178 327)"/><path d="M72.25 109.531 288.891 109.531" stroke="#3C4043" stroke-width="0.520833" stroke-linecap="round" stroke-linejoin="round" stroke-miterlimit="4" stroke-opacity="1" fill="none" fill-rule="nonzero" transform="matrix(1.00094 0 0 1 225.178 327)"/><path d="M72.25 120.812 224.068 120.812" stroke="#3C4043" stroke-width="0.520833" stroke-linecap="round" stroke-linejoin="round" stroke-miterlimit="4" stroke-opacity="1" fill="none" fill-rule="nonzero" transform="matrix(1.00094 0 0 1 225.178 327)"/><path d="M72.25 92.8542 87.4583 92.8542 87.4583 98.7396 72.25 98.7396Z" fill="#FFB900" fill-rule="nonzero" fill-opacity="1" transform="matrix(1.00094 0 0 1 225.178 327)"/></g></g></g></g></g></svg>