<?xml version="1.0" encoding="UTF-8" standalone="no"?>
<!-- Created with Inkscape (http://www.inkscape.org/) -->

<svg
   version="1.1"
   id="svg2"
   width="682.66669"
   height="682.66669"
   viewBox="0 0 682.66669 682.66669"
   sodipodi:docname="logo_white_512.ai"
   xmlns:inkscape="http://www.inkscape.org/namespaces/inkscape"
   xmlns:sodipodi="http://sodipodi.sourceforge.net/DTD/sodipodi-0.dtd"
   xmlns="http://www.w3.org/2000/svg"
   xmlns:svg="http://www.w3.org/2000/svg">
  <defs
     id="defs6">
    <clipPath
       clipPathUnits="userSpaceOnUse"
       id="clipPath16">
      <path
         d="M 0,512 H 512 V 0 H 0 Z"
         id="path14" />
    </clipPath>
  </defs>
  <sodipodi:namedview
     id="namedview4"
     pagecolor="#ffffff"
     bordercolor="#000000"
     borderopacity="0.25"
     inkscape:showpageshadow="2"
     inkscape:pageopacity="0.0"
     inkscape:pagecheckerboard="0"
     inkscape:deskcolor="#d1d1d1" />
  <g
     id="g8"
     inkscape:groupmode="layer"
     inkscape:label="logo_white_512"
     transform="matrix(1.3333333,0,0,-1.3333333,0,682.66667)">
    <g
       id="g10">
      <g
         id="g12"
         clip-path="url(#clipPath16)">
        <g
           id="g18"
           transform="translate(256.5919,487.5109)">
          <path
             d="m 0,0 c -128.323,0 -232.358,-104.035 -232.358,-232.358 0,-128.323 104.035,-232.358 232.358,-232.358 128.323,0 232.358,104.035 232.358,232.358 C 232.358,-104.035 128.323,0 0,0 m 0,-0.66 c 31.278,0 61.621,-6.127 90.185,-18.209 27.59,-11.67 52.369,-28.377 73.648,-49.656 21.279,-21.279 37.986,-46.058 49.656,-73.648 12.082,-28.565 18.209,-58.907 18.209,-90.185 0,-31.278 -6.127,-61.621 -18.209,-90.185 -11.67,-27.59 -28.377,-52.369 -49.656,-73.648 -21.279,-21.28 -46.058,-37.986 -73.648,-49.656 C 61.621,-457.93 31.278,-464.056 0,-464.056 c -31.278,0 -61.621,6.126 -90.185,18.209 -27.59,11.67 -52.369,28.376 -73.648,49.656 -21.279,21.279 -37.986,46.058 -49.656,73.648 -12.082,28.564 -18.209,58.907 -18.209,90.185 0,31.278 6.127,61.62 18.209,90.185 11.67,27.59 28.377,52.369 49.656,73.648 21.279,21.279 46.058,37.986 73.648,49.656 C -61.621,-6.787 -31.278,-0.66 0,-0.66"
             style="fill:#ffffff;fill-opacity:1;fill-rule:nonzero;stroke:none"
             id="path20" />
        </g>
        <g
           id="g22"
           transform="translate(453.2338,164.9942)">
          <path
             d="m 0,0 c -0.626,-1.266 -2.056,-1.878 -3.199,-2.727 -8.046,-5.968 -0.304,-21.748 -8.46,-27.561 -2.84,-2.028 -6.653,-1.924 -10.133,-1.63 -0.831,0.074 -1.688,0.151 -2.42,0.523 -3.203,1.602 -1.938,6.589 0.477,9.239 2.401,2.66 5.737,5.319 5.396,8.896 -0.222,2.146 -1.81,4.233 -1.144,6.294 0.79,2.419 3.935,2.841 6.3,3.794 4.479,1.81 7.12,7.252 5.804,11.895 l 3.79,2.682 C -5.11,7.484 1.902,3.758 0,0 m -213.061,271.818 c 3.09,0.708 5.773,2.537 8.658,3.871 2.878,1.335 6.322,2.12 9.154,0.718 0.84,-2.111 -1.583,-4.026 -3.716,-4.779 -4.094,-1.43 -8.528,-1.83 -12.807,-1.117 z m -23.595,5.006 c -2.641,-0.417 -5.387,0.286 -8.01,-0.295 -4.393,-0.953 -7.156,-5.119 -10.41,-8.219 -3.744,-3.585 -9.236,-6.035 -14.128,-4.329 -4.878,1.72 -7.438,8.981 -3.517,12.375 1.924,1.671 4.679,1.948 6.962,3.119 2.278,1.162 4.066,4.279 2.36,6.176 -0.74,0.831 -1.961,1.144 -2.642,2.033 -0.74,0.953 -0.662,2.315 -1.275,3.368 -2.319,4.066 -8.773,-1.417 -13.165,0.227 l -1.947,-0.191 c 5.264,2.527 9.716,6.503 14.912,9.172 8.931,4.574 19.356,4.987 29.395,5.309 22.84,0.704 45.681,1.421 68.518,2.124 -5.292,-2.895 -10.583,-5.813 -15.893,-8.713 -4.32,-2.383 -9.24,-4.816 -13.978,-3.468 -0.104,-3.816 3.367,-7.352 7.188,-7.324 -9.379,-5.796 -22.404,0.136 -32.307,-4.738 -4.148,-2.047 -7.497,-5.9 -12.063,-6.626 m -72.008,-380.464 c 0.045,0.082 0.105,0.141 0.145,0.228 l 0.885,-0.504 c -0.345,0.077 -0.676,0.19 -1.03,0.276 m 12.049,373.153 c -1.924,-0.086 -3.848,-0.164 -5.786,-0.25 0.181,-3.204 -0.14,-7.234 -3.118,-8.427 -2.659,-1.058 -6.14,0.916 -8.36,-0.877 l 1.422,-0.875 c -2.27,-1.116 -5.387,0.15 -6.228,2.523 -0.848,2.374 0.754,5.319 3.223,5.896 1.552,0.358 3.707,0.176 4.193,1.706 0.145,0.468 0.059,0.971 0.059,1.447 -0.059,2.869 2.51,5.256 5.273,5.977 2.774,0.704 5.701,0.164 8.514,-0.39 0.999,-2.078 1.285,-4.479 0.808,-6.73 m -10.179,-44.62 c -2.51,-1.793 -5.074,-3.613 -8.056,-4.307 -2.994,-0.69 -6.503,0.036 -8.236,2.546 l -0.468,0.944 c 3.871,0.581 4.134,3.304 7.071,4.307 3.358,1.107 2.214,-0.104 5.504,0 2.669,0.113 4.29,-1.829 7.339,-0.4 -0.744,-1.307 -1.947,-2.21 -3.154,-3.09 m 322.07,-84.67 c -2.051,1.166 -4.252,1.992 -6.141,3.253 -2.609,1.726 -4.651,4.29 -7.438,5.814 -2.772,1.47 -6.816,1.525 -8.482,-1.107 -1.783,-2.782 0.259,-6.604 3.091,-8.274 2.828,-1.742 6.231,-2.146 9.218,-3.412 6.035,-2.564 10.169,-8.905 10.228,-15.398 0,-6.504 -4.139,-12.83 -10.107,-15.463 -2.268,-0.943 -4.669,-1.401 -6.816,-2.568 -2.936,-1.525 -5.232,-4.248 -6.236,-7.397 -9.066,20.291 -19.087,40.091 -30.106,59.319 -3.83,-4.783 -2.414,-11.849 0.313,-17.304 2.727,-5.45 6.703,-10.465 7.76,-16.501 0.468,-2.782 0.327,-5.673 1.108,-8.342 1.366,-4.66 5.241,-8.055 8.133,-11.89 3.403,-4.452 5.672,-9.857 10.02,-13.414 4.307,-3.563 11.849,-4.194 14.74,0.58 C 2.46,82.81 0.363,77.577 -1.724,72.286 -7.061,58.815 -12.353,45.392 -17.69,31.932 c -1.402,-3.635 -2.823,-7.19 -4.234,-10.815 -5.396,-13.506 -10.792,-27.198 -19.115,-39.156 -1.307,-1.838 -2.673,-3.726 -3.032,-5.873 -0.2,-1.506 0.019,-3.031 -0.041,-4.547 -0.159,-5.45 -4.773,-10.393 -10.17,-10.965 3.976,0 4.974,-6.879 1.888,-9.807 -3.204,-3.04 -8.019,-3.404 -12.108,-5.187 -10.906,-4.674 -17.649,-19.609 -29.394,-18.199 -4.203,13.194 -8.4,26.35 -12.603,39.497 -1.688,5.178 -3.358,10.479 -3.308,15.92 0.163,9.966 5.918,18.87 8.16,28.573 2.296,9.689 -1.43,22.637 -11.278,23.885 0.885,2.251 1.783,4.556 2.668,6.862 -1.665,-0.305 -3.344,-0.626 -4.978,-0.944 3.254,6.875 4.235,17.4 -2.945,19.963 -3.145,1.108 -6.653,0.05 -9.902,0.735 -3.264,0.677 -5.991,5.129 -3.368,7.18 -11.564,0.458 -23.317,-1.488 -34.1,-5.732 -3.776,-1.475 -7.602,-3.268 -11.632,-3.104 -6.504,0.263 -11.65,5.396 -16.102,10.102 -9.439,10.157 -19.623,22.787 -16.374,36.202 1.148,4.711 3.871,9.326 2.873,14.1 -0.581,2.787 -2.46,5.188 -2.986,8.019 -0.744,3.672 0.889,7.397 2.764,10.638 5.981,10.546 14.826,19.51 25.259,25.705 -0.63,6.185 3.709,12.058 9.159,15.053 5.455,3.031 11.854,3.767 18.03,4.511 11.305,1.316 22.633,2.573 34.005,3.898 1.366,0.164 2.841,0.258 3.985,-0.422 1.888,-1.143 2.051,-3.771 2.623,-5.918 1.629,-6.131 9.067,-9.943 15.044,-7.742 2.201,-7.561 11.006,-10.487 18.666,-12.317 -0.844,4.416 0.458,9.122 3.394,12.431 2.719,-6.853 11.364,-8.904 18.766,-9.104 7.398,-0.14 15.557,0.372 21.231,-4.28 -0.781,4.974 -1.63,9.952 -2.47,14.977 -0.258,1.792 -0.622,3.73 -2.042,4.937 -1.883,1.566 -4.611,1.003 -7.084,0.935 -5.51,-0.209 -11.001,2.46 -14.205,6.971 10.052,4.129 21.376,5.3 32.122,3.258 -5.873,7.075 -10.602,15.14 -13.882,23.749 -0.79,-3.562 -1.516,-7.071 -2.306,-10.638 -1.421,3.508 -3.1,7.339 -6.444,8.963 -3.413,1.666 -8.65,-0.839 -7.974,-4.511 0.327,-1.842 1.947,-3.204 2.632,-4.928 1.317,-3.249 -0.989,-7.016 -4.138,-8.542 -3.128,-1.565 -6.794,-1.47 -10.266,-1.366 -0.363,-2.944 -0.727,-5.872 -1.144,-8.863 -1.057,2.723 -2.165,5.392 -3.204,8.12 -1.47,-1 -2.986,-1.943 -4.452,-2.946 -2.926,3.091 -5.813,6.122 -8.704,9.172 -1.679,-1.666 -3.345,-3.413 -5.033,-5.137 -5.3,4.252 -10.602,8.482 -15.893,12.679 -2.405,1.924 -4.874,3.871 -7.761,4.91 -8.808,3.25 -18.239,-2.717 -24.837,-9.335 -3.395,-3.449 -6.703,-7.542 -6.903,-12.375 -5.137,1.357 -10.324,-1.839 -15.625,-1.897 -7.075,-0.104 -13.565,6.435 -13.365,13.519 0.141,7.075 6.902,13.311 13.978,12.948 4.869,-0.313 9.53,-3.25 14.354,-2.4 1.42,6.816 -2.936,14.291 -9.543,16.441 14.358,6.771 28.763,13.537 43.122,20.264 1.783,2.782 -1.943,6.012 -5.197,6.325 -3.308,0.328 -7.075,-0.313 -9.435,2.052 -2.786,2.764 -1.062,7.856 2.183,10.166 3.19,2.305 7.329,2.841 11.06,4.143 3.508,1.203 6.635,3.091 10.102,4.348 14.981,5.359 31.082,-2.904 44.811,-10.87 l 1.202,0.422 c 0.218,-3.507 -0.785,-7.084 -2.768,-9.96 8.382,4.184 18.974,3.517 26.725,-1.617 3.368,-2.201 6.359,-5.232 10.289,-6.072 0.893,-0.217 1.783,-0.263 2.618,-0.159 19.156,-20.575 34.618,-44.628 45.315,-71.113 -34.309,85.023 -117.6,145.028 -214.909,145.028 -87.152,0 -163.049,-48.128 -202.605,-119.237 8.342,14.976 18.289,28.922 29.621,41.624 0.735,0.313 1.461,0.731 2.205,1.162 7.902,4.602 14.197,11.527 21.843,16.56 1.562,1.039 3.345,2.038 5.288,1.838 1.878,-0.159 3.671,-2.087 2.985,-3.871 -0.258,-0.74 -0.885,-1.325 -1.524,-1.779 -8.945,-7.62 -18.743,-14.273 -29.177,-19.783 -1.248,-0.63 -2.564,-1.365 -3.136,-2.623 -1.058,-2.155 0.726,-4.823 2.996,-5.609 2.241,-0.781 4.765,-0.313 7.074,0.213 -1.947,-2.777 -2.528,-6.503 -1.524,-9.753 2.142,-0.199 2.831,2.724 3.467,4.775 2.614,8.123 15.561,11.432 14.722,19.982 3.508,-1.829 7.075,2.26 9.217,5.618 2.146,3.404 6.921,6.757 9.544,3.763 0.146,-1.666 0.354,-3.345 0.508,-5.033 4.611,1.166 9.285,2.364 13.896,3.531 -2.627,-1.843 -3.517,-5.768 -2.001,-8.6 1.516,-2.832 5.291,-4.254 8.278,-3.092 -0.041,-2.468 -2.252,-4.347 -4.243,-5.812 -5.083,-3.835 -10.538,-7.761 -16.447,-9.649 l 1.361,-2.822 c -0.15,-0.06 -0.304,-0.119 -0.463,-0.119 -3.775,-0.358 -7.76,2.346 -11.794,1.825 -2.46,-0.318 -5.491,-0.318 -6.912,-2.824 -0.209,-0.326 -1.089,-4.719 -0.467,-4.356 2.201,1.266 4.392,2.528 6.557,3.775 0.667,-1.782 0.822,-3.775 0.458,-5.708 2.669,0.254 5.455,-0.309 7.82,-1.729 -2.46,-5.719 -8.799,-9.544 -15.035,-9.067 -0.059,1.887 -0.163,3.766 -0.223,5.654 -5.137,0.422 -9.321,-3.984 -11.886,-8.4 -2.613,-4.452 -4.606,-9.54 -8.903,-12.362 -2.614,-1.784 -5.819,-2.469 -8.65,-3.931 -2.773,-1.524 -5.337,-4.411 -4.757,-7.501 0.26,-1.461 1.203,-2.823 1.162,-4.348 -0.158,-2.832 -3.449,-4.148 -5.663,-5.977 -3.762,-3.149 -4.706,-8.913 -8.741,-11.691 -2.927,-2.037 -6.817,-2.001 -10.22,-3.04 -3.413,-1.048 -6.817,-4.452 -5.441,-7.761 -1.68,-0.581 -3.722,0.677 -3.885,2.46 -6.014,-11.84 -9.989,-24.742 -11.618,-37.944 2.991,-2.087 6.023,2.678 6.594,6.29 0.631,3.617 3.776,8.346 6.703,6.19 -0.676,-5.187 -1.361,-10.324 -2.029,-15.511 -0.154,-1.003 -0.258,-2.052 0.219,-2.927 0.581,-1.108 1.828,-1.576 2.782,-2.356 2.673,-2.305 2.309,-6.399 2.468,-9.907 0.154,-4.289 1.584,-8.482 3.826,-12.144 -0.218,0.735 -0.363,1.456 -0.513,2.201 4.089,-0.523 8.332,0.794 11.419,3.517 1.633,1.47 2.994,3.358 5.036,4.093 2.106,0.781 4.412,0.218 6.558,-0.363 6.653,-1.819 13.729,-3.871 18.181,-9.103 2.251,-2.673 3.671,-6.036 6.349,-8.219 6.081,-5.142 16.36,-2.882 21.92,-8.591 4.452,-4.616 3.621,-12.054 2.418,-18.389 -3.049,1.666 -7.12,-2.519 -5.337,-5.514 1.62,1.783 3.508,3.671 5.872,3.671 2.252,0.06 4.235,-2.832 3.023,-4.452 4.357,4.92 14.196,2.678 15.789,-3.835 5.872,-0.417 11.79,-0.817 17.663,-1.293 -1.135,-8.618 16.905,-9.127 16.541,-17.781 -0.054,-2.051 -1.256,-3.834 -2.305,-5.559 -4.652,-7.597 -7.474,-16.397 -8.105,-25.324 -0.618,-8.54 -0.245,-19.064 -7.683,-23.272 -4.253,-2.36 -10.22,-1.942 -13.052,-5.927 -0.885,-1.211 -1.308,-2.727 -1.725,-4.148 -1.833,-6.662 -3.671,-13.32 -5.5,-19.972 -2.356,0.199 -4.77,0.467 -7.112,0.722 2.782,-0.886 4.706,-4.652 3.041,-7.235 -2.673,1.412 -6.181,-0.258 -7.656,-2.945 -1.411,-2.669 -1.203,-5.913 -0.422,-8.859 2.423,-8.704 9.861,-15.72 18.62,-17.808 -1.524,-2.89 -6.176,-1.62 -9.017,0.304 -20.291,13.72 -35.611,34.618 -42.596,58.099 -2.46,8.278 -4.044,17.077 -8.877,24.198 -4.035,6.026 -10.116,10.429 -14.15,16.446 -5.664,8.646 -6.721,19.86 -13.27,27.761 -3.671,4.511 -9.345,10.052 -6.091,14.876 1.303,1.993 4.09,3.871 2.982,5.977 -0.363,0.677 -1.098,1.107 -1.679,1.68 -2.201,2.359 -0.685,6.081 0.422,9.121 1.829,5.291 1.829,10.955 1.039,16.61 -5.509,4.929 -9.856,11.046 -12.584,17.921 -1.62,4.194 -3.785,9.431 -8.278,9.486 -1.161,3.253 -2.364,6.494 -3.526,9.743 -0.417,-1.152 -1.552,-1.879 -2.813,-2.037 -0.332,-5.124 -0.523,-10.28 -0.523,-15.485 0,-127.956 103.727,-231.682 231.691,-231.682 126.608,0 229.477,101.566 231.632,227.656 -1.67,6.554 -3.077,13.216 -4.329,19.928 -2.324,12.566 -5.052,26.98 -16.111,33.32"
             style="fill:#ffffff;fill-opacity:1;fill-rule:nonzero;stroke:none"
             id="path24" />
        </g>
      </g>
    </g>
  </g>
</svg>
