<?xml version="1.0" encoding="UTF-8" standalone="no"?>
<!-- Created with Inkscape (http://www.inkscape.org/) -->

<svg
   version="1.1"
   id="svg2"
   width="720"
   height="192"
   viewBox="0 0 720 192"
   sodipodi:docname="logo_white.ai"
   xmlns:inkscape="http://www.inkscape.org/namespaces/inkscape"
   xmlns:sodipodi="http://sodipodi.sourceforge.net/DTD/sodipodi-0.dtd"
   xmlns="http://www.w3.org/2000/svg"
   xmlns:svg="http://www.w3.org/2000/svg">
  <defs
     id="defs6">
    <clipPath
       clipPathUnits="userSpaceOnUse"
       id="clipPath16">
      <path
         d="M 0,144 H 540 V 0 H 0 Z"
         id="path14" />
    </clipPath>
  </defs>
  <sodipodi:namedview
     id="namedview4"
     pagecolor="#ffffff"
     bordercolor="#000000"
     borderopacity="0.25"
     inkscape:showpageshadow="2"
     inkscape:pageopacity="0.0"
     inkscape:pagecheckerboard="0"
     inkscape:deskcolor="#d1d1d1" />
  <g
     id="g8"
     inkscape:groupmode="layer"
     inkscape:label="logo_white"
     transform="matrix(1.3333333,0,0,-1.3333333,0,192)">
    <g
       id="g10">
      <g
         id="g12"
         clip-path="url(#clipPath16)">
        <g
           id="g18"
           transform="translate(98.3398,51.3145)">
          <path
             d="m 0,0 c -1.121,-0.56 -2.491,-1.042 -4.11,-1.447 -1.619,-0.405 -3.378,-0.762 -5.277,-1.074 -1.901,-0.311 -3.83,-0.544 -5.791,-0.701 -1.962,-0.155 -3.816,-0.234 -5.558,-0.234 -5.17,0 -9.948,0.81 -14.338,2.429 -4.39,1.62 -8.173,3.984 -11.349,7.099 -3.176,3.113 -5.667,6.943 -7.473,11.489 -1.806,4.544 -2.708,9.714 -2.708,15.505 0,5.292 0.84,10.166 2.521,14.619 1.682,4.451 4.079,8.297 7.193,11.535 3.113,3.238 6.88,5.759 11.302,7.566 4.421,1.806 9.402,2.709 14.945,2.709 3.737,0 7.067,-0.203 9.995,-0.607 2.926,-0.406 5.698,-1.013 8.313,-1.822 0.685,-0.186 1.089,-0.389 1.214,-0.607 0.124,-0.219 0.155,-0.452 0.094,-0.7 l -1.121,-7.94 c -0.063,-0.436 -0.219,-0.747 -0.467,-0.934 -0.25,-0.187 -0.717,-0.156 -1.401,0.094 -2.928,0.934 -5.698,1.602 -8.314,2.008 -2.615,0.404 -5.417,0.607 -8.406,0.607 -3.736,0 -7.131,-0.639 -10.181,-1.915 -3.052,-1.277 -5.667,-3.082 -7.847,-5.417 -2.18,-2.336 -3.876,-5.123 -5.09,-8.36 -1.214,-3.239 -1.822,-6.851 -1.822,-10.836 0,-4.296 0.608,-8.111 1.822,-11.442 1.214,-3.332 2.926,-6.134 5.137,-8.406 2.21,-2.275 4.841,-3.987 7.893,-5.138 3.05,-1.153 6.413,-1.727 10.088,-1.727 2.802,0 5.231,0.124 7.286,0.373 2.054,0.248 3.58,0.622 4.576,1.121 v 18.774 h -15.412 c -0.373,0 -0.67,0.108 -0.887,0.327 -0.219,0.218 -0.327,0.482 -0.327,0.794 v 7.473 c 0,0.373 0.14,0.684 0.42,0.934 0.281,0.248 0.576,0.373 0.888,0.373 H -0.28 c 0.934,0 1.525,-0.156 1.775,-0.466 0.248,-0.313 0.373,-0.934 0.373,-1.868 V 3.363 C 1.868,2.429 1.682,1.714 1.308,1.215 0.934,0.717 0.498,0.312 0,0"
             style="fill:#ffffff;fill-opacity:1;fill-rule:nonzero;stroke:none"
             id="path20" />
        </g>
        <g
           id="g22"
           transform="translate(117.3945,49.0732)">
          <path
             d="m 0,0 c -0.686,0 -1.027,0.374 -1.027,1.121 v 73.604 c 0,0.311 0.108,0.575 0.327,0.795 0.217,0.217 0.481,0.326 0.794,0.326 h 7.845 c 0.311,0 0.576,-0.109 0.795,-0.326 0.217,-0.22 0.327,-0.484 0.327,-0.795 V 1.121 C 9.061,0.81 8.951,0.546 8.734,0.327 8.515,0.109 8.25,0 7.939,0 Z"
             style="fill:#ffffff;fill-opacity:1;fill-rule:nonzero;stroke:none"
             id="path24" />
        </g>
        <g
           id="g26"
           transform="translate(216.8345,93.4414)">
          <path
             d="m 0,0 c -3.736,0 -6.648,-1.476 -8.733,-4.425 -2.088,-2.951 -3.13,-7.438 -3.13,-13.463 0,-2.92 0.311,-5.513 0.934,-7.78 0.622,-2.268 1.479,-4.177 2.569,-5.729 1.089,-1.554 2.35,-2.733 3.783,-3.541 1.432,-0.808 2.957,-1.21 4.577,-1.21 3.736,0 6.663,1.52 8.78,4.565 2.116,3.043 3.176,7.608 3.176,13.695 0,5.652 -1.027,10.046 -3.082,13.182 C 6.819,-1.569 3.86,0 0,0 m 1.027,-45.583 c -2.491,0 -4.95,0.593 -7.379,1.775 -2.428,1.184 -4.266,2.648 -5.511,4.39 v -3.549 c 0,-0.996 -0.467,-1.495 -1.401,-1.495 h -7.099 c -0.996,0 -1.494,0.499 -1.494,1.495 v 73.511 c 0,0.809 0.404,1.214 1.214,1.214 h 7.66 c 0.434,0 0.731,-0.078 0.887,-0.235 0.155,-0.156 0.233,-0.483 0.233,-0.982 V 3.84 c 1.681,1.802 3.627,3.201 5.838,4.196 2.21,0.994 4.561,1.491 7.052,1.491 3.3,0 6.273,-0.653 8.921,-1.958 2.646,-1.305 4.887,-3.139 6.725,-5.501 1.836,-2.363 3.253,-5.238 4.25,-8.626 0.995,-3.388 1.494,-7.164 1.494,-11.33 0,-4.291 -0.482,-8.145 -1.447,-11.563 -0.967,-3.419 -2.367,-6.325 -4.203,-8.719 -1.838,-2.392 -4.08,-4.225 -6.726,-5.501 -2.647,-1.273 -5.651,-1.912 -9.014,-1.912"
             style="fill:#ffffff;fill-opacity:1;fill-rule:nonzero;stroke:none"
             id="path28" />
        </g>
        <g
           id="g30"
           transform="translate(263.3501,71.6777)">
          <path
             d="m 0,0 c -2.989,-1.682 -4.483,-4.203 -4.483,-7.566 0,-2.368 0.684,-4.142 2.054,-5.325 1.369,-1.183 3.207,-1.774 5.512,-1.774 3.549,0 6.397,1.308 8.545,3.923 2.149,2.615 3.223,6.693 3.223,12.236 V 2.521 C 7.939,2.521 2.989,1.682 0,0 m 16.533,-22.418 c -0.437,0 -0.717,0.047 -0.841,0.141 -0.125,0.092 -0.187,0.326 -0.187,0.7 v 4.203 c -1.557,-2.179 -3.535,-3.813 -5.931,-4.903 -2.398,-1.089 -4.81,-1.635 -7.239,-1.635 -2.554,0 -4.904,0.343 -7.052,1.027 -2.149,0.686 -3.986,1.714 -5.511,3.082 -1.527,1.371 -2.725,3.067 -3.596,5.091 -0.873,2.024 -1.308,4.374 -1.308,7.053 0,3.176 0.56,5.962 1.681,8.359 1.121,2.397 2.88,4.391 5.278,5.979 2.396,1.588 5.464,2.77 9.2,3.549 3.737,0.778 8.251,1.168 13.544,1.168 0,1.182 -0.125,2.365 -0.373,3.549 -0.25,1.182 -0.67,2.242 -1.262,3.176 -0.592,0.934 -1.417,1.696 -2.475,2.288 -1.059,0.591 -2.398,0.887 -4.016,0.887 -2.802,0 -5.341,-0.373 -7.612,-1.12 -2.274,-0.747 -4.407,-1.744 -6.399,-2.989 -0.997,-0.624 -1.667,-0.904 -2.008,-0.841 -0.343,0.061 -0.514,0.404 -0.514,1.028 v 7.099 c 0,0.248 -0.016,0.513 -0.047,0.794 -0.032,0.279 0.015,0.513 0.14,0.7 0.187,0.248 0.654,0.591 1.401,1.028 2.117,1.058 4.281,1.929 6.492,2.615 2.21,0.684 4.998,1.027 8.36,1.027 6.288,0 10.943,-1.526 13.964,-4.576 3.02,-3.052 4.53,-7.847 4.53,-14.385 v -22.138 c 0,-1.744 0.015,-3.565 0.047,-5.464 0.031,-1.9 0.14,-3.564 0.327,-4.997 0.124,-0.996 -0.219,-1.495 -1.028,-1.495 z"
             style="fill:#ffffff;fill-opacity:1;fill-rule:nonzero;stroke:none"
             id="path32" />
        </g>
        <g
           id="g34"
           transform="translate(302.7666,49.0732)">
          <path
             d="m 0,0 c -0.686,0 -1.027,0.374 -1.027,1.121 v 73.604 c 0,0.311 0.108,0.575 0.327,0.795 0.217,0.217 0.481,0.326 0.794,0.326 h 7.845 c 0.312,0 0.576,-0.109 0.794,-0.326 0.218,-0.22 0.328,-0.484 0.328,-0.795 V 1.121 C 9.061,0.81 8.951,0.546 8.733,0.327 8.515,0.109 8.251,0 7.939,0 Z"
             style="fill:#ffffff;fill-opacity:1;fill-rule:nonzero;stroke:none"
             id="path36" />
        </g>
        <g
           id="g38"
           transform="translate(389.0732,49.167)">
          <path
             d="M 0,0 C -0.499,0 -0.81,0.078 -0.934,0.233 -1.06,0.39 -1.12,0.655 -1.12,1.028 V 51.793 L -21.39,1.214 C -21.516,0.903 -21.655,0.716 -21.811,0.653 -21.966,0.592 -22.355,0.56 -22.978,0.56 h -7.472 c -0.623,0 -1.013,0.032 -1.168,0.093 -0.156,0.063 -0.296,0.25 -0.42,0.561 l -20.27,50.579 V 1.028 c 0,-0.373 -0.062,-0.638 -0.186,-0.795 C -52.62,0.078 -52.931,0 -53.429,0 h -8.686 c -0.747,0 -1.121,0.343 -1.121,1.027 v 67.44 c 0,0.871 0.093,1.415 0.28,1.635 0.187,0.217 0.778,0.326 1.775,0.326 h 11.116 c 0.434,0 0.7,-0.078 0.794,-0.233 0.092,-0.156 0.233,-0.453 0.419,-0.889 l 22.138,-54.968 22.138,54.968 c 0.186,0.436 0.326,0.733 0.42,0.889 0.094,0.155 0.357,0.233 0.794,0.233 H 7.753 c 0.995,0 1.588,-0.109 1.775,-0.326 0.187,-0.22 0.281,-0.764 0.281,-1.635 V 1.027 C 9.809,0.343 9.435,0 8.688,0 Z"
             style="fill:#ffffff;fill-opacity:1;fill-rule:nonzero;stroke:none"
             id="path40" />
        </g>
        <g
           id="g42"
           transform="translate(424.2871,49.167)">
          <path
             d="m 0,0 h -8.5 c -0.81,0 -1.214,0.405 -1.214,1.214 v 68 c 0,0.808 0.404,1.214 1.214,1.214 H 0 c 0.809,0 1.215,-0.406 1.215,-1.214 v -68 C 1.215,0.405 0.809,0 0,0"
             style="fill:#ffffff;fill-opacity:1;fill-rule:nonzero;stroke:none"
             id="path44" />
        </g>
        <g
           id="g46"
           transform="translate(493.875,51.3145)">
          <path
             d="m 0,0 c -1.121,-0.56 -2.491,-1.042 -4.11,-1.447 -1.62,-0.405 -3.379,-0.762 -5.278,-1.074 -1.9,-0.311 -3.83,-0.544 -5.791,-0.701 -1.962,-0.155 -3.815,-0.234 -5.557,-0.234 -5.17,0 -9.949,0.81 -14.338,2.429 -4.391,1.62 -8.174,3.984 -11.35,7.099 -3.176,3.113 -5.667,6.943 -7.472,11.489 -1.807,4.544 -2.708,9.714 -2.708,15.505 0,5.292 0.84,10.166 2.521,14.619 1.682,4.451 4.078,8.297 7.192,11.535 3.114,3.238 6.88,5.759 11.303,7.566 4.42,1.806 9.401,2.709 14.944,2.709 3.737,0 7.068,-0.203 9.996,-0.607 2.925,-0.406 5.697,-1.013 8.312,-1.822 0.685,-0.186 1.089,-0.389 1.215,-0.607 0.124,-0.219 0.154,-0.452 0.094,-0.7 l -1.121,-7.94 c -0.063,-0.436 -0.219,-0.747 -0.467,-0.934 -0.25,-0.187 -0.717,-0.156 -1.402,0.094 -2.927,0.934 -5.698,1.602 -8.313,2.008 -2.615,0.404 -5.418,0.607 -8.406,0.607 -3.737,0 -7.131,-0.639 -10.182,-1.915 -3.052,-1.277 -5.667,-3.082 -7.846,-5.417 -2.18,-2.336 -3.877,-5.123 -5.09,-8.36 -1.215,-3.239 -1.822,-6.851 -1.822,-10.836 0,-4.296 0.607,-8.111 1.822,-11.442 1.213,-3.332 2.925,-6.134 5.136,-8.406 2.21,-2.275 4.842,-3.987 7.894,-5.138 3.05,-1.153 6.413,-1.727 10.088,-1.727 2.801,0 5.23,0.124 7.285,0.373 2.055,0.248 3.58,0.622 4.577,1.121 v 18.774 h -15.412 c -0.374,0 -0.67,0.108 -0.888,0.327 -0.219,0.218 -0.326,0.482 -0.326,0.794 v 7.473 c 0,0.373 0.14,0.684 0.42,0.934 0.28,0.248 0.575,0.373 0.888,0.373 H -0.28 c 0.933,0 1.525,-0.156 1.774,-0.466 0.248,-0.313 0.374,-0.934 0.374,-1.868 V 3.363 C 1.868,2.429 1.681,1.714 1.308,1.215 0.934,0.717 0.497,0.312 0,0"
             style="fill:#ffffff;fill-opacity:1;fill-rule:nonzero;stroke:none"
             id="path48" />
        </g>
        <g
           id="g50"
           transform="translate(159.6879,108.0591)">
          <path
             d="m 0,0 c -16.12,0 -29.19,-13.069 -29.19,-29.19 0,-16.12 13.07,-29.189 29.19,-29.189 16.12,0 29.19,13.069 29.19,29.189 C 29.19,-13.069 16.12,0 0,0 m 0,-0.66 c 15.731,0 28.529,-12.799 28.529,-28.53 0,-15.731 -12.798,-28.529 -28.529,-28.529 -15.731,0 -28.529,12.798 -28.529,28.529 0,15.731 12.798,28.53 28.529,28.53"
             style="fill:#ffffff;fill-opacity:1;fill-rule:nonzero;stroke:none"
             id="path52" />
        </g>
        <g
           id="g54"
           transform="translate(184.3032,67.4371)">
          <path
             d="M 0,0 C -0.079,-0.159 -0.258,-0.236 -0.402,-0.343 -1.413,-1.092 -0.44,-3.075 -1.465,-3.805 -1.821,-4.06 -2.3,-4.047 -2.738,-4.01 -2.842,-4 -2.95,-3.991 -3.042,-3.944 c -0.402,0.201 -0.243,0.828 0.06,1.161 0.302,0.334 0.721,0.668 0.678,1.117 -0.028,0.27 -0.227,0.532 -0.143,0.791 0.099,0.304 0.494,0.357 0.791,0.477 0.563,0.227 0.894,0.911 0.729,1.494 l 0.476,0.337 C -0.642,0.94 0.239,0.472 0,0 m -26.765,34.147 c 0.388,0.089 0.725,0.318 1.087,0.486 0.362,0.168 0.794,0.266 1.15,0.09 0.106,-0.265 -0.199,-0.506 -0.467,-0.6 -0.514,-0.18 -1.071,-0.23 -1.609,-0.14 z m -2.964,0.629 c -0.332,-0.053 -0.677,0.036 -1.007,-0.037 -0.552,-0.12 -0.899,-0.644 -1.308,-1.033 -0.47,-0.45 -1.16,-0.758 -1.774,-0.544 -0.613,0.216 -0.935,1.128 -0.442,1.555 0.242,0.21 0.588,0.244 0.874,0.392 0.287,0.146 0.511,0.537 0.297,0.775 -0.093,0.105 -0.246,0.144 -0.332,0.256 -0.093,0.12 -0.083,0.291 -0.16,0.423 -0.291,0.511 -1.102,-0.178 -1.654,0.028 l -0.245,-0.024 c 0.662,0.318 1.221,0.817 1.874,1.153 1.122,0.574 2.431,0.626 3.692,0.667 2.87,0.088 5.739,0.178 8.608,0.266 -0.665,-0.363 -1.33,-0.73 -1.997,-1.094 -0.542,-0.3 -1.16,-0.605 -1.756,-0.436 -0.013,-0.479 0.423,-0.923 0.903,-0.92 -1.178,-0.728 -2.814,0.017 -4.058,-0.595 -0.521,-0.257 -0.942,-0.741 -1.515,-0.832 m -9.046,-47.796 c 0.005,0.011 0.013,0.018 0.018,0.029 l 0.111,-0.063 c -0.043,0.009 -0.085,0.024 -0.129,0.034 m 1.513,46.877 c -0.242,-0.011 -0.483,-0.02 -0.727,-0.031 0.023,-0.403 -0.017,-0.909 -0.391,-1.059 -0.334,-0.133 -0.772,0.115 -1.05,-0.11 l 0.178,-0.11 c -0.285,-0.14 -0.677,0.019 -0.782,0.317 -0.107,0.298 0.094,0.668 0.405,0.741 0.195,0.045 0.465,0.022 0.526,0.214 0.019,0.059 0.008,0.122 0.008,0.182 -0.008,0.36 0.315,0.66 0.662,0.751 0.349,0.088 0.716,0.02 1.07,-0.049 0.125,-0.261 0.161,-0.563 0.101,-0.846 m -1.279,-5.605 c -0.315,-0.225 -0.637,-0.454 -1.012,-0.541 -0.376,-0.087 -0.816,0.004 -1.034,0.32 l -0.059,0.118 c 0.486,0.073 0.519,0.415 0.888,0.541 0.422,0.139 0.278,-0.013 0.692,0 0.335,0.014 0.539,-0.23 0.922,-0.05 -0.094,-0.164 -0.245,-0.278 -0.397,-0.388 M 1.919,17.615 c -0.258,0.147 -0.534,0.251 -0.771,0.409 -0.328,0.217 -0.585,0.539 -0.935,0.73 -0.348,0.185 -0.856,0.192 -1.065,-0.139 -0.224,-0.349 0.032,-0.829 0.388,-1.039 0.355,-0.219 0.783,-0.27 1.158,-0.429 0.758,-0.322 1.277,-1.118 1.285,-1.934 0,-0.817 -0.52,-1.612 -1.27,-1.943 -0.285,-0.118 -0.586,-0.176 -0.856,-0.322 -0.369,-0.192 -0.657,-0.534 -0.783,-0.929 -1.139,2.548 -2.398,5.036 -3.782,7.451 -0.482,-0.6 -0.304,-1.488 0.039,-2.173 0.342,-0.685 0.842,-1.315 0.975,-2.073 0.058,-0.35 0.041,-0.713 0.139,-1.048 0.171,-0.586 0.658,-1.012 1.021,-1.494 0.428,-0.559 0.713,-1.238 1.259,-1.685 C -0.738,10.549 0.21,10.47 0.573,11.07 0.309,10.403 0.046,9.745 -0.217,9.081 -0.887,7.389 -1.552,5.702 -2.222,4.011 -2.398,3.555 -2.577,3.108 -2.754,2.653 -3.432,0.956 -4.11,-0.764 -5.155,-2.266 -5.32,-2.497 -5.491,-2.734 -5.536,-3.004 c -0.025,-0.189 0.002,-0.381 -0.005,-0.571 -0.02,-0.685 -0.6,-1.306 -1.278,-1.378 0.499,0 0.625,-0.864 0.237,-1.232 -0.402,-0.381 -1.007,-0.427 -1.521,-0.651 -1.37,-0.587 -2.217,-2.464 -3.693,-2.286 -0.528,1.657 -1.055,3.31 -1.583,4.961 -0.212,0.651 -0.422,1.317 -0.415,2 0.02,1.252 0.743,2.371 1.025,3.59 0.288,1.217 -0.18,2.843 -1.417,3 0.111,0.283 0.224,0.573 0.335,0.862 -0.209,-0.038 -0.42,-0.078 -0.625,-0.118 0.409,0.863 0.532,2.185 -0.37,2.507 -0.395,0.14 -0.836,0.007 -1.244,0.093 -0.41,0.085 -0.753,0.644 -0.423,0.902 -1.453,0.057 -2.929,-0.187 -4.284,-0.72 -0.474,-0.186 -0.955,-0.411 -1.461,-0.39 -0.817,0.033 -1.464,0.678 -2.023,1.269 -1.186,1.276 -2.465,2.862 -2.057,4.548 0.144,0.591 0.486,1.171 0.361,1.771 -0.073,0.35 -0.309,0.652 -0.375,1.007 -0.094,0.462 0.112,0.93 0.347,1.337 0.751,1.325 1.863,2.451 3.173,3.229 -0.079,0.777 0.466,1.515 1.151,1.891 0.685,0.381 1.489,0.473 2.265,0.567 1.42,0.165 2.843,0.323 4.272,0.489 0.171,0.021 0.357,0.033 0.5,-0.053 0.237,-0.143 0.258,-0.474 0.33,-0.743 0.204,-0.77 1.139,-1.249 1.89,-0.973 0.276,-0.95 1.382,-1.317 2.344,-1.547 -0.106,0.555 0.058,1.146 0.427,1.561 0.341,-0.86 1.427,-1.118 2.357,-1.143 0.93,-0.018 1.955,0.047 2.667,-0.538 -0.098,0.625 -0.204,1.25 -0.31,1.882 -0.032,0.225 -0.078,0.468 -0.256,0.62 -0.237,0.197 -0.58,0.126 -0.89,0.117 -0.692,-0.026 -1.382,0.309 -1.785,0.876 1.263,0.519 2.685,0.666 4.035,0.409 -0.737,0.889 -1.331,1.902 -1.743,2.984 -0.1,-0.448 -0.191,-0.889 -0.29,-1.337 -0.179,0.441 -0.39,0.922 -0.81,1.126 -0.428,0.21 -1.086,-0.105 -1.001,-0.566 0.041,-0.232 0.244,-0.403 0.33,-0.619 0.166,-0.409 -0.124,-0.882 -0.52,-1.073 -0.392,-0.197 -0.853,-0.185 -1.289,-0.172 -0.046,-0.37 -0.091,-0.738 -0.144,-1.114 -0.133,0.343 -0.272,0.678 -0.402,1.02 -0.185,-0.125 -0.376,-0.244 -0.56,-0.37 -0.367,0.389 -0.73,0.77 -1.093,1.153 -0.211,-0.21 -0.42,-0.429 -0.632,-0.646 -0.666,0.534 -1.332,1.066 -1.997,1.593 -0.302,0.242 -0.612,0.486 -0.975,0.617 -1.106,0.408 -2.291,-0.341 -3.12,-1.173 -0.426,-0.433 -0.842,-0.947 -0.867,-1.554 -0.645,0.17 -1.297,-0.231 -1.963,-0.239 -0.889,-0.013 -1.704,0.809 -1.679,1.699 0.018,0.888 0.867,1.672 1.756,1.626 0.612,-0.039 1.197,-0.408 1.803,-0.301 0.179,0.856 -0.369,1.795 -1.199,2.065 1.804,0.851 3.614,1.701 5.417,2.546 0.224,0.349 -0.244,0.755 -0.652,0.794 -0.416,0.041 -0.889,-0.039 -1.186,0.258 -0.35,0.347 -0.133,0.987 0.275,1.277 0.4,0.29 0.92,0.357 1.389,0.521 0.441,0.151 0.834,0.388 1.269,0.546 1.882,0.673 3.905,-0.365 5.629,-1.366 l 0.151,0.053 c 0.028,-0.44 -0.098,-0.89 -0.347,-1.251 1.053,0.526 2.383,0.442 3.357,-0.203 0.423,-0.276 0.799,-0.657 1.293,-0.763 0.112,-0.027 0.223,-0.033 0.328,-0.02 2.407,-2.585 4.349,-5.606 5.693,-8.933 -4.31,10.681 -14.773,18.219 -26.998,18.219 -10.948,0 -20.482,-6.046 -25.452,-14.979 1.048,1.881 2.298,3.633 3.722,5.229 0.092,0.039 0.183,0.091 0.277,0.146 0.992,0.578 1.783,1.448 2.744,2.08 0.196,0.13 0.42,0.256 0.664,0.231 0.236,-0.02 0.461,-0.262 0.375,-0.486 -0.033,-0.093 -0.111,-0.167 -0.192,-0.224 -1.123,-0.957 -2.354,-1.793 -3.665,-2.485 -0.157,-0.079 -0.322,-0.172 -0.394,-0.33 -0.133,-0.27 0.091,-0.606 0.376,-0.704 0.282,-0.098 0.599,-0.04 0.889,0.026 -0.244,-0.348 -0.317,-0.816 -0.191,-1.225 0.269,-0.025 0.355,0.342 0.435,0.6 0.329,1.021 1.955,1.436 1.85,2.51 0.44,-0.229 0.888,0.284 1.158,0.706 0.269,0.428 0.869,0.849 1.198,0.473 0.019,-0.209 0.045,-0.42 0.064,-0.632 0.58,0.146 1.167,0.297 1.746,0.443 -0.33,-0.231 -0.442,-0.725 -0.251,-1.08 0.19,-0.356 0.664,-0.535 1.039,-0.389 -0.005,-0.31 -0.282,-0.546 -0.533,-0.73 -0.638,-0.482 -1.323,-0.975 -2.066,-1.212 l 0.171,-0.354 c -0.018,-0.008 -0.038,-0.015 -0.058,-0.015 -0.474,-0.045 -0.975,0.294 -1.482,0.229 -0.309,-0.04 -0.689,-0.04 -0.868,-0.355 -0.026,-0.041 -0.137,-0.593 -0.058,-0.547 0.276,0.159 0.551,0.318 0.823,0.474 0.084,-0.224 0.103,-0.474 0.058,-0.717 0.335,0.032 0.685,-0.039 0.982,-0.217 -0.309,-0.719 -1.105,-1.199 -1.889,-1.139 -0.007,0.237 -0.02,0.473 -0.028,0.71 -0.645,0.053 -1.171,-0.5 -1.493,-1.055 -0.328,-0.559 -0.578,-1.199 -1.118,-1.553 -0.329,-0.224 -0.731,-0.31 -1.087,-0.494 -0.348,-0.191 -0.67,-0.554 -0.597,-0.942 0.032,-0.184 0.151,-0.355 0.146,-0.546 -0.02,-0.356 -0.434,-0.522 -0.712,-0.751 -0.472,-0.396 -0.591,-1.12 -1.098,-1.469 -0.368,-0.256 -0.856,-0.251 -1.284,-0.382 -0.429,-0.132 -0.856,-0.559 -0.683,-0.975 -0.211,-0.073 -0.468,0.085 -0.488,0.309 -0.756,-1.487 -1.255,-3.108 -1.46,-4.766 0.376,-0.263 0.757,0.336 0.829,0.79 0.079,0.454 0.474,1.048 0.842,0.777 -0.085,-0.651 -0.171,-1.297 -0.255,-1.948 -0.02,-0.126 -0.033,-0.258 0.027,-0.368 0.073,-0.139 0.23,-0.198 0.35,-0.296 0.335,-0.289 0.29,-0.804 0.31,-1.244 0.019,-0.539 0.199,-1.066 0.48,-1.526 -0.027,0.092 -0.045,0.183 -0.064,0.277 0.514,-0.066 1.047,0.099 1.434,0.441 0.206,0.185 0.377,0.422 0.633,0.515 0.265,0.098 0.554,0.027 0.824,-0.046 0.836,-0.229 1.725,-0.486 2.284,-1.144 0.283,-0.335 0.461,-0.758 0.797,-1.032 0.764,-0.646 2.056,-0.362 2.754,-1.079 0.559,-0.58 0.455,-1.515 0.304,-2.31 -0.383,0.209 -0.895,-0.317 -0.671,-0.693 0.204,0.224 0.441,0.461 0.738,0.461 0.283,0.008 0.532,-0.356 0.38,-0.559 0.547,0.618 1.783,0.336 1.983,-0.482 0.738,-0.052 1.481,-0.103 2.219,-0.162 -0.142,-1.083 2.124,-1.147 2.078,-2.234 -0.007,-0.258 -0.158,-0.482 -0.289,-0.699 -0.585,-0.954 -0.939,-2.059 -1.019,-3.181 -0.077,-1.073 -0.03,-2.395 -0.965,-2.923 -0.534,-0.297 -1.284,-0.244 -1.639,-0.745 -0.112,-0.152 -0.165,-0.342 -0.217,-0.521 -0.23,-0.837 -0.461,-1.673 -0.691,-2.509 -0.296,0.025 -0.599,0.059 -0.893,0.091 0.349,-0.111 0.591,-0.585 0.381,-0.909 -0.335,0.177 -0.776,-0.033 -0.961,-0.37 -0.178,-0.335 -0.151,-0.743 -0.053,-1.113 0.304,-1.093 1.239,-1.975 2.339,-2.237 -0.192,-0.363 -0.776,-0.203 -1.133,0.038 -2.549,1.724 -4.474,4.349 -5.351,7.299 -0.309,1.04 -0.508,2.145 -1.115,3.04 -0.507,0.757 -1.271,1.31 -1.778,2.066 -0.711,1.086 -0.844,2.495 -1.667,3.487 -0.461,0.567 -1.174,1.263 -0.765,1.869 0.164,0.25 0.514,0.486 0.375,0.751 -0.046,0.085 -0.138,0.139 -0.211,0.211 -0.277,0.296 -0.086,0.764 0.053,1.146 0.23,0.664 0.23,1.376 0.13,2.086 -0.692,0.619 -1.238,1.388 -1.581,2.251 -0.203,0.527 -0.475,1.185 -1.039,1.192 -0.146,0.409 -0.297,0.816 -0.443,1.224 -0.053,-0.145 -0.195,-0.236 -0.354,-0.256 -0.041,-0.644 -0.065,-1.291 -0.065,-1.945 0,-16.074 13.03,-29.105 29.105,-29.105 15.905,0 28.828,12.759 29.099,28.599 -0.21,0.823 -0.387,1.66 -0.544,2.504 -0.292,1.578 -0.635,3.389 -2.024,4.185"
             style="fill:#ffffff;fill-opacity:1;fill-rule:nonzero;stroke:none"
             id="path56" />
        </g>
        <g
           id="g58"
           transform="translate(70.4673,20.127)">
          <path
             d="m 0,0 c 0,-0.247 -0.171,-0.384 -0.48,-0.384 h -1.543 c -0.309,0 -0.48,0.137 -0.48,0.384 v 18.189 c -1.68,-3.374 -3.223,-6.364 -4.56,-9.025 -2.263,-4.527 -4.629,-9.081 -4.629,-9.137 -0.102,-0.191 -0.274,-0.274 -0.514,-0.274 h -1.543 c -0.309,0 -0.412,0.083 -0.514,0.274 l -9.464,18.162 V 0 c 0,-0.247 -0.171,-0.384 -0.48,-0.384 h -1.542 c -0.309,0 -0.48,0.137 -0.48,0.384 v 19.205 c 0,0.769 0,0.769 0.96,0.769 h 2.571 c 0.377,0 0.48,-0.029 0.617,-0.33 l 9.121,-17.75 8.846,17.777 c 0.102,0.192 0.274,0.303 0.548,0.303 h 2.606 c 0.96,0 0.96,0 0.96,-0.769 z"
             style="fill:#ffffff;fill-opacity:1;fill-rule:nonzero;stroke:none"
             id="path60" />
        </g>
        <g
           id="g62"
           transform="translate(87.8496,27.4795)">
          <path
             d="m 0,0 h -0.651 c -2.572,0.083 -4.561,-0.191 -5.898,-0.604 -1.92,-0.548 -2.88,-1.645 -2.88,-3.154 0,-0.906 0.343,-1.756 1.132,-2.195 0.685,-0.439 1.611,-0.658 2.742,-0.658 3.189,0 5.555,2.057 5.555,5.678 z m -10.252,4.938 v 1.043 c 0,0.248 0.171,0.439 0.48,0.577 1.612,0.685 3.36,0.932 5.521,0.932 4.56,0 6.583,-1.728 6.583,-5.24 v -6.886 c 0,-1.097 0.034,-1.921 0.136,-2.717 0,-0.247 -0.171,-0.383 -0.48,-0.383 H 0.754 c -0.308,0 -0.48,0.136 -0.48,0.383 v 2.113 c -0.96,-1.865 -3.463,-2.936 -6.103,-2.936 -2.297,0 -4.011,0.549 -5.074,1.619 -0.72,0.742 -1.097,1.756 -1.097,2.716 0,2.223 1.268,3.897 3.977,4.692 1.646,0.466 4.183,0.713 7.577,0.713 H 0 v 0.824 c 0,2.303 -1.2,3.539 -4.251,3.539 -2.058,0 -3.875,-0.329 -5.521,-1.125 -0.24,-0.111 -0.48,-0.055 -0.48,0.136"
             style="fill:#ffffff;fill-opacity:1;fill-rule:nonzero;stroke:none"
             id="path64" />
        </g>
        <g
           id="g66"
           transform="translate(96.4204,19.7432)">
          <path
             d="m 0,0 c -0.309,0 -0.48,0.137 -0.48,0.384 v 14.074 c 0,0.247 0.171,0.385 0.48,0.385 h 1.509 c 0.308,0 0.48,-0.138 0.48,-0.385 V 0.384 C 1.989,0.137 1.817,0 1.509,0 Z m 0.72,21.372 c 0.926,0 1.68,-0.603 1.68,-1.345 0,-0.74 -0.754,-1.316 -1.68,-1.316 -0.926,0 -1.646,0.576 -1.646,1.316 0,0.742 0.72,1.345 1.646,1.345"
             style="fill:#ffffff;fill-opacity:1;fill-rule:nonzero;stroke:none"
             id="path68" />
        </g>
        <g
           id="g70"
           transform="translate(104.7515,19.7432)">
          <path
             d="m 0,0 c -0.309,0 -0.48,0.137 -0.48,0.384 v 21.043 c 0,0.247 0.171,0.384 0.48,0.384 h 1.509 c 0.308,0 0.48,-0.137 0.48,-0.384 V 0.384 C 1.989,0.137 1.817,0 1.509,0 Z"
             style="fill:#ffffff;fill-opacity:1;fill-rule:nonzero;stroke:none"
             id="path72" />
        </g>
        <g
           id="g74"
           transform="translate(120.2827,29.7021)">
          <path
             d="m 0,0 c 0,-0.411 0.034,-0.384 -0.48,-0.384 h -8.023 c -0.515,0 -0.48,-0.027 -0.48,0.384 v 1.207 c 0,0.412 -0.035,0.384 0.48,0.384 H -0.48 C 0.034,1.591 0,1.619 0,1.207 Z"
             style="fill:#ffffff;fill-opacity:1;fill-rule:nonzero;stroke:none"
             id="path76" />
        </g>
        <g
           id="g78"
           transform="translate(136.98,31.5674)">
          <path
             d="m 0,0 c -1.2,1.18 -2.743,1.756 -4.629,1.756 -1.92,0 -3.429,-0.631 -4.628,-1.756 -1.063,-1.18 -1.646,-2.688 -1.646,-4.417 0,-1.756 0.583,-3.292 1.646,-4.417 1.199,-1.18 2.742,-1.783 4.628,-1.783 1.92,0 3.429,0.658 4.629,1.783 0.994,1.125 1.611,2.661 1.611,4.417 C 1.611,-2.688 0.994,-1.18 0,0 m 2.023,-9.849 c -1.612,-1.537 -3.806,-2.415 -6.652,-2.415 -2.846,0 -5.074,0.878 -6.685,2.415 -1.269,1.4 -2.092,3.265 -2.092,5.432 0,2.223 0.686,4.033 2.092,5.433 1.611,1.59 3.839,2.386 6.685,2.386 2.88,0 5.04,-0.768 6.652,-2.386 1.406,-1.454 2.125,-3.265 2.125,-5.433 0,-2.167 -0.856,-4.032 -2.125,-5.432"
             style="fill:#ffffff;fill-opacity:1;fill-rule:nonzero;stroke:none"
             id="path80" />
        </g>
        <g
           id="g82"
           transform="translate(152.853,33.0771)">
          <path
             d="m 0,0 c -1.68,0 -2.948,-0.659 -3.771,-2.003 -0.652,-1.043 -0.96,-2.387 -0.96,-4.006 v -6.941 c 0,-0.247 -0.172,-0.384 -0.48,-0.384 h -1.337 c -0.309,0 -0.48,0.137 -0.48,0.384 v 11.138 c 0,1.318 -0.035,1.976 -0.069,2.936 0,0.247 0.171,0.385 0.48,0.385 h 1.268 c 0.309,0 0.48,-0.138 0.48,-0.385 v -2.688 c 1.132,2.304 2.778,3.457 4.938,3.457 0.514,0 1.063,-0.055 1.577,-0.165 C 1.92,1.646 2.16,1.509 2.16,1.207 V 0.055 c 0,-0.22 -0.274,-0.302 -0.514,-0.22 C 1.234,-0.056 0.686,0 0,0"
             style="fill:#ffffff;fill-opacity:1;fill-rule:nonzero;stroke:none"
             id="path84" />
        </g>
        <g
           id="g86"
           transform="translate(160.8071,22.9805)">
          <path
             d="m 0,0 c 0.994,-1.316 2.4,-2.03 4.423,-2.03 3.703,0 5.554,3.375 5.554,6.227 0,3.512 -1.92,6.146 -5.554,6.146 C 2.469,10.343 0.994,9.685 0,8.341 -0.72,7.271 -1.063,5.844 -1.063,4.197 -1.063,2.469 -0.72,1.07 0,0 m 12.274,-2.854 c 0,-0.247 -0.171,-0.383 -0.48,-0.383 h -1.337 c -0.309,0 -0.48,0.136 -0.48,0.383 v 2.058 C 8.743,-2.661 6.754,-3.594 4.011,-3.594 c -2.434,0 -4.354,0.74 -5.725,2.249 -1.269,1.4 -1.886,3.239 -1.886,5.542 0,5.131 2.537,7.71 7.611,7.71 2.743,0 5.006,-0.961 5.966,-2.359 v 8.641 c 0,0.248 0.171,0.384 0.48,0.384 h 1.337 c 0.309,0 0.48,-0.136 0.48,-0.384 z"
             style="fill:#ffffff;fill-opacity:1;fill-rule:nonzero;stroke:none"
             id="path88" />
        </g>
        <g
           id="g90"
           transform="translate(190.4639,28.1934)">
          <path
             d="M 0,0 C 0,1.509 -0.343,2.634 -1.131,3.594 -1.988,4.664 -3.188,5.213 -4.8,5.213 -6.446,5.213 -7.783,4.664 -8.812,3.566 -9.634,2.579 -10.251,1.207 -10.286,0 Z m -10.286,-1.563 c -0.103,-3.623 2.434,-5.68 6.172,-5.68 1.817,0 3.428,0.247 4.8,0.878 0.309,0.109 0.446,0.054 0.446,-0.193 v -1.234 c 0,-0.164 -0.137,-0.302 -0.378,-0.384 -1.508,-0.467 -3.12,-0.714 -5.04,-0.714 -5.623,0 -8.537,2.607 -8.537,7.874 0,2.332 0.72,4.199 2.16,5.625 1.509,1.454 3.429,2.167 5.726,2.167 2.571,0 4.389,-0.741 5.726,-2.195 1.166,-1.289 1.749,-3.045 1.749,-5.212 0,-0.961 0.034,-0.932 -1.235,-0.932 z"
             style="fill:#ffffff;fill-opacity:1;fill-rule:nonzero;stroke:none"
             id="path92" />
        </g>
        <g
           id="g94"
           transform="translate(204.7607,33.0771)">
          <path
             d="m 0,0 c -1.68,0 -2.948,-0.659 -3.771,-2.003 -0.652,-1.043 -0.96,-2.387 -0.96,-4.006 v -6.941 c 0,-0.247 -0.172,-0.384 -0.48,-0.384 h -1.337 c -0.309,0 -0.48,0.137 -0.48,0.384 v 11.138 c 0,1.318 -0.035,1.976 -0.069,2.936 0,0.247 0.171,0.385 0.48,0.385 h 1.268 c 0.309,0 0.48,-0.138 0.48,-0.385 v -2.688 c 1.132,2.304 2.778,3.457 4.938,3.457 0.514,0 1.063,-0.055 1.577,-0.165 C 1.92,1.646 2.16,1.509 2.16,1.207 V 0.055 c 0,-0.22 -0.274,-0.302 -0.514,-0.22 C 1.234,-0.056 0.686,0 0,0"
             style="fill:#ffffff;fill-opacity:1;fill-rule:nonzero;stroke:none"
             id="path96" />
        </g>
        <g
           id="g98"
           transform="translate(220.1548,19.7432)">
          <path
             d="m 0,0 c -0.309,0 -0.48,0.137 -0.48,0.384 v 19.534 c 0,0.247 0.171,0.384 0.48,0.384 h 1.646 c 0.308,0 0.48,-0.137 0.48,-0.384 V 0.384 C 2.126,0.137 1.954,0 1.646,0 Z"
             style="fill:#ffffff;fill-opacity:1;fill-rule:nonzero;stroke:none"
             id="path100" />
        </g>
        <g
           id="g102"
           transform="translate(242.7148,20.127)">
          <path
             d="m 0,0 c 0,-0.247 -0.171,-0.384 -0.48,-0.384 h -1.372 c -0.308,0 -0.48,0.137 -0.48,0.384 v 8.643 c 0,3.374 -1.577,4.636 -4.319,4.636 -3.703,0 -5.692,-1.728 -5.692,-4.691 V 0 c 0,-0.247 -0.172,-0.384 -0.48,-0.384 h -1.372 c -0.308,0 -0.48,0.137 -0.48,0.384 v 10.975 c 0,1.563 0,2.304 -0.102,3.099 -0.035,0.247 0.205,0.385 0.48,0.385 h 1.234 c 0.309,0 0.48,-0.138 0.48,-0.385 v -1.509 c 1.269,1.565 2.88,2.278 6.034,2.278 C -2.194,14.843 0,12.73 0,9.081 Z"
             style="fill:#ffffff;fill-opacity:1;fill-rule:nonzero;stroke:none"
             id="path104" />
        </g>
        <g
           id="g106"
           transform="translate(263.4912,20.127)">
          <path
             d="m 0,0 c 0,-0.247 -0.171,-0.384 -0.48,-0.384 h -1.372 c -0.308,0 -0.48,0.137 -0.48,0.384 v 8.643 c 0,3.374 -1.577,4.636 -4.319,4.636 -3.703,0 -5.692,-1.728 -5.692,-4.691 V 0 c 0,-0.247 -0.172,-0.384 -0.48,-0.384 h -1.372 c -0.308,0 -0.48,0.137 -0.48,0.384 v 10.975 c 0,1.563 0,2.304 -0.102,3.099 -0.035,0.247 0.205,0.385 0.48,0.385 h 1.234 c 0.309,0 0.48,-0.138 0.48,-0.385 v -1.509 c 1.269,1.565 2.88,2.278 6.034,2.278 C -2.194,14.843 0,12.73 0,9.081 Z"
             style="fill:#ffffff;fill-opacity:1;fill-rule:nonzero;stroke:none"
             id="path108" />
        </g>
        <g
           id="g110"
           transform="translate(281.5596,31.5674)">
          <path
             d="m 0,0 c -1.2,1.18 -2.743,1.756 -4.629,1.756 -1.92,0 -3.429,-0.631 -4.629,-1.756 -1.062,-1.18 -1.645,-2.688 -1.645,-4.417 0,-1.756 0.583,-3.292 1.645,-4.417 1.2,-1.18 2.743,-1.783 4.629,-1.783 1.92,0 3.429,0.658 4.629,1.783 0.994,1.125 1.611,2.661 1.611,4.417 C 1.611,-2.688 0.994,-1.18 0,0 m 2.022,-9.849 c -1.611,-1.537 -3.805,-2.415 -6.651,-2.415 -2.846,0 -5.074,0.878 -6.686,2.415 -1.268,1.4 -2.091,3.265 -2.091,5.432 0,2.223 0.686,4.033 2.091,5.433 1.612,1.59 3.84,2.386 6.686,2.386 2.88,0 5.04,-0.768 6.651,-2.386 1.407,-1.454 2.126,-3.265 2.126,-5.433 0,-2.167 -0.857,-4.032 -2.126,-5.432"
             style="fill:#ffffff;fill-opacity:1;fill-rule:nonzero;stroke:none"
             id="path112" />
        </g>
        <g
           id="g114"
           transform="translate(297.0557,20.0996)">
          <path
             d="m 0,0 c -0.103,-0.247 -0.343,-0.356 -0.686,-0.356 h -1.68 c -0.343,0 -0.548,0.109 -0.652,0.356 l -6.034,14.102 c -0.102,0.192 0.07,0.384 0.343,0.384 h 1.543 c 0.274,0 0.48,-0.137 0.617,-0.384 L -1.475,1.536 3.806,14.102 c 0.102,0.219 0.342,0.384 0.617,0.384 h 1.509 c 0.274,0 0.445,-0.192 0.342,-0.384 z"
             style="fill:#ffffff;fill-opacity:1;fill-rule:nonzero;stroke:none"
             id="path116" />
        </g>
        <g
           id="g118"
           transform="translate(317.5244,27.4795)">
          <path
             d="m 0,0 h -0.651 c -2.572,0.083 -4.561,-0.191 -5.898,-0.604 -1.92,-0.548 -2.88,-1.645 -2.88,-3.154 0,-0.906 0.343,-1.756 1.131,-2.195 0.687,-0.439 1.612,-0.658 2.743,-0.658 3.189,0 5.555,2.057 5.555,5.678 z m -10.252,4.938 v 1.043 c 0,0.248 0.172,0.439 0.481,0.577 1.611,0.685 3.359,0.932 5.519,0.932 4.561,0 6.583,-1.728 6.583,-5.24 v -6.886 c 0,-1.097 0.034,-1.921 0.138,-2.717 0,-0.247 -0.172,-0.383 -0.481,-0.383 H 0.754 c -0.309,0 -0.48,0.136 -0.48,0.383 v 2.113 c -0.96,-1.865 -3.462,-2.936 -6.103,-2.936 -2.297,0 -4.012,0.549 -5.074,1.619 -0.72,0.742 -1.097,1.756 -1.097,2.716 0,2.223 1.269,3.897 3.977,4.692 1.646,0.466 4.183,0.713 7.577,0.713 H 0 v 0.824 c 0,2.303 -1.2,3.539 -4.252,3.539 -2.057,0 -3.874,-0.329 -5.519,-1.125 -0.241,-0.111 -0.481,-0.055 -0.481,0.136"
             style="fill:#ffffff;fill-opacity:1;fill-rule:nonzero;stroke:none"
             id="path120" />
        </g>
        <g
           id="g122"
           transform="translate(331.4443,19.3037)">
          <path
             d="m 0,0 c -1.852,0 -3.086,0.494 -3.669,1.454 -0.377,0.659 -0.583,1.812 -0.583,3.484 v 8.752 h -3.223 c -0.308,0 -0.48,0.138 -0.48,0.385 v 0.822 c 0,0.248 0.172,0.385 0.48,0.385 h 3.223 v 3.703 c 0,0.275 0.138,0.412 0.446,0.412 h 1.44 c 0.308,0 0.446,-0.137 0.446,-0.412 v -3.703 h 3.806 c 0.308,0 0.479,-0.137 0.479,-0.385 V 14.075 C 2.365,13.828 2.194,13.69 1.886,13.69 H -1.92 V 4.006 c 0,-1.618 0.822,-2.442 2.468,-2.442 0.651,0 1.372,0.11 2.16,0.33 0.24,0.082 0.48,0 0.48,-0.22 L 3.257,0.961 C 3.291,0.714 3.154,0.521 2.846,0.412 1.886,0.138 0.926,0 0,0"
             style="fill:#ffffff;fill-opacity:1;fill-rule:nonzero;stroke:none"
             id="path124" />
        </g>
        <g
           id="g126"
           transform="translate(338.541,19.7432)">
          <path
             d="m 0,0 c -0.309,0 -0.48,0.137 -0.48,0.384 v 14.074 c 0,0.247 0.171,0.385 0.48,0.385 h 1.508 c 0.308,0 0.48,-0.138 0.48,-0.385 V 0.384 C 1.988,0.137 1.816,0 1.508,0 Z m 0.72,21.372 c 0.926,0 1.679,-0.603 1.679,-1.345 0,-0.74 -0.753,-1.316 -1.679,-1.316 -0.926,0 -1.646,0.576 -1.646,1.316 0,0.742 0.72,1.345 1.646,1.345"
             style="fill:#ffffff;fill-opacity:1;fill-rule:nonzero;stroke:none"
             id="path128" />
        </g>
        <g
           id="g130"
           transform="translate(358.3574,31.5674)">
          <path
             d="m 0,0 c -1.199,1.18 -2.742,1.756 -4.628,1.756 -1.921,0 -3.429,-0.631 -4.629,-1.756 -1.063,-1.18 -1.645,-2.688 -1.645,-4.417 0,-1.756 0.582,-3.292 1.645,-4.417 1.2,-1.18 2.743,-1.783 4.629,-1.783 1.92,0 3.429,0.658 4.628,1.783 0.995,1.125 1.611,2.661 1.611,4.417 C 1.611,-2.688 0.995,-1.18 0,0 m 2.023,-9.849 c -1.611,-1.537 -3.805,-2.415 -6.651,-2.415 -2.846,0 -5.075,0.878 -6.686,2.415 -1.269,1.4 -2.091,3.265 -2.091,5.432 0,2.223 0.685,4.033 2.091,5.433 1.611,1.59 3.84,2.386 6.686,2.386 2.88,0 5.04,-0.768 6.651,-2.386 1.406,-1.454 2.126,-3.265 2.126,-5.433 0,-2.167 -0.857,-4.032 -2.126,-5.432"
             style="fill:#ffffff;fill-opacity:1;fill-rule:nonzero;stroke:none"
             id="path132" />
        </g>
        <g
           id="g134"
           transform="translate(381.8428,20.127)">
          <path
             d="m 0,0 c 0,-0.247 -0.172,-0.384 -0.48,-0.384 h -1.372 c -0.308,0 -0.479,0.137 -0.479,0.384 v 8.643 c 0,3.374 -1.577,4.636 -4.32,4.636 -3.703,0 -5.692,-1.728 -5.692,-4.691 V 0 c 0,-0.247 -0.172,-0.384 -0.48,-0.384 h -1.371 c -0.309,0 -0.481,0.137 -0.481,0.384 v 10.975 c 0,1.563 0,2.304 -0.102,3.099 -0.035,0.247 0.205,0.385 0.479,0.385 h 1.235 c 0.308,0 0.48,-0.138 0.48,-0.385 v -1.509 c 1.269,1.565 2.88,2.278 6.034,2.278 C -2.194,14.843 0,12.73 0,9.081 Z"
             style="fill:#ffffff;fill-opacity:1;fill-rule:nonzero;stroke:none"
             id="path136" />
        </g>
        <g
           id="g138"
           transform="translate(417.123,30.7168)">
          <path
             d="m 0,0 c 0.96,0 0.96,0 0.96,-0.768 v -8.697 c 0,-0.411 -0.343,-0.713 -0.721,-0.85 -2.194,-0.659 -4.593,-1.015 -7.2,-1.015 -7.611,0 -13.131,3.786 -13.131,10.508 0,6.118 5.005,10.508 13.131,10.508 2.572,0 4.218,-0.138 6.378,-0.687 C -0.24,8.917 -0.104,8.752 -0.172,8.45 L -0.343,7.436 c -0.035,-0.248 -0.206,-0.33 -0.514,-0.248 -2.058,0.631 -3.772,0.769 -6.104,0.769 -6.514,0 -10.628,-3.595 -10.628,-8.779 0,-5.653 4.457,-8.78 10.628,-8.78 2.538,0 4.355,0.248 5.418,0.741 v 7.133 h -6.892 c -0.308,0 -0.48,0.137 -0.48,0.384 v 0.96 c 0,0.247 0.172,0.384 0.48,0.384 z"
             style="fill:#ffffff;fill-opacity:1;fill-rule:nonzero;stroke:none"
             id="path140" />
        </g>
        <g
           id="g142"
           transform="translate(431.9336,33.0771)">
          <path
             d="m 0,0 c -1.681,0 -2.949,-0.659 -3.771,-2.003 -0.652,-1.043 -0.96,-2.387 -0.96,-4.006 v -6.941 c 0,-0.247 -0.172,-0.384 -0.481,-0.384 h -1.337 c -0.308,0 -0.48,0.137 -0.48,0.384 v 11.138 c 0,1.318 -0.034,1.976 -0.069,2.936 0,0.247 0.172,0.385 0.481,0.385 h 1.268 c 0.309,0 0.48,-0.138 0.48,-0.385 v -2.688 c 1.132,2.304 2.777,3.457 4.937,3.457 0.515,0 1.063,-0.055 1.578,-0.165 C 1.92,1.646 2.16,1.509 2.16,1.207 V 0.055 c 0,-0.22 -0.274,-0.302 -0.514,-0.22 C 1.234,-0.056 0.686,0 0,0"
             style="fill:#ffffff;fill-opacity:1;fill-rule:nonzero;stroke:none"
             id="path144" />
        </g>
        <g
           id="g146"
           transform="translate(448.0127,31.5674)">
          <path
             d="m 0,0 c -1.199,1.18 -2.742,1.756 -4.628,1.756 -1.921,0 -3.429,-0.631 -4.629,-1.756 -1.063,-1.18 -1.645,-2.688 -1.645,-4.417 0,-1.756 0.582,-3.292 1.645,-4.417 1.2,-1.18 2.743,-1.783 4.629,-1.783 1.92,0 3.429,0.658 4.628,1.783 0.995,1.125 1.611,2.661 1.611,4.417 C 1.611,-2.688 0.995,-1.18 0,0 m 2.023,-9.849 c -1.611,-1.537 -3.805,-2.415 -6.651,-2.415 -2.847,0 -5.075,0.878 -6.686,2.415 -1.269,1.4 -2.091,3.265 -2.091,5.432 0,2.223 0.685,4.033 2.091,5.433 1.611,1.59 3.839,2.386 6.686,2.386 2.88,0 5.04,-0.768 6.651,-2.386 1.406,-1.454 2.126,-3.265 2.126,-5.433 0,-2.167 -0.857,-4.032 -2.126,-5.432"
             style="fill:#ffffff;fill-opacity:1;fill-rule:nonzero;stroke:none"
             id="path148" />
        </g>
        <g
           id="g150"
           transform="translate(471.0879,19.7432)">
          <path
             d="m 0,0 h -1.234 c -0.309,0 -0.481,0.137 -0.481,0.384 v 2.277 c -1.2,-2.194 -3.12,-3.1 -6.137,-3.1 -4.286,0 -6.412,1.92 -6.412,5.734 v 9.163 c 0,0.247 0.172,0.385 0.481,0.385 h 1.371 c 0.308,0 0.48,-0.138 0.48,-0.385 V 5.789 c 0,-3.101 1.474,-4.664 4.457,-4.664 3.463,0 5.658,2.606 5.555,5.706 v 7.627 c 0,0.247 0.171,0.385 0.48,0.385 h 1.371 c 0.308,0 0.48,-0.138 0.48,-0.385 V 3.43 C 0.411,2.223 0.445,1.345 0.479,0.384 0.479,0.137 0.309,0 0,0"
             style="fill:#ffffff;fill-opacity:1;fill-rule:nonzero;stroke:none"
             id="path152" />
        </g>
        <g
           id="g154"
           transform="translate(484.9727,33.2686)">
          <path
             d="m 0,0 c -3.703,0 -5.486,-2.688 -5.486,-5.898 0,-4.252 2.16,-6.448 5.486,-6.448 3.463,0 5.451,2.525 5.451,6.448 C 5.451,-2.936 4.08,0 0,0 m -7.783,0.933 c 0,0.247 0.171,0.384 0.479,0.384 H -6 c 0.309,0 0.479,-0.137 0.479,-0.384 l -0.17,-2.058 c 0.924,1.619 3.222,2.689 6.102,2.689 5.349,0 7.543,-3.265 7.543,-7.462 0,-4.499 -2.64,-7.984 -7.543,-7.984 -2.777,0 -4.834,0.905 -5.897,2.442 v -5.899 c 0,-0.247 -0.171,-0.384 -0.48,-0.384 h -1.303 c -0.274,0 -0.514,0.164 -0.514,0.384 z"
             style="fill:#ffffff;fill-opacity:1;fill-rule:nonzero;stroke:none"
             id="path156" />
        </g>
      </g>
    </g>
  </g>
</svg>
