<?xml version="1.0" encoding="UTF-8" standalone="no"?>
<!-- Created with Inkscape (http://www.inkscape.org/) -->

<svg
   version="1.1"
   id="svg2"
   width="540"
   height="144"
   viewBox="0 0 540 144"
   sodipodi:docname="mig-logo.ai"
   xmlns:inkscape="http://www.inkscape.org/namespaces/inkscape"
   xmlns:sodipodi="http://sodipodi.sourceforge.net/DTD/sodipodi-0.dtd"
   xmlns="http://www.w3.org/2000/svg"
   xmlns:svg="http://www.w3.org/2000/svg">
  <defs
     id="defs6">
    <clipPath
       clipPathUnits="userSpaceOnUse"
       id="clipPath16">
      <path
         d="M 0,108 H 405 V 0 H 0 Z"
         id="path14" />
    </clipPath>
  </defs>
  <sodipodi:namedview
     id="namedview4"
     pagecolor="#ffffff"
     bordercolor="#000000"
     borderopacity="0.25"
     inkscape:showpageshadow="2"
     inkscape:pageopacity="0.0"
     inkscape:pagecheckerboard="0"
     inkscape:deskcolor="#d1d1d1" />
  <g
     id="g8"
     inkscape:groupmode="layer"
     inkscape:label="mig-logo"
     transform="matrix(1.3333333,0,0,-1.3333333,0,144)">
    <g
       id="g10">
      <g
         id="g12"
         clip-path="url(#clipPath16)">
        <g
           id="g18"
           transform="translate(61.9038,35.8203)">
          <path
             d="m 0,0 c -0.918,-0.492 -2.041,-0.915 -3.366,-1.272 -1.327,-0.355 -2.768,-0.669 -4.323,-0.944 -1.556,-0.273 -3.137,-0.478 -4.743,-0.616 -1.607,-0.136 -3.125,-0.205 -4.552,-0.205 -4.234,0 -8.148,0.712 -11.744,2.135 -3.595,1.423 -6.693,3.501 -9.294,6.238 -2.602,2.736 -4.642,6.102 -6.121,10.098 -1.48,3.994 -2.218,8.537 -2.218,13.627 0,4.65 0.688,8.933 2.065,12.846 1.377,3.912 3.34,7.292 5.891,10.139 2.55,2.845 5.635,5.061 9.257,6.649 3.621,1.586 7.7,2.38 12.24,2.38 3.061,0 5.788,-0.178 8.186,-0.533 2.397,-0.356 4.667,-0.891 6.809,-1.601 0.561,-0.164 0.892,-0.342 0.995,-0.534 0.101,-0.192 0.126,-0.397 0.076,-0.615 L -1.76,50.814 c -0.051,-0.383 -0.179,-0.657 -0.383,-0.821 -0.204,-0.164 -0.586,-0.137 -1.147,0.082 -2.398,0.821 -4.667,1.408 -6.809,1.766 -2.142,0.354 -4.437,0.533 -6.885,0.533 -3.06,0 -5.841,-0.561 -8.339,-1.683 -2.499,-1.123 -4.641,-2.709 -6.426,-4.761 -1.786,-2.052 -3.175,-4.502 -4.169,-7.347 -0.995,-2.847 -1.493,-6.02 -1.493,-9.522 0,-3.777 0.498,-7.129 1.493,-10.056 0.994,-2.929 2.396,-5.392 4.207,-7.389 1.81,-1.998 3.965,-3.503 6.464,-4.514 2.499,-1.014 5.253,-1.52 8.263,-1.52 2.295,0 4.284,0.109 5.967,0.329 1.684,0.218 2.933,0.546 3.749,0.985 v 16.5 h -12.623 c -0.306,0 -0.549,0.095 -0.727,0.288 -0.179,0.191 -0.268,0.422 -0.268,0.697 v 6.567 c 0,0.329 0.115,0.602 0.344,0.822 0.23,0.217 0.472,0.328 0.728,0.328 H -0.23 c 0.765,0 1.25,-0.137 1.454,-0.411 C 1.427,31.413 1.53,30.866 1.53,30.046 V 2.956 C 1.53,2.135 1.377,1.506 1.071,1.067 0.765,0.63 0.407,0.274 0,0"
             style="fill:#000000;fill-opacity:1;fill-rule:nonzero;stroke:none"
             id="path20" />
        </g>
        <g
           id="g22"
           transform="translate(77.5103,33.8506)">
          <path
             d="m 0,0 c -0.562,0 -0.842,0.328 -0.842,0.985 v 64.687 c 0,0.273 0.089,0.506 0.268,0.698 0.178,0.191 0.395,0.287 0.65,0.287 h 6.426 c 0.255,0 0.472,-0.096 0.651,-0.287 0.178,-0.192 0.268,-0.425 0.268,-0.698 V 0.985 C 7.421,0.712 7.331,0.479 7.153,0.287 6.974,0.096 6.757,0 6.502,0 Z"
             style="fill:#000000;fill-opacity:1;fill-rule:nonzero;stroke:none"
             id="path24" />
        </g>
        <g
           id="g26"
           transform="translate(158.9556,72.8438)">
          <path
             d="m 0,0 c -3.061,0 -5.445,-1.297 -7.153,-3.89 -1.71,-2.592 -2.563,-6.536 -2.563,-11.831 0,-2.566 0.255,-4.845 0.765,-6.838 0.509,-1.993 1.211,-3.67 2.104,-5.036 0.891,-1.364 1.924,-2.4 3.098,-3.11 1.173,-0.71 2.422,-1.065 3.749,-1.065 3.06,0 5.457,1.337 7.191,4.013 1.733,2.674 2.601,6.687 2.601,12.036 0,4.967 -0.841,8.829 -2.524,11.585 C 5.584,-1.379 3.162,0 0,0 m 0.841,-40.061 c -2.04,0 -4.054,0.521 -6.044,1.56 -1.988,1.04 -3.493,2.327 -4.513,3.858 v -3.119 c 0,-0.875 -0.383,-1.313 -1.148,-1.313 h -5.814 c -0.816,0 -1.224,0.438 -1.224,1.313 v 64.605 c 0,0.711 0.331,1.067 0.995,1.067 h 6.273 c 0.356,0 0.599,-0.069 0.727,-0.206 0.126,-0.138 0.191,-0.425 0.191,-0.863 V 3.374 c 1.377,1.584 2.97,2.813 4.781,3.688 1.81,0.874 3.736,1.311 5.776,1.311 2.703,0 5.138,-0.575 7.306,-1.722 2.167,-1.146 4.004,-2.758 5.509,-4.834 1.504,-2.077 2.664,-4.603 3.481,-7.581 0.815,-2.977 1.224,-6.296 1.224,-9.957 0,-3.77 -0.396,-7.158 -1.186,-10.162 -0.792,-3.006 -1.939,-5.559 -3.443,-7.663 -1.505,-2.102 -3.341,-3.713 -5.508,-4.834 -2.168,-1.12 -4.628,-1.681 -7.383,-1.681"
             style="fill:#000000;fill-opacity:1;fill-rule:nonzero;stroke:none"
             id="path28" />
        </g>
        <g
           id="g30"
           transform="translate(197.0532,53.7168)">
          <path
             d="m 0,0 c -2.448,-1.479 -3.672,-3.694 -3.672,-6.649 0,-2.081 0.561,-3.641 1.683,-4.68 1.121,-1.04 2.626,-1.56 4.514,-1.56 2.907,0 5.24,1.15 7,3.449 1.76,2.297 2.639,5.881 2.639,10.753 V 2.216 C 6.503,2.216 2.448,1.478 0,0 m 13.541,-19.702 c -0.357,0 -0.586,0.041 -0.688,0.123 -0.103,0.082 -0.153,0.287 -0.153,0.616 v 3.693 c -1.276,-1.915 -2.896,-3.351 -4.859,-4.309 -1.963,-0.957 -3.939,-1.437 -5.928,-1.437 -2.092,0 -4.017,0.302 -5.776,0.904 -1.76,0.602 -3.265,1.506 -4.514,2.709 -1.25,1.204 -2.232,2.694 -2.945,4.473 -0.715,1.778 -1.072,3.844 -1.072,6.199 0,2.791 0.459,5.239 1.377,7.346 0.919,2.107 2.359,3.859 4.323,5.254 1.963,1.396 4.476,2.435 7.536,3.119 3.06,0.684 6.757,1.027 11.093,1.027 0,1.039 -0.103,2.079 -0.307,3.119 -0.204,1.039 -0.548,1.97 -1.033,2.791 -0.484,0.821 -1.16,1.491 -2.027,2.012 -0.867,0.519 -1.963,0.779 -3.289,0.779 -2.295,0 -4.374,-0.328 -6.235,-0.985 -1.862,-0.657 -3.609,-1.533 -5.241,-2.627 -0.816,-0.547 -1.365,-0.793 -1.644,-0.739 -0.282,0.054 -0.421,0.356 -0.421,0.904 v 6.238 c 0,0.219 -0.013,0.452 -0.038,0.698 -0.027,0.246 0.011,0.451 0.114,0.615 0.153,0.219 0.536,0.52 1.148,0.904 1.733,0.929 3.506,1.695 5.317,2.298 1.809,0.602 4.093,0.903 6.847,0.903 5.151,0 8.963,-1.341 11.437,-4.023 2.473,-2.681 3.711,-6.895 3.711,-12.641 V -9.194 c 0,-1.534 0.012,-3.134 0.038,-4.803 0.025,-1.67 0.114,-3.132 0.268,-4.392 0.101,-0.875 -0.18,-1.313 -0.842,-1.313 z"
             style="fill:#000000;fill-opacity:1;fill-rule:nonzero;stroke:none"
             id="path32" />
        </g>
        <g
           id="g34"
           transform="translate(229.3379,33.8506)">
          <path
             d="m 0,0 c -0.562,0 -0.842,0.328 -0.842,0.985 v 64.687 c 0,0.273 0.089,0.506 0.268,0.698 0.178,0.191 0.394,0.287 0.65,0.287 h 6.427 c 0.254,0 0.471,-0.096 0.65,-0.287 0.178,-0.192 0.268,-0.425 0.268,-0.698 V 0.985 C 7.421,0.712 7.331,0.479 7.153,0.287 6.974,0.096 6.757,0 6.503,0 Z"
             style="fill:#000000;fill-opacity:1;fill-rule:nonzero;stroke:none"
             id="path36" />
        </g>
        <g
           id="g38"
           transform="translate(300.0254,33.9326)">
          <path
             d="M 0,0 C -0.408,0 -0.663,0.069 -0.765,0.205 -0.867,0.343 -0.918,0.576 -0.918,0.904 V 45.52 L -17.519,1.067 C -17.622,0.794 -17.736,0.63 -17.863,0.574 -17.991,0.521 -18.311,0.492 -18.819,0.492 h -6.12 c -0.511,0 -0.831,0.029 -0.957,0.082 -0.127,0.056 -0.243,0.22 -0.344,0.493 L -42.842,45.52 V 0.904 c 0,-0.328 -0.051,-0.561 -0.152,-0.699 C -43.098,0.069 -43.352,0 -43.76,0 h -7.114 c -0.612,0 -0.918,0.302 -0.918,0.903 v 59.269 c 0,0.766 0.076,1.244 0.229,1.436 0.153,0.192 0.637,0.288 1.454,0.288 h 9.103 c 0.357,0 0.574,-0.069 0.651,-0.206 0.077,-0.136 0.191,-0.397 0.344,-0.781 L -21.88,12.601 -3.748,60.909 c 0.153,0.384 0.268,0.645 0.344,0.781 0.077,0.137 0.293,0.206 0.65,0.206 h 9.105 c 0.814,0 1.299,-0.096 1.453,-0.288 0.153,-0.192 0.229,-0.67 0.229,-1.436 V 0.903 C 8.033,0.302 7.728,0 7.115,0 Z"
             style="fill:#0b9aca;fill-opacity:1;fill-rule:nonzero;stroke:none"
             id="path40" />
        </g>
        <g
           id="g42"
           transform="translate(328.8672,33.9326)">
          <path
             d="m 0,0 h -6.961 c -0.664,0 -0.995,0.356 -0.995,1.067 v 59.762 c 0,0.71 0.331,1.067 0.995,1.067 H 0 c 0.663,0 0.995,-0.357 0.995,-1.067 V 1.067 C 0.995,0.356 0.663,0 0,0"
             style="fill:#0b9aca;fill-opacity:1;fill-rule:nonzero;stroke:none"
             id="path44" />
        </g>
        <g
           id="g46"
           transform="translate(385.8613,35.8203)">
          <path
             d="m 0,0 c -0.918,-0.492 -2.04,-0.915 -3.366,-1.272 -1.326,-0.355 -2.767,-0.669 -4.322,-0.944 -1.557,-0.273 -3.137,-0.478 -4.744,-0.616 -1.606,-0.136 -3.125,-0.205 -4.551,-0.205 -4.235,0 -8.148,0.712 -11.744,2.135 -3.595,1.423 -6.694,3.501 -9.295,6.238 -2.601,2.736 -4.642,6.102 -6.121,10.098 -1.479,3.994 -2.218,8.537 -2.218,13.627 0,4.65 0.689,8.933 2.066,12.846 1.377,3.912 3.34,7.292 5.891,10.139 2.55,2.845 5.634,5.061 9.257,6.649 3.621,1.586 7.7,2.38 12.24,2.38 3.06,0 5.788,-0.178 8.186,-0.533 2.397,-0.356 4.666,-0.891 6.809,-1.601 0.56,-0.164 0.891,-0.342 0.994,-0.534 0.102,-0.192 0.127,-0.397 0.077,-0.615 L -1.76,50.814 c -0.051,-0.383 -0.178,-0.657 -0.382,-0.821 -0.205,-0.164 -0.587,-0.137 -1.147,0.082 -2.398,0.821 -4.667,1.408 -6.81,1.766 -2.141,0.354 -4.436,0.533 -6.884,0.533 -3.061,0 -5.841,-0.561 -8.339,-1.683 -2.5,-1.123 -4.642,-2.709 -6.427,-4.761 -1.785,-2.052 -3.175,-4.502 -4.169,-7.347 -0.995,-2.847 -1.492,-6.02 -1.492,-9.522 0,-3.777 0.497,-7.129 1.492,-10.056 0.994,-2.929 2.397,-5.392 4.207,-7.389 1.811,-1.998 3.966,-3.503 6.465,-4.514 2.498,-1.014 5.253,-1.52 8.263,-1.52 2.295,0 4.284,0.109 5.966,0.329 1.684,0.218 2.933,0.546 3.749,0.985 v 16.5 h -12.623 c -0.305,0 -0.548,0.095 -0.726,0.288 -0.18,0.191 -0.268,0.422 -0.268,0.697 v 6.567 c 0,0.329 0.114,0.602 0.344,0.822 0.229,0.217 0.471,0.328 0.727,0.328 h 19.585 c 0.765,0 1.249,-0.137 1.454,-0.411 C 1.428,31.413 1.53,30.866 1.53,30.046 V 2.956 C 1.53,2.135 1.377,1.506 1.071,1.067 0.766,0.63 0.408,0.274 0,0"
             style="fill:#0b9aca;fill-opacity:1;fill-rule:nonzero;stroke:none"
             id="path48" />
        </g>
        <g
           id="g50"
           transform="translate(112.1502,85.6901)">
          <path
             d="m 0,0 c -13.203,0 -23.907,-11.486 -23.907,-25.653 0,-14.167 10.704,-25.653 23.907,-25.653 13.203,0 23.907,11.486 23.907,25.653 C 23.907,-11.486 13.203,0 0,0 m 0,-0.66 c 12.818,0 23.247,-11.212 23.247,-24.993 0,-13.781 -10.429,-24.993 -23.247,-24.993 -12.818,0 -23.247,11.212 -23.247,24.993 0,13.781 10.429,24.993 23.247,24.993"
             style="fill:#000000;fill-opacity:1;fill-rule:nonzero;stroke:none"
             id="path52" />
        </g>
        <g
           id="g54"
           transform="translate(132.3827,49.9155)">
          <path
             d="M 0,0 C -0.064,-0.14 -0.212,-0.207 -0.329,-0.301 -1.157,-0.96 -0.36,-2.702 -1.2,-3.344 c -0.292,-0.224 -0.684,-0.212 -1.042,-0.18 -0.086,0.008 -0.174,0.017 -0.249,0.058 -0.33,0.177 -0.2,0.727 0.049,1.02 0.247,0.294 0.59,0.587 0.555,0.982 -0.023,0.237 -0.186,0.467 -0.118,0.695 0.082,0.267 0.405,0.314 0.649,0.419 0.46,0.2 0.732,0.8 0.597,1.313 l 0.39,0.296 C -0.526,0.826 0.196,0.415 0,0 m -21.922,30.01 c 0.318,0.078 0.594,0.28 0.891,0.427 0.296,0.147 0.65,0.234 0.942,0.079 0.086,-0.233 -0.163,-0.444 -0.383,-0.527 -0.421,-0.158 -0.877,-0.202 -1.317,-0.124 z m -2.428,0.552 c -0.271,-0.046 -0.554,0.032 -0.824,-0.032 -0.452,-0.106 -0.736,-0.565 -1.071,-0.908 -0.385,-0.396 -0.95,-0.666 -1.453,-0.478 -0.502,0.19 -0.766,0.992 -0.362,1.367 0.198,0.184 0.481,0.215 0.716,0.344 0.234,0.128 0.418,0.472 0.243,0.682 -0.076,0.092 -0.202,0.126 -0.272,0.224 -0.076,0.105 -0.068,0.256 -0.131,0.372 -0.239,0.449 -0.903,-0.156 -1.355,0.025 l -0.2,-0.021 c 0.542,0.279 1,0.718 1.534,1.013 0.919,0.505 1.992,0.55 3.025,0.586 2.35,0.078 4.7,0.157 7.05,0.234 -0.545,-0.319 -1.089,-0.641 -1.636,-0.962 -0.444,-0.263 -0.95,-0.531 -1.438,-0.382 -0.011,-0.422 0.347,-0.812 0.74,-0.809 -0.965,-0.64 -2.306,0.015 -3.324,-0.523 -0.427,-0.226 -0.772,-0.652 -1.242,-0.732 m -7.408,-42.004 c 0.004,0.009 0.01,0.015 0.014,0.025 l 0.092,-0.056 c -0.036,0.009 -0.07,0.021 -0.106,0.031 m 1.239,41.197 c -0.198,-0.009 -0.396,-0.018 -0.595,-0.027 0.019,-0.354 -0.015,-0.799 -0.321,-0.931 -0.274,-0.117 -0.632,0.101 -0.86,-0.097 l 0.146,-0.096 c -0.233,-0.124 -0.554,0.016 -0.641,0.278 -0.087,0.262 0.078,0.588 0.332,0.651 0.16,0.04 0.382,0.02 0.432,0.189 0.014,0.051 0.006,0.107 0.006,0.159 -0.006,0.317 0.258,0.581 0.542,0.66 0.286,0.078 0.587,0.018 0.876,-0.043 0.103,-0.229 0.132,-0.494 0.083,-0.743 m -1.047,-4.926 c -0.258,-0.198 -0.522,-0.399 -0.829,-0.476 -0.308,-0.076 -0.669,0.004 -0.847,0.281 l -0.049,0.105 c 0.399,0.064 0.426,0.365 0.728,0.475 0.346,0.122 0.228,-0.011 0.566,0 0.275,0.013 0.442,-0.202 0.755,-0.044 -0.076,-0.144 -0.2,-0.244 -0.324,-0.341 M 1.572,15.481 c -0.211,0.129 -0.438,0.22 -0.632,0.359 -0.268,0.191 -0.479,0.474 -0.765,0.642 -0.286,0.162 -0.702,0.169 -0.873,-0.122 -0.184,-0.307 0.027,-0.729 0.318,-0.914 0.291,-0.192 0.641,-0.236 0.948,-0.376 0.621,-0.283 1.047,-0.983 1.053,-1.7 0,-0.718 -0.426,-1.417 -1.04,-1.707 C 0.347,11.558 0.1,11.508 -0.12,11.379 -0.423,11.211 -0.659,10.91 -0.762,10.562 c -0.933,2.241 -1.964,4.427 -3.098,6.549 -0.394,-0.528 -0.248,-1.308 0.033,-1.91 0.28,-0.602 0.689,-1.155 0.798,-1.822 0.048,-0.307 0.034,-0.626 0.114,-0.921 0.141,-0.514 0.539,-0.889 0.837,-1.312 0.35,-0.492 0.583,-1.089 1.031,-1.481 C -0.604,9.271 0.172,9.202 0.469,9.729 0.253,9.142 0.037,8.565 -0.177,7.981 -0.727,6.493 -1.271,5.011 -1.82,3.525 -1.964,3.124 -2.111,2.732 -2.256,2.331 -2.811,0.84 -3.366,-0.671 -4.223,-1.992 -4.357,-2.194 -4.498,-2.403 -4.534,-2.64 c -0.021,-0.166 10e-4,-0.335 -0.005,-0.502 -0.016,-0.602 -0.491,-1.147 -1.046,-1.211 0.409,0 0.512,-0.759 0.194,-1.082 -0.329,-0.336 -0.825,-0.376 -1.246,-0.573 -1.122,-0.516 -1.815,-2.165 -3.024,-2.009 -0.432,1.456 -0.864,2.909 -1.297,4.36 -0.173,0.572 -0.345,1.157 -0.34,1.758 0.017,1.1 0.609,2.083 0.839,3.155 0.237,1.069 -0.147,2.499 -1.16,2.637 0.091,0.248 0.184,0.503 0.275,0.757 -0.172,-0.033 -0.344,-0.069 -0.513,-0.104 0.335,0.759 0.436,1.921 -0.303,2.204 -0.323,0.122 -0.684,0.005 -1.018,0.081 -0.336,0.075 -0.617,0.566 -0.347,0.793 -1.19,0.05 -2.399,-0.164 -3.509,-0.633 -0.388,-0.163 -0.782,-0.361 -1.196,-0.343 -0.669,0.029 -1.199,0.596 -1.657,1.116 -0.971,1.121 -2.019,2.515 -1.685,3.996 0.118,0.52 0.399,1.03 0.296,1.557 -0.06,0.308 -0.253,0.573 -0.307,0.885 -0.077,0.406 0.091,0.817 0.284,1.175 0.615,1.164 1.526,2.154 2.599,2.838 -0.065,0.683 0.382,1.331 0.942,1.662 0.562,0.334 1.22,0.416 1.855,0.498 1.164,0.145 2.329,0.284 3.499,0.43 0.141,0.018 0.293,0.029 0.41,-0.047 0.194,-0.126 0.211,-0.416 0.27,-0.653 0.168,-0.677 0.933,-1.098 1.548,-0.855 0.226,-0.834 1.132,-1.157 1.921,-1.359 -0.087,0.487 0.047,1.007 0.349,1.372 0.279,-0.757 1.169,-0.983 1.931,-1.005 0.761,-0.016 1.6,0.041 2.184,-0.473 -0.08,0.549 -0.168,1.099 -0.254,1.654 -0.027,0.198 -0.064,0.412 -0.21,0.545 -0.194,0.173 -0.475,0.111 -0.729,0.103 -0.567,-0.023 -1.132,0.272 -1.462,0.77 1.035,0.456 2.2,0.585 3.305,0.359 -0.604,0.782 -1.09,1.672 -1.428,2.622 -0.081,-0.393 -0.156,-0.78 -0.237,-1.174 -0.146,0.387 -0.319,0.81 -0.663,0.989 -0.351,0.184 -0.89,-0.092 -0.821,-0.498 0.034,-0.203 0.201,-0.353 0.271,-0.544 0.136,-0.358 -0.102,-0.774 -0.426,-0.943 -0.321,-0.172 -0.699,-0.162 -1.056,-0.15 -0.037,-0.326 -0.075,-0.649 -0.118,-0.979 -0.108,0.301 -0.222,0.595 -0.329,0.896 -0.152,-0.11 -0.307,-0.214 -0.458,-0.325 -0.301,0.341 -0.598,0.676 -0.896,1.013 -0.173,-0.184 -0.344,-0.377 -0.518,-0.567 -0.545,0.469 -1.091,0.936 -1.635,1.4 -0.247,0.212 -0.501,0.427 -0.798,0.542 -0.907,0.358 -1.877,-0.3 -2.556,-1.031 -0.349,-0.381 -0.69,-0.833 -0.71,-1.366 -0.529,0.15 -1.062,-0.203 -1.608,-0.21 -0.728,-0.011 -1.396,0.711 -1.375,1.493 0.014,0.781 0.71,1.469 1.438,1.429 0.501,-0.034 0.981,-0.358 1.477,-0.265 0.146,0.753 -0.302,1.578 -0.982,1.816 1.478,0.747 2.96,1.494 4.437,2.237 0.183,0.307 -0.2,0.663 -0.535,0.698 -0.34,0.036 -0.728,-0.035 -0.97,0.227 -0.287,0.305 -0.11,0.867 0.224,1.122 0.328,0.254 0.754,0.314 1.138,0.457 0.361,0.133 0.683,0.342 1.04,0.48 1.541,0.592 3.198,-0.32 4.61,-1.2 l 0.124,0.047 c 0.022,-0.387 -0.081,-0.782 -0.285,-1.1 0.862,0.462 1.952,0.388 2.75,-0.178 0.346,-0.243 0.654,-0.578 1.058,-0.671 0.092,-0.024 0.184,-0.029 0.27,-0.017 1.971,-2.272 3.562,-4.927 4.662,-7.851 -3.53,9.387 -12.1,16.011 -22.112,16.011 -8.967,0 -16.776,-5.313 -20.846,-13.164 0.858,1.653 1.882,3.193 3.048,4.596 0.075,0.034 0.15,0.08 0.227,0.128 0.813,0.508 1.46,1.272 2.247,1.828 0.161,0.115 0.344,0.225 0.544,0.203 0.193,-0.018 0.378,-0.23 0.307,-0.427 -0.026,-0.082 -0.091,-0.147 -0.156,-0.197 -0.921,-0.841 -1.929,-1.576 -3.002,-2.184 -0.129,-0.069 -0.264,-0.151 -0.323,-0.289 -0.109,-0.238 0.075,-0.533 0.308,-0.62 0.231,-0.086 0.49,-0.034 0.728,0.024 -0.2,-0.307 -0.26,-0.718 -0.157,-1.077 0.221,-0.022 0.291,0.301 0.357,0.527 0.269,0.897 1.601,1.262 1.515,2.206 0.361,-0.202 0.728,0.25 0.948,0.621 0.221,0.375 0.712,0.746 0.982,0.415 0.015,-0.184 0.036,-0.369 0.052,-0.556 0.475,0.129 0.956,0.261 1.43,0.39 -0.27,-0.203 -0.362,-0.637 -0.206,-0.949 0.156,-0.313 0.545,-0.47 0.852,-0.342 -0.004,-0.272 -0.232,-0.48 -0.437,-0.641 -0.523,-0.424 -1.084,-0.857 -1.692,-1.066 l 0.14,-0.311 c -0.015,-0.007 -0.031,-0.013 -0.048,-0.013 -0.388,-0.04 -0.798,0.259 -1.213,0.201 -0.253,-0.035 -0.565,-0.035 -0.711,-0.312 -0.022,-0.036 -0.112,-0.521 -0.048,-0.481 0.226,0.14 0.452,0.28 0.674,0.417 0.069,-0.197 0.085,-0.417 0.048,-0.63 0.274,0.028 0.561,-0.034 0.804,-0.191 -0.253,-0.631 -0.905,-1.054 -1.547,-1.001 -0.006,0.209 -0.017,0.416 -0.023,0.624 -0.528,0.047 -0.959,-0.44 -1.223,-0.927 -0.269,-0.492 -0.474,-1.053 -0.916,-1.365 -0.269,-0.197 -0.598,-0.272 -0.89,-0.434 -0.285,-0.168 -0.549,-0.487 -0.489,-0.828 0.026,-0.161 0.124,-0.312 0.119,-0.48 -0.016,-0.313 -0.355,-0.458 -0.582,-0.66 -0.387,-0.348 -0.485,-0.984 -0.9,-1.291 -0.301,-0.224 -0.701,-0.22 -1.051,-0.335 -0.351,-0.116 -0.702,-0.492 -0.56,-0.857 -0.173,-0.064 -0.383,0.075 -0.4,0.272 -0.619,-1.308 -1.028,-2.732 -1.195,-4.19 0.308,-0.23 0.619,0.296 0.678,0.695 0.065,0.399 0.389,0.921 0.69,0.683 -0.07,-0.572 -0.14,-1.14 -0.209,-1.712 -0.016,-0.111 -0.026,-0.227 0.023,-0.323 0.059,-0.123 0.188,-0.174 0.286,-0.261 0.275,-0.254 0.238,-0.706 0.254,-1.093 0.016,-0.474 0.163,-0.937 0.394,-1.341 -0.023,0.081 -0.038,0.161 -0.053,0.243 0.42,-0.058 0.857,0.088 1.175,0.388 0.168,0.163 0.308,0.371 0.518,0.452 0.217,0.086 0.454,0.024 0.675,-0.04 0.684,-0.201 1.412,-0.427 1.87,-1.005 0.232,-0.295 0.378,-0.666 0.653,-0.907 0.626,-0.568 1.684,-0.319 2.256,-0.949 0.458,-0.509 0.372,-1.331 0.249,-2.03 -0.314,0.184 -0.733,-0.278 -0.549,-0.609 0.166,0.197 0.36,0.406 0.604,0.406 0.231,0.006 0.435,-0.313 0.311,-0.492 0.448,0.543 1.46,0.296 1.624,-0.423 0.604,-0.046 1.213,-0.091 1.818,-0.143 -0.117,-0.952 1.739,-1.008 1.701,-1.963 -0.005,-0.227 -0.129,-0.424 -0.237,-0.614 -0.478,-0.839 -0.769,-1.81 -0.834,-2.796 -0.063,-0.943 -0.025,-2.105 -0.79,-2.569 -0.438,-0.261 -1.052,-0.215 -1.343,-0.654 -0.091,-0.134 -0.135,-0.301 -0.178,-0.458 -0.188,-0.736 -0.377,-1.471 -0.565,-2.205 -0.243,0.022 -0.491,0.051 -0.732,0.079 0.286,-0.097 0.484,-0.513 0.313,-0.798 -0.275,0.155 -0.636,-0.029 -0.788,-0.326 -0.145,-0.294 -0.124,-0.652 -0.043,-0.978 0.249,-0.961 1.014,-1.735 1.915,-1.966 -0.156,-0.319 -0.635,-0.179 -0.927,0.034 -2.088,1.515 -3.664,3.822 -4.383,6.414 -0.253,0.914 -0.416,1.886 -0.913,2.672 -0.416,0.665 -1.041,1.151 -1.456,1.815 -0.583,0.955 -0.692,2.193 -1.366,3.065 -0.377,0.498 -0.961,1.11 -0.626,1.643 0.134,0.22 0.42,0.427 0.306,0.66 -0.037,0.074 -0.113,0.122 -0.172,0.185 -0.227,0.261 -0.071,0.671 0.043,1.007 0.188,0.584 0.188,1.21 0.107,1.834 -0.567,0.544 -1.014,1.219 -1.295,1.978 -0.166,0.463 -0.389,1.042 -0.851,1.048 -0.12,0.359 -0.244,0.717 -0.363,1.075 -0.043,-0.127 -0.16,-0.207 -0.29,-0.225 -0.034,-0.565 -0.054,-1.134 -0.054,-1.709 0,-14.127 10.673,-25.579 23.839,-25.579 13.027,0 23.611,11.214 23.833,25.134 -0.172,0.724 -0.317,1.459 -0.446,2.2 C 2.99,13.19 2.71,14.781 1.572,15.481"
             style="fill:#000000;fill-opacity:1;fill-rule:nonzero;stroke:none"
             id="path56" />
        </g>
        <g
           id="g58"
           transform="translate(39.0703,8.4121)">
          <path
             d="m 0,0 c 0,-0.217 -0.14,-0.338 -0.393,-0.338 h -1.263 c -0.253,0 -0.393,0.121 -0.393,0.338 V 15.984 C -3.425,13.019 -4.688,10.391 -5.783,8.053 -7.637,4.074 -9.574,0.072 -9.574,0.024 -9.658,-0.145 -9.798,-0.217 -9.995,-0.217 h -1.263 c -0.253,0 -0.337,0.072 -0.422,0.241 l -7.749,15.96 V 0 c 0,-0.217 -0.14,-0.338 -0.392,-0.338 h -1.264 c -0.253,0 -0.393,0.121 -0.393,0.338 v 16.876 c 0,0.676 0,0.676 0.786,0.676 h 2.106 c 0.309,0 0.393,-0.025 0.505,-0.29 l 7.469,-15.598 7.243,15.622 c 0.084,0.169 0.224,0.266 0.449,0.266 h 2.134 C 0,17.552 0,17.552 0,16.876 Z"
             style="fill:#000000;fill-opacity:1;fill-rule:nonzero;stroke:none"
             id="path60" />
        </g>
        <g
           id="g62"
           transform="translate(53.3096,14.873)">
          <path
             d="m 0,0 h -0.533 c -2.106,0.072 -3.735,-0.168 -4.829,-0.53 -1.573,-0.483 -2.359,-1.447 -2.359,-2.773 0,-0.796 0.281,-1.543 0.927,-1.928 0.562,-0.386 1.319,-0.579 2.246,-0.579 2.611,0 4.548,1.808 4.548,4.991 z m -8.395,4.34 v 0.916 c 0,0.217 0.141,0.386 0.394,0.507 1.319,0.602 2.751,0.819 4.52,0.819 3.734,0 5.39,-1.519 5.39,-4.604 v -6.052 c 0,-0.964 0.028,-1.688 0.112,-2.387 0,-0.217 -0.14,-0.338 -0.392,-0.338 H 0.618 c -0.253,0 -0.393,0.121 -0.393,0.338 v 1.857 c -0.787,-1.64 -2.836,-2.581 -4.997,-2.581 -1.882,0 -3.286,0.483 -4.156,1.423 -0.59,0.652 -0.898,1.543 -0.898,2.387 0,1.953 1.038,3.424 3.257,4.123 1.347,0.409 3.424,0.627 6.204,0.627 H 0 v 0.723 c 0,2.025 -0.982,3.11 -3.481,3.11 -1.685,0 -3.173,-0.289 -4.52,-0.988 -0.197,-0.097 -0.394,-0.049 -0.394,0.12"
             style="fill:#000000;fill-opacity:1;fill-rule:nonzero;stroke:none"
             id="path64" />
        </g>
        <g
           id="g66"
           transform="translate(60.3315,8.0742)">
          <path
             d="m 0,0 c -0.252,0 -0.393,0.121 -0.393,0.338 v 12.368 c 0,0.217 0.141,0.337 0.393,0.337 h 1.235 c 0.253,0 0.393,-0.12 0.393,-0.337 V 0.338 C 1.628,0.121 1.488,0 1.235,0 Z m 0.589,18.781 c 0.759,0 1.376,-0.53 1.376,-1.181 0,-0.651 -0.617,-1.158 -1.376,-1.158 -0.757,0 -1.347,0.507 -1.347,1.158 0,0.651 0.59,1.181 1.347,1.181"
             style="fill:#000000;fill-opacity:1;fill-rule:nonzero;stroke:none"
             id="path68" />
        </g>
        <g
           id="g70"
           transform="translate(67.1553,8.0742)">
          <path
             d="m 0,0 c -0.253,0 -0.394,0.121 -0.394,0.338 v 18.491 c 0,0.218 0.141,0.338 0.394,0.338 h 1.235 c 0.253,0 0.393,-0.12 0.393,-0.338 V 0.338 C 1.628,0.121 1.488,0 1.235,0 Z"
             style="fill:#000000;fill-opacity:1;fill-rule:nonzero;stroke:none"
             id="path72" />
        </g>
        <g
           id="g74"
           transform="translate(79.8745,16.8262)">
          <path
             d="m 0,0 c 0,-0.361 0.028,-0.338 -0.393,-0.338 h -6.57 c -0.421,0 -0.393,-0.023 -0.393,0.338 v 1.061 c 0,0.362 -0.028,0.337 0.393,0.337 h 6.57 C 0.028,1.398 0,1.423 0,1.061 Z"
             style="fill:#000000;fill-opacity:1;fill-rule:nonzero;stroke:none"
             id="path76" />
        </g>
        <g
           id="g78"
           transform="translate(93.5493,18.4658)">
          <path
             d="m 0,0 c -0.983,1.036 -2.246,1.543 -3.791,1.543 -1.572,0 -2.807,-0.555 -3.79,-1.543 -0.87,-1.037 -1.347,-2.363 -1.347,-3.882 0,-1.543 0.477,-2.892 1.347,-3.882 0.983,-1.036 2.247,-1.566 3.79,-1.566 1.573,0 2.808,0.578 3.791,1.566 0.814,0.99 1.32,2.339 1.32,3.882 C 1.32,-2.363 0.814,-1.037 0,0 m 1.657,-8.655 c -1.32,-1.351 -3.117,-2.122 -5.448,-2.122 -2.33,0 -4.155,0.771 -5.474,2.122 -1.039,1.229 -1.713,2.869 -1.713,4.773 0,1.953 0.561,3.544 1.713,4.774 1.319,1.398 3.144,2.097 5.474,2.097 2.359,0 4.128,-0.675 5.448,-2.097 1.151,-1.278 1.74,-2.87 1.74,-4.774 0,-1.904 -0.702,-3.544 -1.74,-4.773"
             style="fill:#000000;fill-opacity:1;fill-rule:nonzero;stroke:none"
             id="path80" />
        </g>
        <g
           id="g82"
           transform="translate(106.5508,19.792)">
          <path
             d="M 0,0 C -1.375,0 -2.414,-0.579 -3.088,-1.761 -3.622,-2.677 -3.874,-3.857 -3.874,-5.28 v -6.1 c 0,-0.217 -0.141,-0.338 -0.394,-0.338 h -1.094 c -0.253,0 -0.393,0.121 -0.393,0.338 v 9.788 c 0,1.157 -0.028,1.737 -0.057,2.58 0,0.217 0.141,0.337 0.394,0.337 h 1.038 c 0.253,0 0.394,-0.12 0.394,-0.337 v -2.363 c 0.926,2.025 2.274,3.038 4.043,3.038 0.421,0 0.87,-0.048 1.291,-0.144 C 1.572,1.446 1.769,1.325 1.769,1.061 V 0.048 C 1.769,-0.146 1.544,-0.218 1.348,-0.146 1.011,-0.049 0.562,0 0,0"
             style="fill:#000000;fill-opacity:1;fill-rule:nonzero;stroke:none"
             id="path84" />
        </g>
        <g
           id="g86"
           transform="translate(113.0664,10.9199)">
          <path
             d="m 0,0 c 0.814,-1.157 1.965,-1.784 3.622,-1.784 3.032,0 4.548,2.965 4.548,5.472 0,3.086 -1.572,5.401 -4.548,5.401 C 2.021,9.089 0.814,8.51 0,7.329 -0.59,6.389 -0.87,5.135 -0.87,3.688 -0.87,2.169 -0.59,0.939 0,0 m 10.051,-2.508 c 0,-0.217 -0.14,-0.338 -0.393,-0.338 H 8.563 c -0.252,0 -0.393,0.121 -0.393,0.338 v 1.809 c -1.011,-1.64 -2.639,-2.459 -4.885,-2.459 -1.993,0 -3.566,0.65 -4.689,1.976 -1.038,1.23 -1.544,2.845 -1.544,4.87 0,4.508 2.078,6.775 6.233,6.775 2.246,0 4.099,-0.844 4.885,-2.073 v 7.593 c 0,0.218 0.141,0.338 0.393,0.338 h 1.095 c 0.253,0 0.393,-0.12 0.393,-0.338 z"
             style="fill:#000000;fill-opacity:1;fill-rule:nonzero;stroke:none"
             id="path88" />
        </g>
        <g
           id="g90"
           transform="translate(137.3545,15.5)">
          <path
             d="M 0,0 C 0,1.326 -0.28,2.314 -0.926,3.158 -1.628,4.099 -2.611,4.581 -3.931,4.581 -5.278,4.581 -6.373,4.099 -7.215,3.135 -7.889,2.267 -8.395,1.061 -8.423,0 Z m -8.423,-1.374 c -0.084,-3.183 1.994,-4.99 5.054,-4.99 1.488,0 2.807,0.217 3.931,0.771 0.252,0.096 0.365,0.048 0.365,-0.169 v -1.085 c 0,-0.144 -0.113,-0.265 -0.309,-0.338 -1.235,-0.409 -2.555,-0.627 -4.127,-0.627 -4.605,0 -6.991,2.291 -6.991,6.92 0,2.049 0.589,3.689 1.769,4.943 1.235,1.277 2.807,1.904 4.688,1.904 2.106,0 3.594,-0.651 4.689,-1.929 0.955,-1.132 1.432,-2.675 1.432,-4.581 0,-0.843 0.028,-0.819 -1.011,-0.819 z"
             style="fill:#000000;fill-opacity:1;fill-rule:nonzero;stroke:none"
             id="path92" />
        </g>
        <g
           id="g94"
           transform="translate(149.0654,19.792)">
          <path
             d="M 0,0 C -1.376,0 -2.415,-0.579 -3.089,-1.761 -3.622,-2.677 -3.875,-3.857 -3.875,-5.28 v -6.1 c 0,-0.217 -0.14,-0.338 -0.393,-0.338 h -1.095 c -0.252,0 -0.393,0.121 -0.393,0.338 v 9.788 c 0,1.157 -0.028,1.737 -0.056,2.58 0,0.217 0.14,0.337 0.393,0.337 h 1.039 c 0.253,0 0.393,-0.12 0.393,-0.337 v -2.363 c 0.926,2.025 2.274,3.038 4.043,3.038 0.421,0 0.87,-0.048 1.292,-0.144 C 1.572,1.446 1.769,1.325 1.769,1.061 V 0.048 C 1.769,-0.146 1.544,-0.218 1.348,-0.146 1.011,-0.049 0.562,0 0,0"
             style="fill:#000000;fill-opacity:1;fill-rule:nonzero;stroke:none"
             id="path96" />
        </g>
        <g
           id="g98"
           transform="translate(161.6748,8.0742)">
          <path
             d="m 0,0 c -0.253,0 -0.394,0.121 -0.394,0.338 v 17.166 c 0,0.217 0.141,0.337 0.394,0.337 h 1.348 c 0.252,0 0.392,-0.12 0.392,-0.337 V 0.338 C 1.74,0.121 1.6,0 1.348,0 Z"
             style="fill:#000000;fill-opacity:1;fill-rule:nonzero;stroke:none"
             id="path100" />
        </g>
        <g
           id="g102"
           transform="translate(180.1494,8.4121)">
          <path
             d="m 0,0 c 0,-0.217 -0.14,-0.338 -0.393,-0.338 h -1.123 c -0.253,0 -0.393,0.121 -0.393,0.338 v 7.595 c 0,2.965 -1.291,4.074 -3.537,4.074 -3.033,0 -4.661,-1.519 -4.661,-4.123 V 0 c 0,-0.217 -0.141,-0.338 -0.393,-0.338 h -1.123 c -0.253,0 -0.394,0.121 -0.394,0.338 v 9.644 c 0,1.374 0,2.025 -0.084,2.724 -0.028,0.217 0.169,0.337 0.393,0.337 h 1.011 c 0.253,0 0.393,-0.12 0.393,-0.337 v -1.326 c 1.039,1.374 2.359,2.001 4.942,2.001 C -1.797,13.043 0,11.187 0,7.98 Z"
             style="fill:#000000;fill-opacity:1;fill-rule:nonzero;stroke:none"
             id="path104" />
        </g>
        <g
           id="g106"
           transform="translate(197.166,8.4121)">
          <path
             d="m 0,0 c 0,-0.217 -0.14,-0.338 -0.393,-0.338 h -1.123 c -0.253,0 -0.393,0.121 -0.393,0.338 v 7.595 c 0,2.965 -1.291,4.074 -3.537,4.074 -3.033,0 -4.661,-1.519 -4.661,-4.123 V 0 c 0,-0.217 -0.141,-0.338 -0.393,-0.338 h -1.123 c -0.253,0 -0.394,0.121 -0.394,0.338 v 9.644 c 0,1.374 0,2.025 -0.084,2.724 -0.028,0.217 0.169,0.337 0.393,0.337 h 1.011 c 0.253,0 0.393,-0.12 0.393,-0.337 v -1.326 c 1.039,1.374 2.359,2.001 4.942,2.001 C -1.797,13.043 0,11.187 0,7.98 Z"
             style="fill:#000000;fill-opacity:1;fill-rule:nonzero;stroke:none"
             id="path108" />
        </g>
        <g
           id="g110"
           transform="translate(211.9648,18.4658)">
          <path
             d="m 0,0 c -0.982,1.036 -2.246,1.543 -3.79,1.543 -1.572,0 -2.808,-0.555 -3.79,-1.543 -0.87,-1.037 -1.348,-2.363 -1.348,-3.882 0,-1.543 0.478,-2.892 1.348,-3.882 0.982,-1.036 2.246,-1.566 3.79,-1.566 1.572,0 2.808,0.578 3.79,1.566 0.814,0.99 1.32,2.339 1.32,3.882 C 1.32,-2.363 0.814,-1.037 0,0 m 1.657,-8.655 c -1.319,-1.351 -3.116,-2.122 -5.447,-2.122 -2.33,0 -4.155,0.771 -5.475,2.122 -1.039,1.229 -1.713,2.869 -1.713,4.773 0,1.953 0.562,3.544 1.713,4.774 1.32,1.398 3.145,2.097 5.475,2.097 2.358,0 4.128,-0.675 5.447,-2.097 1.152,-1.278 1.74,-2.87 1.74,-4.774 0,-1.904 -0.702,-3.544 -1.74,-4.773"
             style="fill:#000000;fill-opacity:1;fill-rule:nonzero;stroke:none"
             id="path112" />
        </g>
        <g
           id="g114"
           transform="translate(224.6582,8.3877)">
          <path
             d="m 0,0 c -0.084,-0.217 -0.28,-0.313 -0.562,-0.313 h -1.375 c -0.281,0 -0.45,0.096 -0.534,0.313 l -4.941,12.393 c -0.084,0.169 0.056,0.336 0.28,0.336 h 1.264 c 0.224,0 0.393,-0.12 0.506,-0.336 L -1.207,1.351 3.116,12.393 c 0.084,0.192 0.281,0.336 0.506,0.336 h 1.235 c 0.225,0 0.365,-0.167 0.281,-0.336 z"
             style="fill:#000000;fill-opacity:1;fill-rule:nonzero;stroke:none"
             id="path116" />
        </g>
        <g
           id="g118"
           transform="translate(241.4219,14.873)">
          <path
             d="m 0,0 h -0.534 c -2.106,0.072 -3.734,-0.168 -4.828,-0.53 -1.573,-0.483 -2.36,-1.447 -2.36,-2.773 0,-0.796 0.282,-1.543 0.927,-1.928 0.562,-0.386 1.319,-0.579 2.246,-0.579 2.612,0 4.549,1.808 4.549,4.991 z m -8.396,4.34 v 0.916 c 0,0.217 0.141,0.386 0.394,0.507 1.319,0.602 2.751,0.819 4.521,0.819 3.734,0 5.39,-1.519 5.39,-4.604 v -6.052 c 0,-0.964 0.028,-1.688 0.112,-2.387 0,-0.217 -0.14,-0.338 -0.393,-0.338 H 0.617 c -0.253,0 -0.392,0.121 -0.392,0.338 v 1.857 c -0.787,-1.64 -2.836,-2.581 -4.998,-2.581 -1.881,0 -3.285,0.483 -4.156,1.423 -0.59,0.652 -0.898,1.543 -0.898,2.387 0,1.953 1.039,3.424 3.257,4.123 1.347,0.409 3.425,0.627 6.205,0.627 H 0 v 0.723 c 0,2.025 -0.983,3.11 -3.481,3.11 -1.685,0 -3.173,-0.289 -4.521,-0.988 -0.196,-0.097 -0.394,-0.049 -0.394,0.12"
             style="fill:#000000;fill-opacity:1;fill-rule:nonzero;stroke:none"
             id="path120" />
        </g>
        <g
           id="g122"
           transform="translate(252.8232,7.6885)">
          <path
             d="M 0,0 C -1.516,0 -2.526,0.435 -3.004,1.278 -3.313,1.856 -3.48,2.869 -3.48,4.34 v 7.69 h -2.64 c -0.253,0 -0.394,0.121 -0.394,0.338 v 0.724 c 0,0.217 0.141,0.337 0.394,0.337 h 2.64 v 3.255 c 0,0.241 0.111,0.362 0.364,0.362 h 1.179 c 0.253,0 0.365,-0.121 0.365,-0.362 v -3.255 h 3.117 c 0.252,0 0.392,-0.12 0.392,-0.337 v -0.724 c 0,-0.217 -0.14,-0.338 -0.392,-0.338 H -1.572 V 3.521 c 0,-1.423 0.674,-2.146 2.021,-2.146 0.534,0 1.123,0.096 1.77,0.289 0.196,0.072 0.392,0 0.392,-0.193 L 2.668,0.845 C 2.695,0.627 2.584,0.458 2.331,0.362 1.545,0.121 0.759,0 0,0"
             style="fill:#000000;fill-opacity:1;fill-rule:nonzero;stroke:none"
             id="path124" />
        </g>
        <g
           id="g126"
           transform="translate(258.6377,8.0742)">
          <path
             d="m 0,0 c -0.253,0 -0.394,0.121 -0.394,0.338 v 12.368 c 0,0.217 0.141,0.337 0.394,0.337 h 1.234 c 0.253,0 0.394,-0.12 0.394,-0.337 V 0.338 C 1.628,0.121 1.487,0 1.234,0 Z m 0.589,18.781 c 0.759,0 1.376,-0.53 1.376,-1.181 0,-0.651 -0.617,-1.158 -1.376,-1.158 -0.758,0 -1.348,0.507 -1.348,1.158 0,0.651 0.59,1.181 1.348,1.181"
             style="fill:#000000;fill-opacity:1;fill-rule:nonzero;stroke:none"
             id="path128" />
        </g>
        <g
           id="g130"
           transform="translate(274.8662,18.4658)">
          <path
             d="m 0,0 c -0.983,1.036 -2.246,1.543 -3.791,1.543 -1.572,0 -2.808,-0.555 -3.79,-1.543 -0.87,-1.037 -1.348,-2.363 -1.348,-3.882 0,-1.543 0.478,-2.892 1.348,-3.882 0.982,-1.036 2.246,-1.566 3.79,-1.566 1.572,0 2.808,0.578 3.791,1.566 0.813,0.99 1.319,2.339 1.319,3.882 C 1.319,-2.363 0.813,-1.037 0,0 m 1.656,-8.655 c -1.32,-1.351 -3.117,-2.122 -5.447,-2.122 -2.33,0 -4.155,0.771 -5.475,2.122 -1.039,1.229 -1.713,2.869 -1.713,4.773 0,1.953 0.562,3.544 1.713,4.774 1.32,1.398 3.145,2.097 5.475,2.097 2.358,0 4.127,-0.675 5.447,-2.097 1.151,-1.278 1.74,-2.87 1.74,-4.774 0,-1.904 -0.701,-3.544 -1.74,-4.773"
             style="fill:#000000;fill-opacity:1;fill-rule:nonzero;stroke:none"
             id="path132" />
        </g>
        <g
           id="g134"
           transform="translate(294.1006,8.4121)">
          <path
             d="m 0,0 c 0,-0.217 -0.141,-0.338 -0.394,-0.338 h -1.123 c -0.253,0 -0.392,0.121 -0.392,0.338 v 7.595 c 0,2.965 -1.292,4.074 -3.538,4.074 -3.032,0 -4.66,-1.519 -4.66,-4.123 V 0 c 0,-0.217 -0.141,-0.338 -0.394,-0.338 h -1.123 c -0.253,0 -0.393,0.121 -0.393,0.338 v 9.644 c 0,1.374 0,2.025 -0.085,2.724 -0.027,0.217 0.169,0.337 0.394,0.337 h 1.011 c 0.253,0 0.392,-0.12 0.392,-0.337 v -1.326 c 1.039,1.374 2.36,2.001 4.942,2.001 C -1.797,13.043 0,11.187 0,7.98 Z"
             style="fill:#000000;fill-opacity:1;fill-rule:nonzero;stroke:none"
             id="path136" />
        </g>
        <g
           id="g138"
           transform="translate(322.9951,17.7178)">
          <path
             d="m 0,0 c 0.786,0 0.786,0 0.786,-0.675 v -7.642 c 0,-0.362 -0.28,-0.627 -0.59,-0.747 -1.797,-0.58 -3.761,-0.892 -5.895,-0.892 -6.234,0 -10.754,3.326 -10.754,9.233 0,5.376 4.099,9.234 10.754,9.234 2.105,0 3.453,-0.12 5.221,-0.603 0.282,-0.072 0.394,-0.217 0.337,-0.482 L -0.281,6.534 C -0.309,6.317 -0.449,6.245 -0.702,6.317 -2.387,6.871 -3.79,6.992 -5.699,6.992 c -5.335,0 -8.704,-3.158 -8.704,-7.715 0,-4.966 3.65,-7.715 8.704,-7.715 2.077,0 3.565,0.217 4.435,0.651 v 6.268 h -5.642 c -0.253,0 -0.394,0.122 -0.394,0.338 v 0.844 C -7.3,-0.12 -7.159,0 -6.906,0 Z"
             style="fill:#000000;fill-opacity:1;fill-rule:nonzero;stroke:none"
             id="path140" />
        </g>
        <g
           id="g142"
           transform="translate(335.1279,19.792)">
          <path
             d="M 0,0 C -1.375,0 -2.414,-0.579 -3.088,-1.761 -3.621,-2.677 -3.874,-3.857 -3.874,-5.28 v -6.1 c 0,-0.217 -0.141,-0.338 -0.394,-0.338 h -1.094 c -0.253,0 -0.394,0.121 -0.394,0.338 v 9.788 c 0,1.157 -0.027,1.737 -0.056,2.58 0,0.217 0.141,0.337 0.394,0.337 h 1.038 c 0.253,0 0.394,-0.12 0.394,-0.337 v -2.363 c 0.925,2.025 2.273,3.038 4.043,3.038 0.421,0 0.87,-0.048 1.291,-0.144 C 1.572,1.446 1.77,1.325 1.77,1.061 V 0.048 C 1.77,-0.146 1.545,-0.218 1.348,-0.146 1.011,-0.049 0.562,0 0,0"
             style="fill:#000000;fill-opacity:1;fill-rule:nonzero;stroke:none"
             id="path144" />
        </g>
        <g
           id="g146"
           transform="translate(348.2979,18.4658)">
          <path
             d="m 0,0 c -0.983,1.036 -2.246,1.543 -3.791,1.543 -1.572,0 -2.808,-0.555 -3.79,-1.543 -0.87,-1.037 -1.348,-2.363 -1.348,-3.882 0,-1.543 0.478,-2.892 1.348,-3.882 0.982,-1.036 2.246,-1.566 3.79,-1.566 1.572,0 2.808,0.578 3.791,1.566 0.813,0.99 1.319,2.339 1.319,3.882 C 1.319,-2.363 0.813,-1.037 0,0 m 1.656,-8.655 c -1.32,-1.351 -3.117,-2.122 -5.447,-2.122 -2.33,0 -4.155,0.771 -5.475,2.122 -1.039,1.229 -1.713,2.869 -1.713,4.773 0,1.953 0.562,3.544 1.713,4.774 1.32,1.398 3.145,2.097 5.475,2.097 2.358,0 4.127,-0.675 5.447,-2.097 1.151,-1.278 1.74,-2.87 1.74,-4.774 0,-1.904 -0.701,-3.544 -1.74,-4.773"
             style="fill:#000000;fill-opacity:1;fill-rule:nonzero;stroke:none"
             id="path148" />
        </g>
        <g
           id="g150"
           transform="translate(367.1953,8.0742)">
          <path
             d="M 0,0 H -1.011 C -1.264,0 -1.404,0.121 -1.404,0.338 V 2.339 C -2.387,0.41 -3.959,-0.386 -6.43,-0.386 c -3.509,0 -5.25,1.689 -5.25,5.039 v 8.053 c 0,0.217 0.14,0.337 0.393,0.337 h 1.123 c 0.253,0 0.393,-0.12 0.393,-0.337 V 5.088 c 0,-2.725 1.208,-4.099 3.65,-4.099 2.836,0 4.633,2.29 4.549,5.015 v 6.702 c 0,0.217 0.139,0.337 0.392,0.337 h 1.123 c 0.253,0 0.394,-0.12 0.394,-0.337 V 3.014 C 0.337,1.953 0.364,1.182 0.393,0.338 0.393,0.121 0.253,0 0,0"
             style="fill:#000000;fill-opacity:1;fill-rule:nonzero;stroke:none"
             id="path152" />
        </g>
        <g
           id="g154"
           transform="translate(378.5684,19.96)">
          <path
             d="m 0,0 c -3.032,0 -4.492,-2.362 -4.492,-5.183 0,-3.737 1.768,-5.666 4.492,-5.666 2.836,0 4.464,2.218 4.464,5.666 C 4.464,-2.579 3.341,0 0,0 m -6.373,0.82 c 0,0.217 0.14,0.337 0.393,0.337 h 1.067 c 0.252,0 0.392,-0.12 0.392,-0.337 l -0.14,-1.808 c 0.759,1.423 2.64,2.363 4.998,2.363 4.38,0 6.177,-2.869 6.177,-6.558 0,-3.954 -2.162,-7.015 -6.177,-7.015 -2.274,0 -3.959,0.795 -4.829,2.145 v -5.183 c 0,-0.217 -0.141,-0.338 -0.394,-0.338 h -1.066 c -0.225,0 -0.421,0.144 -0.421,0.338 z"
             style="fill:#000000;fill-opacity:1;fill-rule:nonzero;stroke:none"
             id="path156" />
        </g>
      </g>
    </g>
  </g>
</svg>
