<?xml version="1.0" encoding="UTF-8"?>
<svg id="_레이어_1" data-name=" 레이어 1" xmlns="http://www.w3.org/2000/svg" version="1.1" viewBox="0 0 75.9 75.9">
  <defs>
    <style>
      .cls-1, .cls-2 {
        fill: #0a8aff;
      }

      .cls-1, .cls-3 {
        stroke-width: 0px;
      }

      .cls-2, .cls-4 {
        stroke: #515151;
        stroke-linecap: round;
        stroke-linejoin: round;
        stroke-width: 2px;
      }

      .cls-3 {
        fill: #515151;
      }

      .cls-4 {
        fill: #fff;
      }
    </style>
  </defs>
  <path class="cls-1" d="M69.2,16.1c6.8,11.8,2.8,27-9.1,33.8-11.8,6.8-27,2.8-33.8-9.1-6.8-11.8-2.8-27,9.1-33.8,11.8-6.8,27-2.8,33.8,9.1Z"/>
  <g>
    <path class="cls-3" d="M28.1,55.1l-1.2.7,3.5,6,1.2-.7c.7-.4,1-1.4.6-2.1l-1.9-3.3c-.4-.7-1.4-1-2.1-.6h-.1Z"/>
    <path class="cls-2" d="M16.9,57.9l6.9,12c.6,1,1.8,1.3,2.8.7l4.7-2.7c1-.6,1.3-1.8.7-2.8l-6.9-12s-8.2,4.8-8.2,4.8Z"/>
    <path class="cls-4" d="M25.9,30.1l-20.5,11.8c-.7.4-.9,1.3-.5,1.9l8.7,15.1c.4.7,1.3.9,1.9.5l20.5-11.8-10.1-17.6h0Z"/>
    <polygon class="cls-2" points="48.4 34.9 43.1 31.8 43.1 25.7 48.4 22.6 53.7 25.7 53.7 31.8 48.4 34.9"/>
    <path class="cls-4" d="M39.4,13.4h0c-.4-.3-.9-.2-1.2.3h0l-12.3,16.4,10.1,17.6,20.3-2.5h0c.6,0,.9-.4.9-.9h0c0-.2,0-.3-.2-.5l-17.3-30c0-.2-.2-.3-.3-.4Z"/>
  </g>
</svg>